<svg height="489.947" viewBox="0 0 577.133 367.461" width="769.511" xmlns="http://www.w3.org/2000/svg" xmlns:xlink="http://www.w3.org/1999/xlink"><defs><style>*{stroke-linecap:butt;stroke-linejoin:round}</style></defs><g id="figure_1"><path d="M0 367.46h577.133V0H0z" style="fill:none" id="patch_1"/><g id="axes_1"><path d="M84.887 309.92h357.12V43.81H84.887z" style="fill:none" id="patch_2"/><g id="matplotlib.axis_1"><g id="xtick_1"><g id="line2d_1"><defs><path d="M0 0v3.5" id="mc3bfd3d1d7" style="stroke:#969696;stroke-width:.4"/></defs><use style="fill:#969696;stroke:#969696;stroke-width:.4" x="135.872" xlink:href="#mc3bfd3d1d7" y="309.921"/></g><g style="fill:#969696" transform="matrix(.14 0 0 -.14 125.092 326.917)" id="text_1"><defs><path d="M621 3328h1184V0h403v4480h-326c-122-826-557-838-1261-864v-288z" id="HelveticaNeue-Light-31" transform="scale(.01563)"/><path d="M1779 4179c1024 0 1159-1190 1159-1965 0-780-135-1971-1159-1971S621 1434 621 2214c0 775 134 1965 1158 1965zm0 339C474 4518 218 3258 218 2208 218 1165 474-96 1779-96c1306 0 1562 1261 1562 2310 0 1044-256 2304-1562 2304z" id="HelveticaNeue-Light-30" transform="scale(.01563)"/><path d="M1779 243c-627 0-1139 339-1139 1011 0 660 525 986 1139 973 602 13 1139-326 1139-973 0-684-512-1011-1139-1011zm1357 3155c0 768-698 1120-1363 1120-659 0-1357-352-1357-1120 0-492 262-844 730-985v-13c-551-102-896-563-909-1146C237 352 941-96 1779-96c839 0 1543 448 1543 1350 0 602-340 1031-916 1146v13c455 134 730 499 730 985zm-1357-832c-473-12-960 231-960 832 0 512 467 781 960 781 538 0 954-269 954-781 0-576-461-844-954-832z" id="HelveticaNeue-Light-38" transform="scale(.01563)"/></defs><use transform="translate(0 .469)" xlink:href="#HelveticaNeue-Light-31"/><use transform="translate(55.6 .469)" xlink:href="#HelveticaNeue-Light-30"/><use transform="matrix(.7 0 0 .7 112.103 36.584)" xlink:href="#HelveticaNeue-Light-38"/></g></g><g id="xtick_2"><use style="fill:#969696;stroke:#969696;stroke-width:.4" x="188.088" xlink:href="#mc3bfd3d1d7" y="309.921" id="line2d_2"/><g style="fill:#969696" transform="matrix(.14 0 0 -.14 174.578 326.917)" id="text_2"><defs><path d="M211 1427C147 467 813-96 1741-96c825 0 1542 486 1542 1363 0 589-339 1011-921 1107v13c480 115 755 506 755 992 0 794-685 1139-1389 1139-870 0-1408-627-1414-1472h403c-13 666 345 1133 1017 1133 538 0 980-256 980-845 0-563-493-819-909-812h-339v-340h339c595 0 1075-313 1075-947 0-640-557-992-1146-992-723 0-1145 474-1120 1184H211z" id="HelveticaNeue-Light-33" transform="scale(.01563)"/></defs><use transform="translate(0 .469)" xlink:href="#HelveticaNeue-Light-31"/><use transform="translate(55.6 .469)" xlink:href="#HelveticaNeue-Light-30"/><use transform="matrix(.7 0 0 .7 112.103 36.584)" xlink:href="#HelveticaNeue-Light-31"/><use transform="matrix(.7 0 0 .7 151.023 36.584)" xlink:href="#HelveticaNeue-Light-33"/></g></g><g id="xtick_3"><use style="fill:#969696;stroke:#969696;stroke-width:.4" x="240.304" xlink:href="#mc3bfd3d1d7" y="309.921" id="line2d_3"/><g style="fill:#969696" transform="matrix(.14 0 0 -.14 226.794 326.917)" id="text_3"><use transform="translate(0 .469)" xlink:href="#HelveticaNeue-Light-31"/><use transform="translate(55.6 .469)" xlink:href="#HelveticaNeue-Light-30"/><use transform="matrix(.7 0 0 .7 112.103 36.584)" xlink:href="#HelveticaNeue-Light-31"/><use transform="matrix(.7 0 0 .7 151.023 36.584)" xlink:href="#HelveticaNeue-Light-38"/></g></g><g id="xtick_4"><use style="fill:#969696;stroke:#969696;stroke-width:.4" x="292.52" xlink:href="#mc3bfd3d1d7" y="309.921" id="line2d_4"/><g style="fill:#969696" transform="matrix(.14 0 0 -.14 279.01 326.917)" id="text_4"><defs><path d="M3181 371H691c109 602 909 999 1344 1293 583 378 1127 845 1127 1594 0 832-608 1260-1389 1260-973 0-1453-665-1434-1587h403c-12 659 276 1248 1012 1248 544 0 1004-333 1004-915 0-358-128-595-371-845C1626 1658 262 1331 230 0h2951v371z" id="HelveticaNeue-Light-32" transform="scale(.01563)"/></defs><use transform="translate(0 .469)" xlink:href="#HelveticaNeue-Light-31"/><use transform="translate(55.6 .469)" xlink:href="#HelveticaNeue-Light-30"/><use transform="matrix(.7 0 0 .7 112.103 36.584)" xlink:href="#HelveticaNeue-Light-32"/><use transform="matrix(.7 0 0 .7 151.023 36.584)" xlink:href="#HelveticaNeue-Light-33"/></g></g><g id="xtick_5"><use style="fill:#969696;stroke:#969696;stroke-width:.4" x="344.735" xlink:href="#mc3bfd3d1d7" y="309.921" id="line2d_5"/><g style="fill:#969696" transform="matrix(.14 0 0 -.14 331.225 326.917)" id="text_5"><use transform="translate(0 .469)" xlink:href="#HelveticaNeue-Light-31"/><use transform="translate(55.6 .469)" xlink:href="#HelveticaNeue-Light-30"/><use transform="matrix(.7 0 0 .7 112.103 36.584)" xlink:href="#HelveticaNeue-Light-32"/><use transform="matrix(.7 0 0 .7 151.023 36.584)" xlink:href="#HelveticaNeue-Light-38"/></g></g><g id="xtick_6"><use style="fill:#969696;stroke:#969696;stroke-width:.4" x="396.951" xlink:href="#mc3bfd3d1d7" y="309.921" id="line2d_6"/><g style="fill:#969696" transform="matrix(.14 0 0 -.14 383.441 326.917)" id="text_6"><use transform="translate(0 .469)" xlink:href="#HelveticaNeue-Light-31"/><use transform="translate(55.6 .469)" xlink:href="#HelveticaNeue-Light-30"/><use transform="matrix(.7 0 0 .7 112.103 36.584)" xlink:href="#HelveticaNeue-Light-33"/><use transform="matrix(.7 0 0 .7 151.023 36.584)" xlink:href="#HelveticaNeue-Light-33"/></g></g><g style="fill:#969696" transform="matrix(.14 0 0 -.14 210.68 357.587)" id="text_7"><defs><path d="M3117 2266c-90 755-634 1132-1338 1132-1011 0-1561-800-1561-1747S768-96 1779-96c736 0 1255 486 1363 1280h-403c-51-550-461-941-960-941-774 0-1158 704-1158 1408s384 1408 1158 1408c525 0 826-301 935-793h403z" id="HelveticaNeue-Light-63" transform="scale(.01563)"/><path d="M1779 3398c-1011 0-1561-800-1561-1747S768-96 1779-96s1562 800 1562 1747-551 1747-1562 1747zm0-339c775 0 1159-704 1159-1408S2554 243 1779 243c-774 0-1158 704-1158 1408s384 1408 1158 1408z" id="HelveticaNeue-Light-6f" transform="scale(.01563)"/><path d="M378 0h403v1926c13 647 397 1133 1037 1133 652 0 838-429 838-998V0h403v2125c0 787-281 1273-1209 1273-468 0-909-268-1056-665h-13v569H378V0z" id="HelveticaNeue-Light-6e" transform="scale(.01563)"/><path d="M646 1651c0 685 314 1408 1082 1408 858 0 1158-723 1158-1408S2586 243 1728 243C960 243 646 966 646 1651zm2644 2919h-404V2675h-12c-173 474-653 723-1146 723-1005 0-1485-812-1485-1747C243 717 723-96 1728-96c480 0 1005 294 1178 723h12V0h372v4570z" id="HelveticaNeue-Light-64" transform="scale(.01563)"/><path d="M390 0h404v3302H390V0zm0 3923h404v647H390v-647z" id="HelveticaNeue-Light-69" transform="scale(.01563)"/><path d="M1024 4294H621v-992H45v-339h576V704c-7-563 179-742 717-742 121 0 236 12 358 12v346c-115-13-230-19-346-19-288 19-326 173-326 435v2227h672v339h-672v992z" id="HelveticaNeue-Light-74" transform="scale(.01563)"/><path d="M3059 3302h-403V1568c0-672-301-1325-992-1325-640 0-864 314-883 909v2150H378V1158C378 390 704-96 1536-96c493 0 928 250 1139 691h13V0h371v3302z" id="HelveticaNeue-Light-75" transform="scale(.01563)"/><path d="M384 0h403v1843c7 691 288 1216 986 1216 512 0 697-371 691-819V0h403v1869c0 614 199 1190 896 1190 576 0 781-294 781-838V0h403v2240c0 781-371 1158-1094 1158-435 0-851-211-1050-646-121 435-512 646-947 646-525 0-870-256-1082-652h-19v556H384V0z" id="HelveticaNeue-Light-6d" transform="scale(.01563)"/><path d="M3027 1651c0-685-313-1408-1081-1408-858 0-1159 723-1159 1408s301 1408 1159 1408c768 0 1081-723 1081-1408zM384 0h371v627h13C954 179 1414-96 1946-96c1004 0 1484 813 1484 1747 0 935-480 1747-1484 1747-493 0-973-249-1146-723h-13v1895H384V0z" id="HelveticaNeue-Light-62" transform="scale(.01563)"/><path d="M3162 1542c32 928-391 1856-1453 1856-1050 0-1491-876-1491-1747C218 710 659-96 1709-96c832 0 1267 435 1440 1184h-403c-128-499-448-845-1037-845-775 0-1082 711-1088 1299h2541zM621 1882c64 601 429 1177 1088 1177 653 0 1030-569 1049-1177H621z" id="HelveticaNeue-Light-65" transform="scale(.01563)"/><path d="M384 0h403v1760c0 685 499 1222 1229 1184v403c-595 26-1043-288-1248-819h-13v774H384V0z" id="HelveticaNeue-Light-72" transform="scale(.01563)"/></defs><use xlink:href="#HelveticaNeue-Light-63"/><use x="51.9" xlink:href="#HelveticaNeue-Light-6f"/><use x="107.5" xlink:href="#HelveticaNeue-Light-6e"/><use x="161.2" xlink:href="#HelveticaNeue-Light-64"/><use x="218.6" xlink:href="#HelveticaNeue-Light-69"/><use x="237.1" xlink:href="#HelveticaNeue-Light-74"/><use x="266.7" xlink:href="#HelveticaNeue-Light-69"/><use x="285.2" xlink:href="#HelveticaNeue-Light-6f"/><use x="340.8" xlink:href="#HelveticaNeue-Light-6e"/><use x="394.5" xlink:href="#HelveticaNeue-Light-20"/><use x="422.3" xlink:href="#HelveticaNeue-Light-6e"/><use x="476" xlink:href="#HelveticaNeue-Light-75"/><use x="529.7" xlink:href="#HelveticaNeue-Light-6d"/><use x="613" xlink:href="#HelveticaNeue-Light-62"/><use x="670.4" xlink:href="#HelveticaNeue-Light-65"/><use x="722.3" xlink:href="#HelveticaNeue-Light-72"/></g></g><g id="matplotlib.axis_2"><g id="ytick_1"><path clip-path="url(#p6851e2d5ab)" d="M84.887 282.294h357.12" style="fill:none;stroke:#969696;stroke-linecap:square;stroke-width:.3" id="line2d_7"/><g id="line2d_8"><defs><path d="M0 0h-3.5" id="m5d1057b763" style="stroke:#969696;stroke-width:.3"/></defs><use style="fill:#969696;stroke:#969696;stroke-width:.3" x="84.887" xlink:href="#m5d1057b763" y="282.294"/></g><g style="fill:#969696" transform="matrix(.14 0 0 -.14 44.987 287.292)" id="text_8"><defs><path d="M3533 1779H314v-339h3219v339z" id="HelveticaNeue-Light-2212" transform="scale(.01563)"/><path d="M192 1114h2067V0h371v1114h672v339h-672v3027h-364L192 1504v-390zm365 339 1689 2438h13V1453H557z" id="HelveticaNeue-Light-34" transform="scale(.01563)"/></defs><use transform="translate(0 .884)" xlink:href="#HelveticaNeue-Light-31"/><use transform="translate(55.6 .884)" xlink:href="#HelveticaNeue-Light-30"/><use transform="matrix(.7 0 0 .7 112.103 37)" xlink:href="#HelveticaNeue-Light-2212"/><use transform="matrix(.7 0 0 .7 154.103 37)" xlink:href="#HelveticaNeue-Light-31"/><use transform="matrix(.7 0 0 .7 193.023 37)" xlink:href="#HelveticaNeue-Light-34"/></g></g><g id="ytick_2"><path clip-path="url(#p6851e2d5ab)" d="M84.887 248.606h357.12" style="fill:none;stroke:#969696;stroke-linecap:square;stroke-width:.3" id="line2d_9"/><use style="fill:#969696;stroke:#969696;stroke-width:.3" x="84.887" xlink:href="#m5d1057b763" y="248.606" id="line2d_10"/><g style="fill:#969696" transform="matrix(.14 0 0 -.14 50.447 253.605)" id="text_9"><defs><path d="M1702 1843c-684 0-1081 531-1081 1184 0 621 435 1152 1075 1152 781 0 1120-518 1120-1152 0-659-410-1184-1114-1184zM326 1075C422 294 915-96 1702-96c1466 0 1600 1702 1600 2234 0 1747-480 2380-1568 2380-883 0-1516-646-1516-1516 0-877 582-1498 1478-1498 506 0 979 301 1190 742h13c0-812-192-2003-1235-2003-518 0-864 339-934 832H326z" id="HelveticaNeue-Light-39" transform="scale(.01563)"/></defs><use transform="translate(0 .469)" xlink:href="#HelveticaNeue-Light-31"/><use transform="translate(55.6 .469)" xlink:href="#HelveticaNeue-Light-30"/><use transform="matrix(.7 0 0 .7 112.103 36.584)" xlink:href="#HelveticaNeue-Light-2212"/><use transform="matrix(.7 0 0 .7 154.103 36.584)" xlink:href="#HelveticaNeue-Light-39"/></g></g><g id="ytick_3"><path clip-path="url(#p6851e2d5ab)" d="M84.887 214.919h357.12" style="fill:none;stroke:#969696;stroke-linecap:square;stroke-width:.3" id="line2d_11"/><use style="fill:#969696;stroke:#969696;stroke-width:.3" x="84.887" xlink:href="#m5d1057b763" y="214.919" id="line2d_12"/><g style="fill:#969696" transform="matrix(.14 0 0 -.14 50.447 219.917)" id="text_10"><use transform="translate(0 .884)" xlink:href="#HelveticaNeue-Light-31"/><use transform="translate(55.6 .884)" xlink:href="#HelveticaNeue-Light-30"/><use transform="matrix(.7 0 0 .7 112.103 37)" xlink:href="#HelveticaNeue-Light-2212"/><use transform="matrix(.7 0 0 .7 154.103 37)" xlink:href="#HelveticaNeue-Light-34"/></g></g><g id="ytick_4"><path clip-path="url(#p6851e2d5ab)" d="M84.887 181.231h357.12" style="fill:none;stroke:#969696;stroke-linecap:square;stroke-width:.3" id="line2d_13"/><use style="fill:#969696;stroke:#969696;stroke-width:.3" x="84.887" xlink:href="#m5d1057b763" y="181.231" id="line2d_14"/><g style="fill:#969696" transform="matrix(.14 0 0 -.14 56.327 186.23)" id="text_11"><use transform="translate(0 .884)" xlink:href="#HelveticaNeue-Light-31"/><use transform="translate(55.6 .884)" xlink:href="#HelveticaNeue-Light-30"/><use transform="matrix(.7 0 0 .7 112.103 37)" xlink:href="#HelveticaNeue-Light-31"/></g></g><g id="ytick_5"><path clip-path="url(#p6851e2d5ab)" d="M84.887 147.544h357.12" style="fill:none;stroke:#969696;stroke-linecap:square;stroke-width:.3" id="line2d_15"/><use style="fill:#969696;stroke:#969696;stroke-width:.3" x="84.887" xlink:href="#m5d1057b763" y="147.544" id="line2d_16"/><g style="fill:#969696" transform="matrix(.14 0 0 -.14 56.327 152.542)" id="text_12"><defs><path d="M1856 2579c685 0 1082-531 1082-1184 0-621-436-1152-1076-1152-780 0-1120 519-1120 1152 0 659 410 1184 1114 1184zm1376 768c-96 781-589 1171-1376 1171-1466 0-1600-1702-1600-2233C256 538 736-96 1824-96c883 0 1517 646 1517 1517 0 877-583 1497-1479 1497-505 0-979-300-1190-742h-13c0 813 192 2003 1235 2003 519 0 864-339 935-832h403z" id="HelveticaNeue-Light-36" transform="scale(.01563)"/></defs><use transform="translate(0 .469)" xlink:href="#HelveticaNeue-Light-31"/><use transform="translate(55.6 .469)" xlink:href="#HelveticaNeue-Light-30"/><use transform="matrix(.7 0 0 .7 112.103 36.584)" xlink:href="#HelveticaNeue-Light-36"/></g></g><g id="ytick_6"><path clip-path="url(#p6851e2d5ab)" d="M84.887 113.856h357.12" style="fill:none;stroke:#969696;stroke-linecap:square;stroke-width:.3" id="line2d_17"/><use style="fill:#969696;stroke:#969696;stroke-width:.3" x="84.887" xlink:href="#m5d1057b763" y="113.856" id="line2d_18"/><g style="fill:#969696" transform="matrix(.14 0 0 -.14 50.867 118.855)" id="text_13"><use transform="translate(0 .884)" xlink:href="#HelveticaNeue-Light-31"/><use transform="translate(55.6 .884)" xlink:href="#HelveticaNeue-Light-30"/><use transform="matrix(.7 0 0 .7 112.103 37)" xlink:href="#HelveticaNeue-Light-31"/><use transform="matrix(.7 0 0 .7 151.023 37)" xlink:href="#HelveticaNeue-Light-31"/></g></g><g id="ytick_7"><path clip-path="url(#p6851e2d5ab)" d="M84.887 80.169h357.12" style="fill:none;stroke:#969696;stroke-linecap:square;stroke-width:.3" id="line2d_19"/><use style="fill:#969696;stroke:#969696;stroke-width:.3" x="84.887" xlink:href="#m5d1057b763" y="80.169" id="line2d_20"/><g style="fill:#969696" transform="matrix(.14 0 0 -.14 50.867 85.167)" id="text_14"><use transform="translate(0 .469)" xlink:href="#HelveticaNeue-Light-31"/><use transform="translate(55.6 .469)" xlink:href="#HelveticaNeue-Light-30"/><use transform="matrix(.7 0 0 .7 112.103 36.584)" xlink:href="#HelveticaNeue-Light-31"/><use transform="matrix(.7 0 0 .7 151.023 36.584)" xlink:href="#HelveticaNeue-Light-36"/></g></g><g id="ytick_8"><path clip-path="url(#p6851e2d5ab)" d="M84.887 46.481h357.12" style="fill:none;stroke:#969696;stroke-linecap:square;stroke-width:.3" id="line2d_21"/><use style="fill:#969696;stroke:#969696;stroke-width:.3" x="84.887" xlink:href="#m5d1057b763" y="46.481" id="line2d_22"/><g style="fill:#969696" transform="matrix(.14 0 0 -.14 50.867 51.48)" id="text_15"><use transform="translate(0 .469)" xlink:href="#HelveticaNeue-Light-31"/><use transform="translate(55.6 .469)" xlink:href="#HelveticaNeue-Light-30"/><use transform="matrix(.7 0 0 .7 112.103 36.584)" xlink:href="#HelveticaNeue-Light-32"/><use transform="matrix(.7 0 0 .7 151.023 36.584)" xlink:href="#HelveticaNeue-Light-31"/></g></g><g style="fill:#969696" transform="matrix(.14 0 0 -.14 7.2 17.197)" id="text_16"><defs><path d="M390 0h404v4570H390V0z" id="HelveticaNeue-Light-6c" transform="scale(.01563)"/><path d="M2496 1280c6-646-538-1037-1152-1037-378 0-736 250-736 653 0 646 851 640 1536 762 109 19 288 51 339 147h13v-525zM749 2291c13 538 384 768 883 768 474 0 864-134 864-678 0-365-186-410-518-448-871-103-1773-135-1773-1063 0-665 499-966 1107-966 634 0 922 243 1203 672h13c0-346 64-576 474-576 108 0 172 6 262 26v339c-32-13-83-26-128-26-160 0-237 90-237 243v1754c0 883-633 1062-1216 1062-755 0-1299-332-1337-1107h403z" id="HelveticaNeue-Light-61" transform="scale(.01563)"/><path d="M1286 0h429l1235 3302h-416L1510 403h-12L461 3302H13L1286 0z" id="HelveticaNeue-Light-76" transform="scale(.01563)"/></defs><use xlink:href="#HelveticaNeue-Light-72"/><use x="31.5" xlink:href="#HelveticaNeue-Light-65"/><use x="83.4" xlink:href="#HelveticaNeue-Light-6c"/><use x="101.9" xlink:href="#HelveticaNeue-Light-61"/><use x="153.8" xlink:href="#HelveticaNeue-Light-74"/><use x="183.4" xlink:href="#HelveticaNeue-Light-69"/><use x="201.9" xlink:href="#HelveticaNeue-Light-76"/><use x="248.2" xlink:href="#HelveticaNeue-Light-65"/><use x="300.1" xlink:href="#HelveticaNeue-Light-20"/><use x="327.9" xlink:href="#HelveticaNeue-Light-65"/><use x="379.8" xlink:href="#HelveticaNeue-Light-72"/><use x="411.3" xlink:href="#HelveticaNeue-Light-72"/><use x="442.8" xlink:href="#HelveticaNeue-Light-6f"/><use x="498.4" xlink:href="#HelveticaNeue-Light-72"/></g></g><path clip-path="url(#p6851e2d5ab)" d="m84.887 276.85.509 3.694 6.57-5.917 7.64-5.75 14.614-13.347 5.019-2.733 7.748-6.996 13.704-1.509 6.357 2.303 14.215-23.666 10.731-6.63 13.158 1.101 3.794-8.914 17.55-8.475.17-3.363 17.145-15.865 8.29-2.011 7.364-.759 11.719-12.456 10.657-6.164 12.035-9.587 7.127-4.665 11.26-5.227 13.82-9.447 5.487-4.95 18.258-5.37 2.7-5.393 13.13-7.298 7.89-7.24 7.023 3.968 14.512-13.42 5.051-6.548 11.68-7.981 16.124-10.225 3.598-1.634 16.278-8.821 14.193-11.746" style="fill:none;stroke:#1f77b4;stroke-linecap:square;stroke-width:1.5" id="line2d_23"/><path clip-path="url(#p6851e2d5ab)" d="m84.887 279.846.509 6.579 6.57-4.15 7.64-10.829 14.614-10.495 5.019-1.603 7.748-6.001 13.704-12.06 6.357-.353 14.215-12.406 10.731-10.83 13.158-2.938 3.794-3.221 17.55-10.22.17-.304 17.145-7.836 8.29-10.707 7.364-1.715 11.719-10.316 10.657-5.713 12.035-8.464 7.127 31.705 11.26-47.033 13.82-5.03 5.487 52.063 18.258-69.633 2.7-3.747 13.13-7.732 7.89 81.112 7.023-85.571 14.512-12.377 5.051-3.6 11.68-5.293 16.124-10.464 3.598 117.305 16.278-130.776 14.193-9.698" style="fill:none;stroke:#ff7f0e;stroke-linecap:square;stroke-width:1.5" id="line2d_24"/><path clip-path="url(#p6851e2d5ab)" d="m84.887 283.975.509 4.865 6.57-2.895 7.64-8.231 14.614-6.369 5.019-7.411L126.987 251l13.704-8.273 6.357 5.863 14.215-16.911 10.731-9.775 13.158-4.504 3.794-4.154 17.55-11.356.17-1.065 17.145-4.95 8.29-6.421 7.364-9.225 11.719-.44 10.657-11.636 12.035-7.591 7.127-5.523 11.26-10.783 13.82-5.135 5.487-2.864 18.258-15.751 2.7 2.18 13.13-10.893 7.89-4.825 7.023-2.426 14.512-14.446 5.051-.8 11.68-7.606 16.124-11.204 3.598 3.343 16.278-12.621 14.193-11.479" style="fill:none;stroke:#2ca02c;stroke-linecap:square;stroke-width:1.5" id="line2d_25"/><path clip-path="url(#p6851e2d5ab)" d="m84.887 300.91.509-2.508 6.57.141 7.64 10.168 14.614-7.332 5.019-2.21 7.748 3.053 13.704-5.577 6.357.83 14.215 2.313 10.731 3.776 13.158-2.766 3.794 3.982 17.55-3.858.17-1.668 17.145-12.362 8.29.153 7.364-6.856 11.719-4.55 10.657-10.346 12.035-8.23 7.127 1.775 11.26-9.436 13.82-4.036 5.487-15.585 18.258-.712 2.7-11.56 13.13-6.368 7.89-5.277 7.023.379 14.512-13.916 5.051 4.506 11.68-14.72 16.124-10.027 3.598 15.883 16.278-27.339 14.193-9.698" style="fill:none;stroke:#d62728;stroke-linecap:square;stroke-width:1.5" id="line2d_26"/><path clip-path="url(#p6851e2d5ab)" d="m84.887 300.91.509-2.508 6.57.141 7.64 10.168 14.614-7.332 5.019-2.21 7.748 3.053 13.704-5.577 6.357.83 14.215 2.313 10.731 3.776 13.158-2.766 3.794 3.982 17.55-3.858.17-1.668 17.145 8.739 8.29-.932 7.364-5.683 11.719-1.812 10.657-1.283 12.035-1.86 7.127 13.498 11.26-1.416 13.82-9.11 5.487-.251 18.258 5.965 2.7.835 13.13-9.191 7.89 1.35 7.023-.416 14.512 2.112 5.051-8.842 11.68-4.151 16.124-8.988 3.598-7.89 16.278-3.814 14.193-16.587" style="fill:none;stroke:#9467bd;stroke-linecap:square;stroke-width:1.5" id="line2d_27"/><path clip-path="url(#p6851e2d5ab)" d="m84.887 300.91.509-2.508 6.57.141 7.64 10.168 14.614-7.332 5.019-2.21 7.748 3.053 13.704-5.577 6.357.83 14.215 2.313 10.731 3.776 13.158-2.766 3.794 3.982 17.55-3.858.17-1.668 17.145 8.739 8.29-.932 7.364-5.683 11.719-1.812 10.657-1.283 12.035-1.86 7.127 13.498 11.26-1.416 13.82-9.11 5.487-.251 18.258 5.965 2.7.835 13.13-9.191 7.89 1.35 7.023-.416 14.512 2.112 5.051-2.127 11.68 5.418 16.124-5.87 3.598 7.153 16.278 3.135 14.193-8.796" style="fill:none;stroke:#8c564b;stroke-linecap:square;stroke-width:1.5" id="line2d_28"/><g style="fill:#1f77b4" transform="matrix(.14 0 0 -.14 452.72 36.673)" id="text_17"><defs><path d="M2765 2336c-26 717-551 1062-1210 1062-582 0-1241-256-1241-928 0-563 396-742 921-883l519-115c364-90 723-218 723-602 0-460-525-627-903-627-537 0-940 282-972 826H198C262 262 787-96 1555-96c615 0 1325 275 1325 992 0 576-480 845-941 915l-537 122c-276 70-685 198-685 557 0 428 422 569 781 569 460 0 844-224 864-723h403z" id="HelveticaNeue-Light-73" transform="scale(.01563)"/></defs><use xlink:href="#HelveticaNeue-Light-73"/><use x="48.1" xlink:href="#HelveticaNeue-Light-75"/><use x="101.8" xlink:href="#HelveticaNeue-Light-6d"/></g><g style="fill:#ff7f0e" transform="matrix(.14 0 0 -.14 452.72 50.673)" id="text_18"><defs><path d="M3027 1651c0-685-313-1408-1081-1408-858 0-1159 723-1159 1408 0 749 269 1408 1159 1408 768 0 1081-723 1081-1408zM384-1222h403V627h13C973 154 1453-96 1946-96c1004 0 1484 813 1484 1747 0 935-480 1747-1484 1747-532 0-992-275-1178-723h-13v627H384v-4524z" id="HelveticaNeue-Light-70" transform="scale(.01563)"/><path d="m1331 13-141-378c-134-307-217-518-576-518-89 0-179 13-275 32v-339c64-26 147-26 307-32 506 0 640 160 871 716l1433 3808h-403L1530 486 442 3302H13L1331 13z" id="HelveticaNeue-Light-79" transform="scale(.01563)"/><path d="M1158 0v678H621V0h537z" id="HelveticaNeue-Light-2e" transform="scale(.01563)"/></defs><use xlink:href="#HelveticaNeue-Light-6e"/><use x="53.7" xlink:href="#HelveticaNeue-Light-75"/><use x="107.4" xlink:href="#HelveticaNeue-Light-6d"/><use x="190.7" xlink:href="#HelveticaNeue-Light-70"/><use x="248.1" xlink:href="#HelveticaNeue-Light-79"/><use x="294.4" xlink:href="#HelveticaNeue-Light-2e"/><use x="322.2" xlink:href="#HelveticaNeue-Light-73"/><use x="370.3" xlink:href="#HelveticaNeue-Light-75"/><use x="424" xlink:href="#HelveticaNeue-Light-6d"/></g><g style="fill:#2ca02c" transform="matrix(.14 0 0 -.14 452.72 64.673)" id="text_19"><defs><path d="M384 0h403v1254l653 544L2746 0h505L1747 2080l1408 1222h-537L787 1702v2868H384V0z" id="HelveticaNeue-Light-6b" transform="scale(.01563)"/><path d="M378 0h403v1926c13 647 397 1133 1037 1133 652 0 838-429 838-998V0h403v2125c0 787-281 1273-1209 1273-468 0-909-268-1056-665h-13v1837H378V0z" id="HelveticaNeue-Light-68" transform="scale(.01563)"/><path d="M3200-800v320H0v-320h3200z" id="HelveticaNeue-Light-5f" transform="scale(.01563)"/></defs><use xlink:href="#HelveticaNeue-Light-61"/><use x="51.9" xlink:href="#HelveticaNeue-Light-63"/><use x="103.8" xlink:href="#HelveticaNeue-Light-63"/><use x="155.7" xlink:href="#HelveticaNeue-Light-75"/><use x="209.4" xlink:href="#HelveticaNeue-Light-70"/><use x="266.8" xlink:href="#HelveticaNeue-Light-79"/><use x="313.1" xlink:href="#HelveticaNeue-Light-2e"/><use x="340.9" xlink:href="#HelveticaNeue-Light-6b"/><use x="390.9" xlink:href="#HelveticaNeue-Light-61"/><use x="442.8" xlink:href="#HelveticaNeue-Light-68"/><use x="496.5" xlink:href="#HelveticaNeue-Light-61"/><use x="548.4" xlink:href="#HelveticaNeue-Light-6e"/><use x="602.1" xlink:href="#HelveticaNeue-Light-5f"/><use x="652.1" xlink:href="#HelveticaNeue-Light-73"/><use x="700.2" xlink:href="#HelveticaNeue-Light-75"/><use x="753.9" xlink:href="#HelveticaNeue-Light-6d"/></g><g style="fill:#d62728" transform="matrix(.14 0 0 -.14 452.72 154.7)" id="text_20"><defs><path d="M1517-1222v339H890v5209h627v340H486v-5888h1031z" id="HelveticaNeue-Light-5b" transform="scale(.01563)"/><path d="M26 4666v-340h627V-883H26v-339h1030v5888H26z" id="HelveticaNeue-Light-5d" transform="scale(.01563)"/></defs><use xlink:href="#HelveticaNeue-Light-61"/><use x="51.9" xlink:href="#HelveticaNeue-Light-63"/><use x="103.8" xlink:href="#HelveticaNeue-Light-63"/><use x="155.7" xlink:href="#HelveticaNeue-Light-75"/><use x="209.4" xlink:href="#HelveticaNeue-Light-70"/><use x="266.8" xlink:href="#HelveticaNeue-Light-79"/><use x="313.1" xlink:href="#HelveticaNeue-Light-2e"/><use x="340.9" xlink:href="#HelveticaNeue-Light-6b"/><use x="390.9" xlink:href="#HelveticaNeue-Light-73"/><use x="439" xlink:href="#HelveticaNeue-Light-75"/><use x="492.7" xlink:href="#HelveticaNeue-Light-6d"/><use x="576" xlink:href="#HelveticaNeue-Light-5b"/><use x="600.1" xlink:href="#HelveticaNeue-Light-32"/><use x="655.7" xlink:href="#HelveticaNeue-Light-5d"/></g><g style="fill:#9467bd" transform="matrix(.14 0 0 -.14 452.72 253.294)" id="text_21"><use xlink:href="#HelveticaNeue-Light-61"/><use x="51.9" xlink:href="#HelveticaNeue-Light-63"/><use x="103.8" xlink:href="#HelveticaNeue-Light-63"/><use x="155.7" xlink:href="#HelveticaNeue-Light-75"/><use x="209.4" xlink:href="#HelveticaNeue-Light-70"/><use x="266.8" xlink:href="#HelveticaNeue-Light-79"/><use x="313.1" xlink:href="#HelveticaNeue-Light-2e"/><use x="340.9" xlink:href="#HelveticaNeue-Light-6b"/><use x="390.9" xlink:href="#HelveticaNeue-Light-73"/><use x="439" xlink:href="#HelveticaNeue-Light-75"/><use x="492.7" xlink:href="#HelveticaNeue-Light-6d"/><use x="576" xlink:href="#HelveticaNeue-Light-5b"/><use x="600.1" xlink:href="#HelveticaNeue-Light-33"/><use x="655.7" xlink:href="#HelveticaNeue-Light-5d"/></g><g style="fill:#8c564b" transform="matrix(.14 0 0 -.14 452.72 302.374)" id="text_22"><defs><path d="M1658 3302h-653v288c6 359-7 640 441 640 96 0 186-12 295-32v346c-128 19-224 26-339 26-647 0-807-397-800-967v-301H38v-339h564V0h403v2963h653v339z" id="HelveticaNeue-Light-66" transform="scale(.01563)"/></defs><use xlink:href="#HelveticaNeue-Light-61"/><use x="51.9" xlink:href="#HelveticaNeue-Light-63"/><use x="103.8" xlink:href="#HelveticaNeue-Light-63"/><use x="155.7" xlink:href="#HelveticaNeue-Light-75"/><use x="209.4" xlink:href="#HelveticaNeue-Light-70"/><use x="266.8" xlink:href="#HelveticaNeue-Light-79"/><use x="313.1" xlink:href="#HelveticaNeue-Light-2e"/><use x="340.9" xlink:href="#HelveticaNeue-Light-66"/><use x="366.8" xlink:href="#HelveticaNeue-Light-73"/><use x="414.9" xlink:href="#HelveticaNeue-Light-75"/><use x="468.6" xlink:href="#HelveticaNeue-Light-6d"/></g></g></g><defs><clipPath id="p6851e2d5ab"><path d="M84.887 43.809h357.12v266.112H84.887z"/></clipPath></defs></svg>