<svg height="349.445" viewBox="0 0 568.271 262.084" width="757.695" xmlns="http://www.w3.org/2000/svg" xmlns:xlink="http://www.w3.org/1999/xlink"><defs><style>*{stroke-linecap:butt;stroke-linejoin:round}</style></defs><g id="figure_1"><path d="M0 262.084h568.271V0H0z" fill="none" id="patch_1"/><g id="axes_1"><path d="M55.778 224.527h357.12V11H55.778z" fill="none" id="patch_2"/><g id="matplotlib.axis_1"><g id="xtick_1"><path clip-path="url(#pfea44e7931)" d="M99.373 224.527V11" fill="none" stroke="#b0b0b0" stroke-linecap="square" stroke-width=".8" id="line2d_1"/><g id="line2d_2"><defs><path d="M0 0v3.5" id="m5ca3e4f133" stroke="#000" stroke-width=".8"/></defs><use x="99.373" xlink:href="#m5ca3e4f133" y="224.527" stroke="#000" stroke-width=".8"/></g><g id="text_1"><defs><path d="M12.406 8.297h16.11v55.625l-17.532-3.516v8.985l17.438 3.515h9.86V8.296H54.39V0H12.406z" id="DejaVuSans-49"/><path d="M31.781 66.406q-7.61 0-11.453-7.5Q16.5 51.422 16.5 36.375q0-14.984 3.828-22.484 3.844-7.5 11.453-7.5 7.672 0 11.5 7.5 3.844 7.5 3.844 22.484 0 15.047-3.844 22.531-3.828 7.5-11.5 7.5zm0 7.813q12.266 0 18.735-9.703 6.468-9.688 6.468-28.141 0-18.406-6.468-28.11-6.47-9.687-18.735-9.687-12.25 0-18.718 9.688-6.47 9.703-6.47 28.109 0 18.453 6.47 28.14Q19.53 74.22 31.78 74.22z" id="DejaVuSans-48"/><path d="M33.016 40.375q-6.641 0-10.532-4.547-3.875-4.531-3.875-12.437 0-7.86 3.875-12.438 3.891-4.562 10.532-4.562 6.64 0 10.515 4.562 3.875 4.578 3.875 12.438 0 7.906-3.875 12.437-3.875 4.547-10.515 4.547zm19.578 30.922v-8.984q-3.719 1.75-7.5 2.671-3.782.938-7.5.938-9.766 0-14.922-6.594-5.14-6.594-5.875-19.922 2.875 4.25 7.219 6.516 4.359 2.266 9.578 2.266 10.984 0 17.36-6.672 6.374-6.657 6.374-18.125 0-11.235-6.64-18.032-6.641-6.78-17.672-6.78-12.657 0-19.344 9.687-6.688 9.703-6.688 28.109 0 17.281 8.204 27.563 8.203 10.28 22.015 10.28 3.719 0 7.5-.734t7.89-2.187z" id="DejaVuSans-54"/></defs><g transform="matrix(.1 0 0 -.1 90.573 239.126)"><use transform="translate(0 .766)" xlink:href="#DejaVuSans-49"/><use transform="translate(63.623 .766)" xlink:href="#DejaVuSans-48"/><use transform="matrix(.7 0 0 .7 128.203 39.047)" xlink:href="#DejaVuSans-54"/></g></g></g><g id="xtick_2"><path clip-path="url(#pfea44e7931)" d="M146.842 224.527V11" fill="none" stroke="#b0b0b0" stroke-linecap="square" stroke-width=".8" id="line2d_3"/><use x="146.842" xlink:href="#m5ca3e4f133" y="224.527" stroke="#000" stroke-width=".8" id="line2d_4"/><g transform="matrix(.1 0 0 -.1 135.792 239.126)" id="text_2"><use transform="translate(0 .684)" xlink:href="#DejaVuSans-49"/><use transform="translate(63.623 .684)" xlink:href="#DejaVuSans-48"/><use transform="matrix(.7 0 0 .7 128.203 38.966)" xlink:href="#DejaVuSans-49"/><use transform="matrix(.7 0 0 .7 172.74 38.966)" xlink:href="#DejaVuSans-49"/></g></g><g id="xtick_3"><path clip-path="url(#pfea44e7931)" d="M194.311 224.527V11" fill="none" stroke="#b0b0b0" stroke-linecap="square" stroke-width=".8" id="line2d_5"/><use x="194.311" xlink:href="#m5ca3e4f133" y="224.527" stroke="#000" stroke-width=".8" id="line2d_6"/><g transform="matrix(.1 0 0 -.1 183.261 239.126)" id="text_3"><use transform="translate(0 .766)" xlink:href="#DejaVuSans-49"/><use transform="translate(63.623 .766)" xlink:href="#DejaVuSans-48"/><use transform="matrix(.7 0 0 .7 128.203 39.047)" xlink:href="#DejaVuSans-49"/><use transform="matrix(.7 0 0 .7 172.74 39.047)" xlink:href="#DejaVuSans-54"/></g></g><g id="xtick_4"><path clip-path="url(#pfea44e7931)" d="M241.78 224.527V11" fill="none" stroke="#b0b0b0" stroke-linecap="square" stroke-width=".8" id="line2d_7"/><use x="241.78" xlink:href="#m5ca3e4f133" y="224.527" stroke="#000" stroke-width=".8" id="line2d_8"/><g id="text_4"><defs><path d="M19.188 8.297h34.421V0H7.33v8.297q5.609 5.812 15.296 15.594 9.703 9.797 12.188 12.64 4.734 5.313 6.609 9 1.89 3.688 1.89 7.25 0 5.813-4.078 9.469-4.078 3.672-10.625 3.672-4.64 0-9.797-1.61-5.14-1.609-11-4.89v9.969Q13.767 71.78 18.938 73q5.188 1.219 9.485 1.219 11.328 0 18.062-5.672 6.735-5.656 6.735-15.125 0-4.5-1.688-8.531-1.672-4.016-6.125-9.485-1.218-1.422-7.765-8.187-6.532-6.766-18.453-18.922z" id="DejaVuSans-50"/></defs><g transform="matrix(.1 0 0 -.1 230.73 239.126)"><use transform="translate(0 .766)" xlink:href="#DejaVuSans-49"/><use transform="translate(63.623 .766)" xlink:href="#DejaVuSans-48"/><use transform="matrix(.7 0 0 .7 128.203 39.047)" xlink:href="#DejaVuSans-50"/><use transform="matrix(.7 0 0 .7 172.74 39.047)" xlink:href="#DejaVuSans-49"/></g></g></g><g id="xtick_5"><path clip-path="url(#pfea44e7931)" d="M289.25 224.527V11" fill="none" stroke="#b0b0b0" stroke-linecap="square" stroke-width=".8" id="line2d_9"/><use x="289.249" xlink:href="#m5ca3e4f133" y="224.527" stroke="#000" stroke-width=".8" id="line2d_10"/><g transform="matrix(.1 0 0 -.1 278.2 239.126)" id="text_5"><use transform="translate(0 .766)" xlink:href="#DejaVuSans-49"/><use transform="translate(63.623 .766)" xlink:href="#DejaVuSans-48"/><use transform="matrix(.7 0 0 .7 128.203 39.047)" xlink:href="#DejaVuSans-50"/><use transform="matrix(.7 0 0 .7 172.74 39.047)" xlink:href="#DejaVuSans-54"/></g></g><g id="xtick_6"><path clip-path="url(#pfea44e7931)" d="M336.718 224.527V11" fill="none" stroke="#b0b0b0" stroke-linecap="square" stroke-width=".8" id="line2d_11"/><use x="336.718" xlink:href="#m5ca3e4f133" y="224.527" stroke="#000" stroke-width=".8" id="line2d_12"/><g id="text_6"><defs><path d="M40.578 39.313Q47.656 37.797 51.625 33q3.984-4.781 3.984-11.813 0-10.78-7.422-16.703-7.421-5.906-21.093-5.906-4.578 0-9.438.906-4.86.907-10.031 2.72v9.515q4.094-2.39 8.969-3.61 4.89-1.218 10.218-1.218 9.266 0 14.125 3.656 4.86 3.656 4.86 10.64 0 6.454-4.516 10.079-4.515 3.64-12.562 3.64h-8.5v8.11h8.89q7.266 0 11.125 2.906 3.86 2.906 3.86 8.375 0 5.61-3.985 8.61-3.968 3.015-11.39 3.015-4.063 0-8.703-.89-4.641-.876-10.203-2.72v8.782q5.624 1.562 10.53 2.344 4.907.78 9.25.78 11.235 0 17.766-5.109 6.547-5.093 6.547-13.78 0-6.063-3.468-10.235-3.47-4.172-9.86-5.782z" id="DejaVuSans-51"/></defs><g transform="matrix(.1 0 0 -.1 325.668 239.126)"><use transform="translate(0 .766)" xlink:href="#DejaVuSans-49"/><use transform="translate(63.623 .766)" xlink:href="#DejaVuSans-48"/><use transform="matrix(.7 0 0 .7 128.203 39.047)" xlink:href="#DejaVuSans-51"/><use transform="matrix(.7 0 0 .7 172.74 39.047)" xlink:href="#DejaVuSans-49"/></g></g></g><g id="xtick_7"><path clip-path="url(#pfea44e7931)" d="M384.187 224.527V11" fill="none" stroke="#b0b0b0" stroke-linecap="square" stroke-width=".8" id="line2d_13"/><use x="384.187" xlink:href="#m5ca3e4f133" y="224.527" stroke="#000" stroke-width=".8" id="line2d_14"/><g transform="matrix(.1 0 0 -.1 373.137 239.126)" id="text_7"><use transform="translate(0 .766)" xlink:href="#DejaVuSans-49"/><use transform="translate(63.623 .766)" xlink:href="#DejaVuSans-48"/><use transform="matrix(.7 0 0 .7 128.203 39.047)" xlink:href="#DejaVuSans-51"/><use transform="matrix(.7 0 0 .7 172.74 39.047)" xlink:href="#DejaVuSans-54"/></g></g><g id="text_8"><defs><path d="M48.781 52.594v-8.407q-3.812 2.11-7.64 3.157-3.828 1.047-7.735 1.047-8.75 0-13.593-5.547-4.829-5.532-4.829-15.547 0-10.016 4.829-15.563 4.843-5.53 13.593-5.53 3.907 0 7.735 1.046 3.828 1.047 7.64 3.156V2.094Q45.016.344 40.984-.531q-4.015-.89-8.562-.89-12.36 0-19.64 7.765-7.266 7.765-7.266 20.953 0 13.375 7.343 21.031Q20.22 56 33.016 56q4.14 0 8.093-.86 3.953-.843 7.672-2.546z" id="DejaVuSans-99"/><path d="M30.61 48.39q-7.22 0-11.422-5.64-4.204-5.64-4.204-15.453 0-9.813 4.172-15.453 4.188-5.64 11.453-5.64 7.188 0 11.375 5.655 4.203 5.672 4.203 15.438 0 9.719-4.203 15.406-4.187 5.688-11.375 5.688zm0 7.61q11.718 0 18.406-7.625 6.703-7.61 6.703-21.078 0-13.422-6.703-21.078-6.688-7.64-18.407-7.64-11.765 0-18.437 7.64-6.656 7.656-6.656 21.078 0 13.469 6.656 21.078Q18.844 56 30.609 56z" id="DejaVuSans-111"/><path d="M54.89 33.016V0h-8.984v32.719q0 7.765-3.031 11.61-3.031 3.858-9.078 3.858-7.281 0-11.484-4.64-4.204-4.625-4.204-12.64V0H9.08v54.688h9.03v-8.5q3.235 4.937 7.594 7.374Q30.078 56 35.797 56q9.422 0 14.25-5.828 4.844-5.828 4.844-17.156z" id="DejaVuSans-110"/><path d="M45.406 46.39v29.594h8.985V0h-8.985v8.203Q42.578 3.328 38.25.953q-4.313-2.375-10.375-2.375-9.906 0-16.14 7.906-6.22 7.922-6.22 20.813 0 12.89 6.22 20.797Q17.968 56 27.874 56q6.063 0 10.375-2.375 4.328-2.36 7.156-7.234zm-30.61-19.093q0-9.906 4.079-15.547 4.078-5.64 11.203-5.64 7.125 0 11.219 5.64 4.11 5.64 4.11 15.547 0 9.906-4.11 15.547-4.094 5.64-11.219 5.64-7.125 0-11.203-5.64-4.078-5.64-4.078-15.547z" id="DejaVuSans-100"/><path d="M9.422 54.688h8.984V0H9.422zm0 21.296h8.984v-11.39H9.422z" id="DejaVuSans-105"/><path d="M18.313 70.219V54.688h18.5v-6.985h-18.5V18.016q0-6.688 1.828-8.594 1.828-1.906 7.453-1.906h9.218V0h-9.218q-10.407 0-14.36 3.875-3.953 3.89-3.953 14.14v29.688H2.687v6.984h6.594V70.22z" id="DejaVuSans-116"/><path d="M8.5 21.578v33.11h8.984V21.922q0-7.766 3.016-11.656 3.031-3.875 9.094-3.875 7.265 0 11.484 4.64 4.234 4.64 4.234 12.656v31h8.985V0h-8.984v8.406Q42.047 3.422 37.718 1q-4.313-2.422-10.032-2.422-9.421 0-14.312 5.86Q8.5 10.296 8.5 21.578zM31.11 56z" id="DejaVuSans-117"/><path d="M52 44.188q3.375 6.062 8.063 8.937Q64.75 56 71.093 56q8.548 0 13.188-5.984 4.64-5.97 4.64-17V0h-9.03v32.719q0 7.86-2.797 11.656-2.781 3.813-8.485 3.813-6.984 0-11.046-4.641-4.047-4.625-4.047-12.64V0h-9.032v32.719q0 7.906-2.78 11.687-2.782 3.782-8.595 3.782-6.89 0-10.953-4.657-4.047-4.656-4.047-12.625V0H9.08v54.688h9.03v-8.5q3.078 5.03 7.375 7.421Q29.781 56 35.687 56q5.97 0 10.141-3.031Q50 49.953 52 44.187z" id="DejaVuSans-109"/><path d="M48.688 27.297q0 9.906-4.079 15.547-4.078 5.64-11.203 5.64-7.14 0-11.218-5.64-4.079-5.64-4.079-15.547 0-9.906 4.078-15.547 4.079-5.64 11.22-5.64 7.124 0 11.202 5.64t4.078 15.547zM18.108 46.39q2.844 4.875 7.157 7.234Q29.594 56 35.594 56q9.968 0 16.187-7.906 6.235-7.907 6.235-20.797T51.78 6.484q-6.218-7.906-16.187-7.906-6 0-10.328 2.375-4.313 2.375-7.157 7.25V0H9.08v75.984h9.03z" id="DejaVuSans-98"/><path d="M56.203 29.594v-4.39H14.891q.593-9.282 5.593-14.142 5-4.859 13.938-4.859 5.172 0 10.031 1.266 4.86 1.265 9.656 3.812v-8.5Q49.266.734 44.187-.344 39.11-1.422 33.892-1.422q-13.094 0-20.735 7.61-7.64 7.625-7.64 20.625 0 13.421 7.25 21.296Q20.016 56 32.328 56q11.031 0 17.453-7.11 6.422-7.093 6.422-19.296zm-8.984 2.64q-.094 7.36-4.125 11.75-4.032 4.407-10.672 4.407-7.516 0-12.031-4.25-4.516-4.25-5.203-11.97z" id="DejaVuSans-101"/><path d="M41.11 46.297q-1.516.875-3.297 1.281Q36.03 48 33.89 48q-7.625 0-11.703-4.953-4.079-4.953-4.079-14.234V0H9.08v54.688h9.03v-8.5q2.844 4.984 7.375 7.39Q30.031 56 36.531 56q.922 0 2.047-.125 1.125-.11 2.484-.36z" id="DejaVuSans-114"/></defs><g transform="matrix(.1 0 0 -.1 190.117 252.804)"><use xlink:href="#DejaVuSans-99"/><use x="54.98" xlink:href="#DejaVuSans-111"/><use x="116.162" xlink:href="#DejaVuSans-110"/><use x="179.541" xlink:href="#DejaVuSans-100"/><use x="243.018" xlink:href="#DejaVuSans-105"/><use x="270.801" xlink:href="#DejaVuSans-116"/><use x="310.01" xlink:href="#DejaVuSans-105"/><use x="337.793" xlink:href="#DejaVuSans-111"/><use x="398.975" xlink:href="#DejaVuSans-110"/><use x="462.354" xlink:href="#DejaVuSans-32"/><use x="494.141" xlink:href="#DejaVuSans-110"/><use x="557.52" xlink:href="#DejaVuSans-117"/><use x="620.898" xlink:href="#DejaVuSans-109"/><use x="718.311" xlink:href="#DejaVuSans-98"/><use x="781.787" xlink:href="#DejaVuSans-101"/><use x="843.311" xlink:href="#DejaVuSans-114"/></g></g></g><g id="matplotlib.axis_2"><g id="ytick_1"><path clip-path="url(#pfea44e7931)" d="M55.778 196.128h357.12" fill="none" stroke="#b0b0b0" stroke-linecap="square" stroke-width=".8" id="line2d_15"/><g id="line2d_16"><defs><path d="M0 0h-3.5" id="mcc7c63a73d" stroke="#000" stroke-width=".8"/></defs><use x="55.778" xlink:href="#mcc7c63a73d" y="196.128" stroke="#000" stroke-width=".8"/></g><g id="text_9"><defs><path d="M10.594 35.5h62.593v-8.297H10.594z" id="DejaVuSans-8722"/><path d="M10.797 72.906h38.719v-8.312H19.828v-17.86q2.14.735 4.281 1.094 2.157.36 4.313.36 12.203 0 19.328-6.688 7.14-6.688 7.14-18.11 0-11.765-7.328-18.296-7.328-6.516-20.656-6.516-4.593 0-9.36.781-4.75.782-9.827 2.344v9.922q4.39-2.39 9.078-3.563 4.687-1.171 9.906-1.171 8.453 0 13.375 4.437 4.938 4.438 4.938 12.063 0 7.609-4.938 12.047-4.922 4.453-13.375 4.453-3.953 0-7.89-.875-3.922-.875-8.016-2.735z" id="DejaVuSans-53"/></defs><g transform="matrix(.1 0 0 -.1 20.878 199.927)"><use transform="translate(0 .684)" xlink:href="#DejaVuSans-49"/><use transform="translate(63.623 .684)" xlink:href="#DejaVuSans-48"/><use transform="matrix(.7 0 0 .7 128.203 38.966)" xlink:href="#DejaVuSans-8722"/><use transform="matrix(.7 0 0 .7 186.855 38.966)" xlink:href="#DejaVuSans-49"/><use transform="matrix(.7 0 0 .7 231.392 38.966)" xlink:href="#DejaVuSans-53"/></g></g></g><g id="ytick_2"><path clip-path="url(#pfea44e7931)" d="M55.778 159.102h357.12" fill="none" stroke="#b0b0b0" stroke-linecap="square" stroke-width=".8" id="line2d_17"/><use x="55.778" xlink:href="#mcc7c63a73d" y="159.102" stroke="#000" stroke-width=".8" id="line2d_18"/><g transform="matrix(.1 0 0 -.1 20.878 162.902)" id="text_10"><use transform="translate(0 .766)" xlink:href="#DejaVuSans-49"/><use transform="translate(63.623 .766)" xlink:href="#DejaVuSans-48"/><use transform="matrix(.7 0 0 .7 128.203 39.047)" xlink:href="#DejaVuSans-8722"/><use transform="matrix(.7 0 0 .7 186.855 39.047)" xlink:href="#DejaVuSans-49"/><use transform="matrix(.7 0 0 .7 231.392 39.047)" xlink:href="#DejaVuSans-50"/></g></g><g id="ytick_3"><path clip-path="url(#pfea44e7931)" d="M55.778 122.077h357.12" fill="none" stroke="#b0b0b0" stroke-linecap="square" stroke-width=".8" id="line2d_19"/><use x="55.778" xlink:href="#mcc7c63a73d" y="122.077" stroke="#000" stroke-width=".8" id="line2d_20"/><g id="text_11"><defs><path d="M10.984 1.516V10.5q3.72-1.766 7.516-2.688 3.813-.921 7.484-.921 9.766 0 14.907 6.562 5.156 6.563 5.89 19.953-2.828-4.203-7.187-6.453-4.344-2.25-9.61-2.25-10.937 0-17.312 6.61-6.375 6.625-6.375 18.109 0 11.219 6.64 18 6.641 6.797 17.672 6.797 12.657 0 19.313-9.703 6.672-9.688 6.672-28.141 0-17.234-8.188-27.516Q40.234-1.42 26.422-1.42q-3.719 0-7.531.734-3.797.734-7.907 2.203zM30.61 32.422q6.641 0 10.516 4.531 3.89 4.547 3.89 12.469 0 7.86-3.89 12.422-3.875 4.562-10.516 4.562-6.64 0-10.515-4.562-3.875-4.563-3.875-12.422 0-7.922 3.875-12.469 3.875-4.531 10.515-4.531z" id="DejaVuSans-57"/></defs><g transform="matrix(.1 0 0 -.1 25.278 125.876)"><use transform="translate(0 .766)" xlink:href="#DejaVuSans-49"/><use transform="translate(63.623 .766)" xlink:href="#DejaVuSans-48"/><use transform="matrix(.7 0 0 .7 128.203 39.047)" xlink:href="#DejaVuSans-8722"/><use transform="matrix(.7 0 0 .7 186.855 39.047)" xlink:href="#DejaVuSans-57"/></g></g></g><g id="ytick_4"><path clip-path="url(#pfea44e7931)" d="M55.778 85.05h357.12" fill="none" stroke="#b0b0b0" stroke-linecap="square" stroke-width=".8" id="line2d_21"/><use x="55.778" xlink:href="#mcc7c63a73d" y="85.051" stroke="#000" stroke-width=".8" id="line2d_22"/><g transform="matrix(.1 0 0 -.1 25.278 88.85)" id="text_12"><use transform="translate(0 .766)" xlink:href="#DejaVuSans-49"/><use transform="translate(63.623 .766)" xlink:href="#DejaVuSans-48"/><use transform="matrix(.7 0 0 .7 128.203 39.047)" xlink:href="#DejaVuSans-8722"/><use transform="matrix(.7 0 0 .7 186.855 39.047)" xlink:href="#DejaVuSans-54"/></g></g><g id="ytick_5"><path clip-path="url(#pfea44e7931)" d="M55.778 48.025h357.12" fill="none" stroke="#b0b0b0" stroke-linecap="square" stroke-width=".8" id="line2d_23"/><use x="55.778" xlink:href="#mcc7c63a73d" y="48.025" stroke="#000" stroke-width=".8" id="line2d_24"/><g transform="matrix(.1 0 0 -.1 25.278 51.824)" id="text_13"><use transform="translate(0 .766)" xlink:href="#DejaVuSans-49"/><use transform="translate(63.623 .766)" xlink:href="#DejaVuSans-48"/><use transform="matrix(.7 0 0 .7 128.203 39.047)" xlink:href="#DejaVuSans-8722"/><use transform="matrix(.7 0 0 .7 186.855 39.047)" xlink:href="#DejaVuSans-51"/></g></g><g id="ytick_6"><path clip-path="url(#pfea44e7931)" d="M55.778 11h357.12" fill="none" stroke="#b0b0b0" stroke-linecap="square" stroke-width=".8" id="line2d_25"/><use x="55.778" xlink:href="#mcc7c63a73d" y="10.999" stroke="#000" stroke-width=".8" id="line2d_26"/><g transform="matrix(.1 0 0 -.1 31.178 14.798)" id="text_14"><use transform="translate(0 .766)" xlink:href="#DejaVuSans-49"/><use transform="translate(63.623 .766)" xlink:href="#DejaVuSans-48"/><use transform="matrix(.7 0 0 .7 128.203 39.047)" xlink:href="#DejaVuSans-48"/></g></g><g id="text_15"><defs><path d="M9.422 75.984h8.984V0H9.422z" id="DejaVuSans-108"/><path d="M34.281 27.484q-10.89 0-15.093-2.484-4.204-2.484-4.204-8.5 0-4.781 3.157-7.594 3.156-2.797 8.562-2.797 7.485 0 12 5.297 4.516 5.297 4.516 14.078v2zm17.922 3.72V0H43.22v8.297Q40.14 3.328 35.547.953q-4.594-2.375-11.234-2.375-8.391 0-13.36 4.719Q6 8.016 6 15.922q0 9.219 6.172 13.906 6.187 4.688 18.437 4.688h12.61v.89q0 6.203-4.078 9.594-4.078 3.39-11.453 3.39-4.688 0-9.141-1.124-4.438-1.125-8.531-3.375v8.312q4.921 1.906 9.562 2.844 4.64.953 9.031.953 11.875 0 17.735-6.156 5.86-6.14 5.86-18.64z" id="DejaVuSans-97"/><path d="M2.984 54.688H12.5L29.594 8.797l17.093 45.89h9.516L35.687 0H23.485z" id="DejaVuSans-118"/></defs><g transform="matrix(0 -.1 -.1 0 14.798 150.313)"><use xlink:href="#DejaVuSans-114"/><use x="38.863" xlink:href="#DejaVuSans-101"/><use x="100.387" xlink:href="#DejaVuSans-108"/><use x="128.17" xlink:href="#DejaVuSans-97"/><use x="189.449" xlink:href="#DejaVuSans-116"/><use x="228.658" xlink:href="#DejaVuSans-105"/><use x="256.441" xlink:href="#DejaVuSans-118"/><use x="315.621" xlink:href="#DejaVuSans-101"/><use x="377.145" xlink:href="#DejaVuSans-32"/><use x="408.932" xlink:href="#DejaVuSans-101"/><use x="470.455" xlink:href="#DejaVuSans-114"/><use x="509.818" xlink:href="#DejaVuSans-114"/><use x="548.682" xlink:href="#DejaVuSans-111"/><use x="609.863" xlink:href="#DejaVuSans-114"/></g></g></g><path clip-path="url(#pfea44e7931)" d="M72.01 173.815l.463 6.767 5.973-10.84 6.946-10.533 13.285-24.448 4.563-5.007 7.044-12.815 12.458-2.765 5.78 4.219 12.922-43.352 9.755-12.144 11.962 2.016 3.449-16.33 15.955-15.524.154-6.16L197.681-1" fill="none" stroke="#1f77b4" stroke-linecap="square" stroke-width="1.5" id="line2d_27"/><path clip-path="url(#pfea44e7931)" d="M72.01 179.302l.463 12.052 5.973-7.6 6.946-19.838 13.285-19.225 4.563-2.937 7.044-10.993 12.458-22.091 5.78-.648 12.922-22.725 9.755-19.84 11.962-5.381 3.449-5.9 15.955-18.722.154-.557 15.586-14.354L205.842.931 209.957-1m39.004 0l1.339 12 1.425-12m25.735 0l.627 12 1.562-12m36.02 0l.58 12 .488-12m52.046 0l.183 12 .741-12" fill="none" stroke="#ff7f0e" stroke-linecap="square" stroke-width="1.5" id="line2d_28"/><path clip-path="url(#pfea44e7931)" d="M72.01 186.866l.463 8.912 5.973-5.303 6.946-15.078 13.285-11.666 4.563-13.577 7.044-23.693 12.458-15.153 5.78 10.738 12.922-30.977 9.755-17.905 11.962-8.251 3.449-7.61L182.565 36.5l.154-1.95 15.586-9.07 7.537-11.761L211.674-1" fill="none" stroke="#2ca02c" stroke-linecap="square" stroke-width="1.5" id="line2d_29"/><path clip-path="url(#pfea44e7931)" d="M72.01 217.888l.463-4.594 5.973.259 6.946 18.625 13.285-13.43 4.563-4.049 7.044 5.593 12.458-10.216 5.78 1.521 12.922 4.237 9.755 6.915 11.962-5.066 3.449 7.295 15.955-7.068.154-3.054 15.586-22.646 7.537.28 6.694-12.558 10.654-8.337 9.688-18.951 10.941-15.075 6.48 3.251 10.235-17.285 12.565-7.394 4.987-28.549 16.599-1.304 2.454-21.175 11.936-11.666 7.173-9.666 6.385.693 13.192-25.49 4.592 8.254L351.035.272 352.05-1m15.566 0l1.349 12 3.545-12" fill="none" stroke="#d62728" stroke-linecap="square" stroke-width="1.5" id="line2d_30"/><path clip-path="url(#pfea44e7931)" d="M72.01 217.888l.463-4.594 5.973.259 6.946 18.625 13.285-13.43 4.563-4.049 7.044 5.593 12.458-10.216 5.78 1.521 12.922 4.237 9.755 6.915 11.962-5.066 3.449 7.295 15.955-7.068.154-3.054 15.586 16.006 7.537-1.705 6.694-10.412 10.654-3.32 9.688-2.348 10.941-3.407 6.48 24.724 10.235-2.593 12.565-16.686 4.987-.462 16.599 10.926 2.454 1.53 11.936-16.836 7.173 2.472 6.385-.76 13.192 3.868 4.592-16.196 10.618-7.605 14.659-16.464 3.27-14.454 14.799-6.985 12.902-30.386" fill="none" stroke="#9467bd" stroke-linecap="square" stroke-width="1.5" id="line2d_31"/><path clip-path="url(#pfea44e7931)" d="M72.01 217.888l.463-4.594 5.973.259 6.946 18.625 13.285-13.43 4.563-4.049 7.044 5.593 12.458-10.216 5.78 1.521 12.922 4.237 9.755 6.915 11.962-5.066 3.449 7.295 15.955-7.068.154-3.054 15.586 16.006 7.537-1.705 6.694-10.412 10.654-3.32 9.688-2.348 10.941-3.407 6.48 24.724 10.235-2.593 12.565-16.686 4.987-.462 16.599 10.926 2.454 1.53 11.936-16.836 7.173 2.472 6.385-.76 13.192 3.868 4.592-3.895 10.618 9.924 14.659-10.753 3.27 13.103 14.799 5.743 12.902-16.113" fill="none" stroke="#8c564b" stroke-linecap="square" stroke-width="1.5" id="line2d_32"/><path d="M55.778 224.527V11" fill="none" stroke="#000" stroke-linecap="square" stroke-width=".8" id="patch_3"/><path d="M412.898 224.527V11" fill="none" stroke="#000" stroke-linecap="square" stroke-width=".8" id="patch_4"/><path d="M55.778 224.527h357.12" fill="none" stroke="#000" stroke-linecap="square" stroke-width=".8" id="patch_5"/><path d="M55.778 11h357.12" fill="none" stroke="#000" stroke-linecap="square" stroke-width=".8" id="patch_6"/><g id="legend_1"><path d="M432.754 102.346h126.317q2 0 2-2V13q0-2-2-2H432.754q-2 0-2 2v87.347q0 2 2 2z" fill="#fff" opacity=".8" stroke="#ccc" id="patch_7"/><path d="M434.754 19.098h20" fill="none" stroke="#1f77b4" stroke-linecap="square" stroke-width="1.5" id="line2d_33"/><g id="text_16"><defs><path d="M44.281 53.078v-8.5q-3.797 1.953-7.906 2.922-4.094.984-8.5.984-6.688 0-10.031-2.047-3.344-2.046-3.344-6.156 0-3.125 2.39-4.906 2.391-1.781 9.626-3.39l3.078-.688q9.562-2.047 13.593-5.781 4.032-3.735 4.032-10.422 0-7.625-6.032-12.078-6.03-4.438-16.578-4.438-4.39 0-9.156.86Q10.688.296 5.422 2v9.281q4.984-2.594 9.812-3.89 4.829-1.282 9.579-1.282 6.343 0 9.75 2.172 3.421 2.172 3.421 6.125 0 3.656-2.468 5.61-2.453 1.953-10.813 3.765l-3.125.735q-8.344 1.75-12.062 5.39-3.704 3.64-3.704 9.985 0 7.718 5.47 11.906Q16.75 56 26.811 56q4.97 0 9.36-.734 4.406-.72 8.11-2.188z" id="DejaVuSans-115"/></defs><g transform="matrix(.1 0 0 -.1 462.754 22.598)"><use xlink:href="#DejaVuSans-115"/><use x="52.1" xlink:href="#DejaVuSans-117"/><use x="115.479" xlink:href="#DejaVuSans-109"/></g></g><path d="M434.754 33.776h20" fill="none" stroke="#ff7f0e" stroke-linecap="square" stroke-width="1.5" id="line2d_35"/><g id="text_17"><defs><path d="M18.11 8.203v-29H9.077v75.484h9.031v-8.296q2.844 4.875 7.157 7.234Q29.594 56 35.594 56q9.968 0 16.187-7.906 6.235-7.907 6.235-20.797T51.78 6.484q-6.218-7.906-16.187-7.906-6 0-10.328 2.375-4.313 2.375-7.157 7.25zm30.578 19.094q0 9.906-4.079 15.547-4.078 5.64-11.203 5.64-7.14 0-11.218-5.64-4.079-5.64-4.079-15.547 0-9.906 4.078-15.547 4.079-5.64 11.22-5.64 7.124 0 11.202 5.64t4.078 15.547z" id="DejaVuSans-112"/><path d="M32.172-5.078q-3.797-9.766-7.422-12.735-3.61-2.984-9.656-2.984H7.906v7.516h5.282q3.703 0 5.75 1.765Q21-9.766 23.483-3.219l1.61 4.094-22.11 53.813H12.5l17.094-42.766 17.093 42.766h9.516z" id="DejaVuSans-121"/><path d="M10.688 12.406H21V0H10.687z" id="DejaVuSans-46"/></defs><g transform="matrix(.1 0 0 -.1 462.754 37.276)"><use xlink:href="#DejaVuSans-110"/><use x="63.379" xlink:href="#DejaVuSans-117"/><use x="126.758" xlink:href="#DejaVuSans-109"/><use x="224.17" xlink:href="#DejaVuSans-112"/><use x="287.646" xlink:href="#DejaVuSans-121"/><use x="332.576" xlink:href="#DejaVuSans-46"/><use x="364.363" xlink:href="#DejaVuSans-115"/><use x="416.463" xlink:href="#DejaVuSans-117"/><use x="479.842" xlink:href="#DejaVuSans-109"/></g></g><path d="M434.754 48.454h20" fill="none" stroke="#2ca02c" stroke-linecap="square" stroke-width="1.5" id="line2d_37"/><g id="text_18"><defs><path d="M9.078 75.984h9.031V31.11l26.813 23.578H56.39l-29-25.578L57.625 0H45.906L18.11 26.703V0H9.08z" id="DejaVuSans-107"/><path d="M54.89 33.016V0h-8.984v32.719q0 7.765-3.031 11.61-3.031 3.858-9.078 3.858-7.281 0-11.484-4.64-4.204-4.625-4.204-12.64V0H9.08v75.984h9.03V46.188q3.235 4.937 7.594 7.374Q30.078 56 35.797 56q9.422 0 14.25-5.828 4.844-5.828 4.844-17.156z" id="DejaVuSans-104"/><path d="M50.984-16.61v-6.968H-.984v6.969z" id="DejaVuSans-95"/></defs><g transform="matrix(.1 0 0 -.1 462.754 51.954)"><use xlink:href="#DejaVuSans-97"/><use x="61.279" xlink:href="#DejaVuSans-99"/><use x="116.26" xlink:href="#DejaVuSans-99"/><use x="171.24" xlink:href="#DejaVuSans-117"/><use x="234.619" xlink:href="#DejaVuSans-112"/><use x="298.096" xlink:href="#DejaVuSans-121"/><use x="343.025" xlink:href="#DejaVuSans-46"/><use x="374.813" xlink:href="#DejaVuSans-107"/><use x="430.973" xlink:href="#DejaVuSans-97"/><use x="492.252" xlink:href="#DejaVuSans-104"/><use x="555.631" xlink:href="#DejaVuSans-97"/><use x="616.91" xlink:href="#DejaVuSans-110"/><use x="680.289" xlink:href="#DejaVuSans-95"/><use x="730.289" xlink:href="#DejaVuSans-115"/><use x="782.389" xlink:href="#DejaVuSans-117"/><use x="845.768" xlink:href="#DejaVuSans-109"/></g></g><path d="M434.754 63.41h20" fill="none" stroke="#d62728" stroke-linecap="square" stroke-width="1.5" id="line2d_39"/><g id="text_19"><defs><path d="M8.594 75.984h20.703V69H17.578V-6.203h11.719v-6.984H8.594z" id="DejaVuSans-91"/><path d="M30.422 75.984v-89.171H9.719v6.984H21.39V69H9.719v6.984z" id="DejaVuSans-93"/></defs><g transform="matrix(.1 0 0 -.1 462.754 66.91)"><use xlink:href="#DejaVuSans-97"/><use x="61.279" xlink:href="#DejaVuSans-99"/><use x="116.26" xlink:href="#DejaVuSans-99"/><use x="171.24" xlink:href="#DejaVuSans-117"/><use x="234.619" xlink:href="#DejaVuSans-112"/><use x="298.096" xlink:href="#DejaVuSans-121"/><use x="343.025" xlink:href="#DejaVuSans-46"/><use x="374.813" xlink:href="#DejaVuSans-107"/><use x="432.723" xlink:href="#DejaVuSans-115"/><use x="484.822" xlink:href="#DejaVuSans-117"/><use x="548.201" xlink:href="#DejaVuSans-109"/><use x="645.613" xlink:href="#DejaVuSans-91"/><use x="684.627" xlink:href="#DejaVuSans-50"/><use x="748.25" xlink:href="#DejaVuSans-93"/></g></g><path d="M434.754 78.088h20" fill="none" stroke="#9467bd" stroke-linecap="square" stroke-width="1.5" id="line2d_41"/><g transform="matrix(.1 0 0 -.1 462.754 81.588)" id="text_20"><use xlink:href="#DejaVuSans-97"/><use x="61.279" xlink:href="#DejaVuSans-99"/><use x="116.26" xlink:href="#DejaVuSans-99"/><use x="171.24" xlink:href="#DejaVuSans-117"/><use x="234.619" xlink:href="#DejaVuSans-112"/><use x="298.096" xlink:href="#DejaVuSans-121"/><use x="343.025" xlink:href="#DejaVuSans-46"/><use x="374.813" xlink:href="#DejaVuSans-107"/><use x="432.723" xlink:href="#DejaVuSans-115"/><use x="484.822" xlink:href="#DejaVuSans-117"/><use x="548.201" xlink:href="#DejaVuSans-109"/><use x="645.613" xlink:href="#DejaVuSans-91"/><use x="684.627" xlink:href="#DejaVuSans-51"/><use x="748.25" xlink:href="#DejaVuSans-93"/></g><path d="M434.754 92.766h20" fill="none" stroke="#8c564b" stroke-linecap="square" stroke-width="1.5" id="line2d_43"/><g id="text_21"><defs><path d="M37.11 75.984V68.5h-8.594q-4.828 0-6.72-1.953-1.874-1.953-1.874-7.031v-4.828h14.797v-6.985H19.922V0H10.89v47.703H2.297v6.984h8.594V58.5q0 9.125 4.25 13.297 4.25 4.187 13.468 4.187z" id="DejaVuSans-102"/></defs><g transform="matrix(.1 0 0 -.1 462.754 96.266)"><use xlink:href="#DejaVuSans-97"/><use x="61.279" xlink:href="#DejaVuSans-99"/><use x="116.26" xlink:href="#DejaVuSans-99"/><use x="171.24" xlink:href="#DejaVuSans-117"/><use x="234.619" xlink:href="#DejaVuSans-112"/><use x="298.096" xlink:href="#DejaVuSans-121"/><use x="343.025" xlink:href="#DejaVuSans-46"/><use x="374.813" xlink:href="#DejaVuSans-102"/><use x="410.018" xlink:href="#DejaVuSans-115"/><use x="462.117" xlink:href="#DejaVuSans-117"/><use x="525.496" xlink:href="#DejaVuSans-109"/></g></g></g></g></g><defs><clipPath id="pfea44e7931"><path d="M55.778 10.999h357.12v213.528H55.778z"/></clipPath></defs></svg>