<svg height="446.239" viewBox="0 0 546.785 334.679" width="729.047" xmlns="http://www.w3.org/2000/svg" xmlns:xlink="http://www.w3.org/1999/xlink"><defs><style>*{stroke-linecap:butt;stroke-linejoin:round}</style></defs><g id="figure_1"><path d="M0 334.68h546.785V0H0z" fill="none" id="patch_1"/><g id="axes_1"><path d="M63.908 290.584h357.12V24.472H63.908z" fill="none" id="patch_2"/><g id="matplotlib.axis_1"><g id="xtick_1"><g id="line2d_1"><defs><path d="M0 0v3.5" id="mb384ac2a00" stroke="#969696" stroke-width=".4"/></defs><use x="114.893" xlink:href="#mb384ac2a00" y="290.584" fill="#969696" stroke="#969696" stroke-width=".4"/></g><g transform="matrix(.14 0 0 -.14 104.113 307.633)" fill="#969696" id="text_1"><defs><path d="M35.89 0h-9.374v49.906H10.109v6.985q8.594.28 12.782 2.75Q27.094 62.109 29 70.313h6.89z" id="HelveticaWorld-Regular-49"/><path d="M42.484 34.188q0 14.109-3.734 21.156-3.734 7.062-10.969 7.062-7.078 0-10.89-7.062-3.797-7.047-3.797-21.157 0-13.671 3.75-20.937Q20.609 6 27.78 6q7.235 0 10.969 7 3.734 7.016 3.734 21.188zm9.422 0q0-17.297-6.25-26.704-6.25-9.39-17.875-9.39-12.062 0-18.062 9.734-6 9.75-6 26.36 0 17.03 6.14 26.578 6.157 9.547 17.922 9.547 11.625 0 17.875-9.5t6.25-26.626z" id="HelveticaWorld-Regular-48"/><path d="M27.594 40.578q5.422 0 8.953 3.094 3.547 3.11 3.547 8.234 0 4.594-3.407 7.547-3.39 2.953-9.687 2.953-5.61 0-8.672-3.11-3.047-3.093-3.047-7.874 0-5.125 3.813-7.984 3.812-2.86 8.5-2.86zm.093-7.562q-6.78 0-10.64-3.766-3.86-3.766-3.86-9.234 0-6.297 3.907-10.157Q21 6 28.219 6q6.406 0 10.234 3.86 3.828 3.859 3.828 10.265 0 5.469-3.828 9.172-3.828 3.719-10.766 3.719zM49.22 52.203q0-10.594-9.032-14.797 6.204-2.781 8.86-7.36 2.656-4.562 2.656-9.733 0-10.016-6.453-16.125-6.438-6.094-17.375-6.094-9.563 0-16.813 5.25-7.25 5.25-7.25 17.062 0 11.922 11.907 16.907-9.516 3.796-9.516 13.671 0 8.297 5.64 13.813 5.641 5.516 15.641 5.516 10.016 0 15.875-5.204 5.86-5.203 5.86-12.906z" id="HelveticaWorld-Regular-56"/></defs><use transform="translate(0 .173)" xlink:href="#HelveticaWorld-Regular-49"/><use transform="translate(55.615 .173)" xlink:href="#HelveticaWorld-Regular-48"/><use transform="matrix(.7 0 0 .7 112.146 36.781)" xlink:href="#HelveticaWorld-Regular-56"/></g></g><g id="xtick_2"><use x="167.109" xlink:href="#mb384ac2a00" y="290.584" fill="#969696" stroke="#969696" stroke-width=".4" id="line2d_2"/><g transform="matrix(.14 0 0 -.14 153.599 307.633)" fill="#969696" id="text_2"><defs><path d="M22.406 39.984q2.203-.187 4.594-.187 6.203 0 9.781 2.86 3.594 2.859 3.594 8.656 0 4.687-3.344 7.89-3.343 3.203-9.64 3.203-6.985 0-10.235-4.11-3.234-4.093-3.437-10.983h-8.64q0 10.984 5.765 16.984 5.765 6.016 16.937 6.016 9.922 0 15.828-5.11 5.907-5.094 5.907-13.39 0-10.704-9.032-14.5v-.204q11.72-4 11.72-16.406 0-9.906-6.595-16.265-6.593-6.344-18.703-6.344-9.906 0-16.312 5.203Q4.204 8.5 3.422 21.484H12.5q.203-8.109 4-11.797Q20.313 6 27.484 6q6.938 0 11.141 3.86 4.203 3.859 4.203 9.718 0 6.406-4.016 9.672-4 3.266-12.39 3.266-2 0-4.016-.094z" id="HelveticaWorld-Regular-51"/></defs><use transform="translate(0 .173)" xlink:href="#HelveticaWorld-Regular-49"/><use transform="translate(55.615 .173)" xlink:href="#HelveticaWorld-Regular-48"/><use transform="matrix(.7 0 0 .7 112.146 36.781)" xlink:href="#HelveticaWorld-Regular-49"/><use transform="matrix(.7 0 0 .7 151.076 36.781)" xlink:href="#HelveticaWorld-Regular-51"/></g></g><g id="xtick_3"><use x="219.325" xlink:href="#mb384ac2a00" y="290.584" fill="#969696" stroke="#969696" stroke-width=".4" id="line2d_3"/><g transform="matrix(.14 0 0 -.14 205.815 307.633)" fill="#969696" id="text_3"><use transform="translate(0 .173)" xlink:href="#HelveticaWorld-Regular-49"/><use transform="translate(55.615 .173)" xlink:href="#HelveticaWorld-Regular-48"/><use transform="matrix(.7 0 0 .7 112.146 36.781)" xlink:href="#HelveticaWorld-Regular-49"/><use transform="matrix(.7 0 0 .7 151.076 36.781)" xlink:href="#HelveticaWorld-Regular-56"/></g></g><g id="xtick_4"><use x="271.541" xlink:href="#mb384ac2a00" y="290.584" fill="#969696" stroke="#969696" stroke-width=".4" id="line2d_4"/><g transform="matrix(.14 0 0 -.14 258.03 307.633)" fill="#969696" id="text_4"><defs><path d="M4.39 45.125q0 12.39 6.391 18.781 6.406 6.407 17.938 6.407 9.656 0 15.812-5.86 6.157-5.86 6.157-15.14 0-7.22-3.547-12.188-3.532-4.953-10.422-8.703l-12.11-6.64Q13.922 15.921 12.5 8.296h38.188V0H2.593q.39 9.906 4.297 16.5 3.906 6.594 12.203 11.375l12.593 7.328q5.032 2.89 7.329 5.984 2.297 3.094 2.297 8.516 0 5.375-3.766 9.031-3.75 3.672-10.156 3.672-7.078 0-10.594-4.672-3.516-4.656-3.61-12.609z" id="HelveticaWorld-Regular-50"/></defs><use transform="translate(0 .173)" xlink:href="#HelveticaWorld-Regular-49"/><use transform="translate(55.615 .173)" xlink:href="#HelveticaWorld-Regular-48"/><use transform="matrix(.7 0 0 .7 112.146 36.781)" xlink:href="#HelveticaWorld-Regular-50"/><use transform="matrix(.7 0 0 .7 151.076 36.781)" xlink:href="#HelveticaWorld-Regular-51"/></g></g><g id="xtick_5"><use x="323.756" xlink:href="#mb384ac2a00" y="290.584" fill="#969696" stroke="#969696" stroke-width=".4" id="line2d_5"/><g transform="matrix(.14 0 0 -.14 310.246 307.633)" fill="#969696" id="text_5"><use transform="translate(0 .173)" xlink:href="#HelveticaWorld-Regular-49"/><use transform="translate(55.615 .173)" xlink:href="#HelveticaWorld-Regular-48"/><use transform="matrix(.7 0 0 .7 112.146 36.781)" xlink:href="#HelveticaWorld-Regular-50"/><use transform="matrix(.7 0 0 .7 151.076 36.781)" xlink:href="#HelveticaWorld-Regular-56"/></g></g><g id="xtick_6"><use x="375.972" xlink:href="#mb384ac2a00" y="290.584" fill="#969696" stroke="#969696" stroke-width=".4" id="line2d_6"/><g transform="matrix(.14 0 0 -.14 362.462 307.633)" fill="#969696" id="text_6"><use transform="translate(0 .173)" xlink:href="#HelveticaWorld-Regular-49"/><use transform="translate(55.615 .173)" xlink:href="#HelveticaWorld-Regular-48"/><use transform="matrix(.7 0 0 .7 112.146 36.781)" xlink:href="#HelveticaWorld-Regular-51"/><use transform="matrix(.7 0 0 .7 151.076 36.781)" xlink:href="#HelveticaWorld-Regular-51"/></g></g><g transform="matrix(.14 0 0 -.14 188.988 324.58)" fill="#969696" id="text_7"><defs><path d="M39.594 34.719q-1.89 11.187-12.39 11.187-6.5 0-10.454-5.203-3.953-5.203-3.953-14.484 0-10.11 3.656-15.11 3.672-5 10.64-5 4.688 0 8.11 3.438 3.422 3.437 4.39 8.953h8.5q-1.312-9.703-6.859-14.86-5.547-5.156-14.328-5.156-10.297 0-16.89 7.047-6.594 7.063-6.594 19.172 0 13.281 6.594 21.188 6.593 7.922 18.5 7.922 8.687 0 13.843-5.204 5.157-5.203 5.735-13.89z" id="HelveticaWorld-Regular-99"/><path d="M12.703 26.219q0-8.735 3.953-14.375 3.953-5.64 11.219-5.64 7.531 0 11.438 5.905 3.906 5.907 3.906 14.11 0 8.297-3.907 14.078-3.906 5.797-11.437 5.797-6.969 0-11.078-5.453-4.094-5.438-4.094-14.422zm-8.984 0q0 11.672 6.484 19.625 6.5 7.968 17.672 7.968 11.438 0 17.875-8.062 6.453-8.047 6.453-19.531 0-11.516-6.406-19.625-6.39-8.11-17.922-8.11-11.078 0-17.625 7.86-6.531 7.86-6.531 19.875z" id="HelveticaWorld-Regular-111"/><path d="M49.219 0h-8.844v32.172q0 7.422-2.594 10.578-2.578 3.156-8.578 3.156-5.906 0-9.875-4.5-3.953-4.484-3.953-12.89V0H6.594v52.297h8.297v-7.375h.203q6.203 8.89 15.812 8.89 8.89 0 13.594-4.718 4.719-4.703 4.719-13.5z" id="HelveticaWorld-Regular-110"/><path d="M13.094 26.313q0-9.704 3.844-14.954 3.859-5.25 10.265-5.25 6.094 0 10.188 4.485 4.109 4.5 4.109 13.094 0 11.03-3.5 16.625-3.484 5.593-10.61 5.593-6.78 0-10.546-4.453-3.75-4.437-3.75-15.14zM50.39 0h-8.297v7.172h-.203q-4.97-8.688-15.078-8.688-10.891 0-16.86 8.297Q4 15.094 4 27.688q0 11.625 5.906 18.875 5.922 7.25 15.875 7.25 9.813 0 15.625-8.891l.203.594V71.78h8.782z" id="HelveticaWorld-Regular-100"/><path d="M6.594 61.813v9.968h8.781v-9.969zM15.375 0H6.594v52.297h8.781z" id="HelveticaWorld-Regular-105"/><path d="M17.188 45.016V10.984q0-2 1.093-3.046 1.11-1.047 3.938-1.047h3.375V0Q20.797-.688 19-.688q-5.516 0-8.063 2.641-2.53 2.64-2.53 8.547v34.516H1.311v7.28h7.094v14.595h8.781V52.297h8.407v-7.281z" id="HelveticaWorld-Regular-116"/><path d="M6.11 52.297h8.78V17.578q0-5.765 2.61-8.625Q20.125 6.11 25 6.11q6.781 0 10.594 4.797 3.812 4.813 3.812 12.578v28.813h8.782V0H39.89v7.625l-.188.188q-4.984-9.329-16.61-9.329-7.515 0-12.25 4.094Q6.11 6.688 6.11 14.703z" id="HelveticaWorld-Regular-117"/><path d="M6.594 52.297h8.297v-7.375h.203q5.906 8.89 15.812 8.89 9.813 0 13.922-8.5 3.75 4.594 7.266 6.547 3.515 1.953 8.703 1.953 6.781 0 11.484-4.453Q77 44.922 77 36.187V0h-8.781v33.797q0 6.094-2.297 9.094-2.297 3.015-7.422 3.015-5.172 0-8.75-4.203-3.563-4.203-3.563-9.812V0h-8.78v36.188q0 4.53-2.11 7.124-2.094 2.594-6.094 2.594-6.297 0-10.062-4.687-3.766-4.688-3.766-12.703V0H6.594z" id="HelveticaWorld-Regular-109"/><path d="M43.406 26.313q0 10.5-3.718 15.046-3.704 4.547-10.579 4.547-6.984-.11-10.562-5.453Q14.984 35.11 14.984 25q0-10.297 4.297-14.594Q23.578 6.11 29.297 6.11q6.5 0 10.297 5.344 3.812 5.344 3.812 14.86zM6.594 0v71.781h8.781V45.703h.203q5.61 8.11 15.14 8.11 9.766 0 15.766-7.25t6-18.876q0-13.093-6.062-21.156Q40.375-1.516 29.5-1.516q-9.578 0-14.406 8.016h-.203V0z" id="HelveticaWorld-Regular-98"/><path d="M42.484 30.328q-.687 8.485-4.5 12.031-3.797 3.547-10.109 3.547-6.39 0-10.328-4.5-3.922-4.484-4.172-11.078zm8.391-13.922q-1.453-8.11-7.953-13.422-5.719-4.5-15.047-4.593-10.984.093-17.438 7.203Q4 12.704 4 24.704q0 13.78 6.64 21.437 6.641 7.672 18.47 7.672 10.593 0 16.546-7.922 5.953-7.907 5.953-22.594H13.375q0-8.203 3.813-12.703Q21 6.109 28.608 6.109q5.375 0 9.235 3.235 3.86 3.25 4.25 7.062z" id="HelveticaWorld-Regular-101"/><path d="M15.375 0H6.594v52.297h8.297v-8.688h.203q5.703 10.203 14.687 10.203 1.422 0 2.297-.296V44.39h-3.266q-5.906 0-9.671-4.016-3.766-4-3.766-9.953z" id="HelveticaWorld-Regular-114"/></defs><use xlink:href="#HelveticaWorld-Regular-99"/><use x="51.27" xlink:href="#HelveticaWorld-Regular-111"/><use x="107.178" xlink:href="#HelveticaWorld-Regular-110"/><use x="162.354" xlink:href="#HelveticaWorld-Regular-100"/><use x="219.336" xlink:href="#HelveticaWorld-Regular-105"/><use x="241.357" xlink:href="#HelveticaWorld-Regular-116"/><use x="269.043" xlink:href="#HelveticaWorld-Regular-105"/><use x="291.064" xlink:href="#HelveticaWorld-Regular-111"/><use x="346.973" xlink:href="#HelveticaWorld-Regular-110"/><use x="402.148" xlink:href="#HelveticaWorld-Regular-32"/><use x="426.563" xlink:href="#HelveticaWorld-Regular-110"/><use x="481.738" xlink:href="#HelveticaWorld-Regular-117"/><use x="536.523" xlink:href="#HelveticaWorld-Regular-109"/><use x="619.531" xlink:href="#HelveticaWorld-Regular-98"/><use x="676.025" xlink:href="#HelveticaWorld-Regular-101"/><use x="731.445" xlink:href="#HelveticaWorld-Regular-114"/></g></g><g id="matplotlib.axis_2"><g id="ytick_1"><path clip-path="url(#p3aa7acf467)" d="M63.908 262.957h357.12" fill="none" stroke="#969696" stroke-linecap="square" stroke-width=".3" id="line2d_7"/><g id="line2d_8"><defs><path d="M0 0h-3.5" id="m8624367ab7" stroke="#969696" stroke-width=".3"/></defs><use x="63.908" xlink:href="#m8624367ab7" y="262.957" fill="#969696" stroke="#969696" stroke-width=".3"/></g><g transform="matrix(.14 0 0 -.14 24.148 267.981)" fill="#969696" id="text_8"><defs><path d="M54.594 21.578H4v7.328h50.594z" id="HelveticaWorld-Regular-8722"/><path d="M10.594 24.703h22.61v31.89h-.188zM42 17.093V0h-8.797v17.094H2.484v8.593L34.72 70.314H42v-45.61h10.297v-7.61z" id="HelveticaWorld-Regular-52"/></defs><use transform="translate(0 .173)" xlink:href="#HelveticaWorld-Regular-49"/><use transform="translate(55.615 .173)" xlink:href="#HelveticaWorld-Regular-48"/><use transform="matrix(.7 0 0 .7 112.146 36.781)" xlink:href="#HelveticaWorld-Regular-8722"/><use transform="matrix(.7 0 0 .7 153.161 36.781)" xlink:href="#HelveticaWorld-Regular-49"/><use transform="matrix(.7 0 0 .7 192.092 36.781)" xlink:href="#HelveticaWorld-Regular-52"/></g></g><g id="ytick_2"><path clip-path="url(#p3aa7acf467)" d="M63.908 229.27h357.12" fill="none" stroke="#969696" stroke-linecap="square" stroke-width=".3" id="line2d_9"/><use x="63.908" xlink:href="#m8624367ab7" y="229.269" fill="#969696" stroke="#969696" stroke-width=".3" id="line2d_10"/><g transform="matrix(.14 0 0 -.14 29.608 234.294)" fill="#969696" id="text_9"><defs><path d="M27.594 31.39q6 0 9.75 4.047 3.765 4.063 3.765 11.97 0 6.5-3.562 10.75-3.563 4.25-10.64 4.25-6.11 0-9.876-4.298-3.75-4.297-3.75-11.53 0-7.376 3.516-11.282 3.515-3.906 10.797-3.906zm-1.282-7.906q-10 0-16.062 6.203-6.047 6.204-6.047 16.5 0 10.407 6.094 17.266 6.11 6.86 16.515 6.86 12.11 0 18.36-8.157 6.25-8.156 6.25-24.453 0-16.906-6.406-28.266Q38.625-1.905 25.875-1.905q-9.953 0-15.422 5.593-5.469 5.594-5.469 13.204h8.829q.39-5.266 3.437-8.375 3.063-3.094 8.438-3.094 7.609 0 11.515 6.781Q41.11 19 42.578 31.688l-.187.203q-5.672-8.407-16.078-8.407z" id="HelveticaWorld-Regular-57"/></defs><use transform="translate(0 .173)" xlink:href="#HelveticaWorld-Regular-49"/><use transform="translate(55.615 .173)" xlink:href="#HelveticaWorld-Regular-48"/><use transform="matrix(.7 0 0 .7 112.146 36.781)" xlink:href="#HelveticaWorld-Regular-8722"/><use transform="matrix(.7 0 0 .7 153.161 36.781)" xlink:href="#HelveticaWorld-Regular-57"/></g></g><g id="ytick_3"><path clip-path="url(#p3aa7acf467)" d="M63.908 195.582h357.12" fill="none" stroke="#969696" stroke-linecap="square" stroke-width=".3" id="line2d_11"/><use x="63.908" xlink:href="#m8624367ab7" y="195.582" fill="#969696" stroke="#969696" stroke-width=".3" id="line2d_12"/><g transform="matrix(.14 0 0 -.14 29.608 200.606)" fill="#969696" id="text_10"><use transform="translate(0 .173)" xlink:href="#HelveticaWorld-Regular-49"/><use transform="translate(55.615 .173)" xlink:href="#HelveticaWorld-Regular-48"/><use transform="matrix(.7 0 0 .7 112.146 36.781)" xlink:href="#HelveticaWorld-Regular-8722"/><use transform="matrix(.7 0 0 .7 153.161 36.781)" xlink:href="#HelveticaWorld-Regular-52"/></g></g><g id="ytick_4"><path clip-path="url(#p3aa7acf467)" d="M63.908 161.894h357.12" fill="none" stroke="#969696" stroke-linecap="square" stroke-width=".3" id="line2d_13"/><use x="63.908" xlink:href="#m8624367ab7" y="161.894" fill="#969696" stroke="#969696" stroke-width=".3" id="line2d_14"/><g transform="matrix(.14 0 0 -.14 35.348 166.919)" fill="#969696" id="text_11"><use transform="translate(0 .173)" xlink:href="#HelveticaWorld-Regular-49"/><use transform="translate(55.615 .173)" xlink:href="#HelveticaWorld-Regular-48"/><use transform="matrix(.7 0 0 .7 112.146 36.781)" xlink:href="#HelveticaWorld-Regular-49"/></g></g><g id="ytick_5"><path clip-path="url(#p3aa7acf467)" d="M63.908 128.207h357.12" fill="none" stroke="#969696" stroke-linecap="square" stroke-width=".3" id="line2d_15"/><use x="63.908" xlink:href="#m8624367ab7" y="128.207" fill="#969696" stroke="#969696" stroke-width=".3" id="line2d_16"/><g transform="matrix(.14 0 0 -.14 35.348 133.231)" fill="#969696" id="text_12"><defs><path d="M14.11 21.578q0-6.875 4.093-11.234Q22.313 6 28.906 6q6.297 0 10.032 4.438 3.734 4.453 3.734 11.687 0 6.297-3.688 10.547-3.687 4.25-10.468 4.25-6.594 0-10.5-4.156-3.907-4.157-3.907-11.188zM41.702 51.61q-.984 5.375-3.984 8.078-3 2.72-8.125 2.72-8.11 0-12.36-7.923-4.25-7.906-4.343-18.109l.203-.188q5.61 8.641 16.687 8.641 8.844 0 15.438-5.86 6.593-5.859 6.593-16.452 0-10.5-6.25-17.47-6.25-6.952-16.843-6.952-12.219 0-18.563 8.687-6.344 8.703-6.344 25.938 0 16.593 6.485 27.093 6.5 10.5 19.484 10.5 8.407 0 14.219-5.015 5.813-5 6.297-13.688z" id="HelveticaWorld-Regular-54"/></defs><use transform="translate(0 .173)" xlink:href="#HelveticaWorld-Regular-49"/><use transform="translate(55.615 .173)" xlink:href="#HelveticaWorld-Regular-48"/><use transform="matrix(.7 0 0 .7 112.146 36.781)" xlink:href="#HelveticaWorld-Regular-54"/></g></g><g id="ytick_6"><path clip-path="url(#p3aa7acf467)" d="M63.908 94.52h357.12" fill="none" stroke="#969696" stroke-linecap="square" stroke-width=".3" id="line2d_17"/><use x="63.908" xlink:href="#m8624367ab7" y="94.519" fill="#969696" stroke="#969696" stroke-width=".3" id="line2d_18"/><g transform="matrix(.14 0 0 -.14 29.888 99.544)" fill="#969696" id="text_13"><use transform="translate(0 .173)" xlink:href="#HelveticaWorld-Regular-49"/><use transform="translate(55.615 .173)" xlink:href="#HelveticaWorld-Regular-48"/><use transform="matrix(.7 0 0 .7 112.146 36.781)" xlink:href="#HelveticaWorld-Regular-49"/><use transform="matrix(.7 0 0 .7 151.076 36.781)" xlink:href="#HelveticaWorld-Regular-49"/></g></g><g id="ytick_7"><path clip-path="url(#p3aa7acf467)" d="M63.908 60.832h357.12" fill="none" stroke="#969696" stroke-linecap="square" stroke-width=".3" id="line2d_19"/><use x="63.908" xlink:href="#m8624367ab7" y="60.832" fill="#969696" stroke="#969696" stroke-width=".3" id="line2d_20"/><g transform="matrix(.14 0 0 -.14 29.888 65.856)" fill="#969696" id="text_14"><use transform="translate(0 .173)" xlink:href="#HelveticaWorld-Regular-49"/><use transform="translate(55.615 .173)" xlink:href="#HelveticaWorld-Regular-48"/><use transform="matrix(.7 0 0 .7 112.146 36.781)" xlink:href="#HelveticaWorld-Regular-49"/><use transform="matrix(.7 0 0 .7 151.076 36.781)" xlink:href="#HelveticaWorld-Regular-54"/></g></g><g id="ytick_8"><path clip-path="url(#p3aa7acf467)" d="M63.908 27.144h357.12" fill="none" stroke="#969696" stroke-linecap="square" stroke-width=".3" id="line2d_21"/><use x="63.908" xlink:href="#m8624367ab7" y="27.144" fill="#969696" stroke="#969696" stroke-width=".3" id="line2d_22"/><g transform="matrix(.14 0 0 -.14 29.888 32.169)" fill="#969696" id="text_15"><use transform="translate(0 .173)" xlink:href="#HelveticaWorld-Regular-49"/><use transform="translate(55.615 .173)" xlink:href="#HelveticaWorld-Regular-48"/><use transform="matrix(.7 0 0 .7 112.146 36.781)" xlink:href="#HelveticaWorld-Regular-50"/><use transform="matrix(.7 0 0 .7 151.076 36.781)" xlink:href="#HelveticaWorld-Regular-49"/></g></g><g transform="matrix(0 -.14 -.14 0 17.25 195.965)" fill="#969696" id="text_16"><defs><path d="M15.375 0H6.594v71.781h8.781z" id="HelveticaWorld-Regular-108"/><path d="M38.375 26.703q-.969-1.015-3.828-1.656-2.86-.625-10.672-1.656-5.766-.688-8.469-2.844-2.703-2.14-2.703-5.656 0-4.297 2.281-6.688 2.297-2.39 7.329-2.39 6.296 0 11.171 3.578 4.891 3.593 4.891 8.718zM6.203 36.375q.297 8.844 5.734 13.14 5.454 4.297 15.844 4.297 8.297 0 13.907-3.765 5.624-3.75 5.624-10.844V9.078Q47.313 6 50.094 6q1.125 0 2.89.39V0Q50.594-.984 48-.984q-4.5 0-6.703 1.921-2.188 1.938-2.281 6.047-7.516-8.5-18.891-8.5-7.422 0-11.922 4.204Q3.72 6.89 3.72 13.624q0 6.89 3.906 11.125Q11.531 29 19 29.89l15.516 1.891q4.203.64 4.203 6.203 0 4.11-3.047 6.297-3.047 2.203-9.25 2.203-5.516 0-8.485-2.437-2.953-2.438-3.53-7.672z" id="HelveticaWorld-Regular-97"/><path d="M39.406 52.297h9.625L29.11 0h-9.437L.594 52.297h10.203L24.422 9.719h.187z" id="HelveticaWorld-Regular-118"/></defs><use xlink:href="#HelveticaWorld-Regular-114"/><use x="31.568" xlink:href="#HelveticaWorld-Regular-101"/><use x="86.988" xlink:href="#HelveticaWorld-Regular-108"/><use x="109.01" xlink:href="#HelveticaWorld-Regular-97"/><use x="163.941" xlink:href="#HelveticaWorld-Regular-116"/><use x="191.627" xlink:href="#HelveticaWorld-Regular-105"/><use x="213.648" xlink:href="#HelveticaWorld-Regular-118"/><use x="261.258" xlink:href="#HelveticaWorld-Regular-101"/><use x="316.678" xlink:href="#HelveticaWorld-Regular-32"/><use x="341.092" xlink:href="#HelveticaWorld-Regular-101"/><use x="396.512" xlink:href="#HelveticaWorld-Regular-114"/><use x="429.08" xlink:href="#HelveticaWorld-Regular-114"/><use x="460.648" xlink:href="#HelveticaWorld-Regular-111"/><use x="516.557" xlink:href="#HelveticaWorld-Regular-114"/></g></g><path clip-path="url(#p3aa7acf467)" d="M63.908 257.513l.509 3.694 6.57-5.917 7.64-5.75 14.614-13.347 5.019-2.733 7.748-6.996 13.704-1.509 6.357 2.303 14.215-23.666 10.731-6.63 13.158 1.101 3.794-8.914 17.55-8.475.17-3.363 17.145-15.865 8.29-2.011 7.364-.759 11.719-12.456 10.657-6.164 12.035-9.587 7.127-4.665 11.26-5.227 13.82-9.447 5.487-4.95 18.258-5.37 2.7-5.393 13.13-7.298 7.89-7.24 7.023 3.968 14.512-13.42 5.051-6.548 11.68-7.981 16.124-10.225 3.598-1.634 16.278-8.821 14.193-11.746" fill="none" stroke="#1f77b4" stroke-linecap="square" stroke-width="1.5" id="line2d_23"/><path clip-path="url(#p3aa7acf467)" d="M63.908 260.509l.509 6.579 6.57-4.15 7.64-10.829 14.614-10.495 5.019-1.603 7.748-6.001 13.704-12.06 6.357-.353 14.215-12.406 10.731-10.83 13.158-2.938 3.794-3.221 17.55-10.22.17-.304 17.145-7.836 8.29-10.707 7.364-1.715 11.719-10.316 10.657-5.713 12.035-8.464 7.127 31.705 11.26-47.033 13.82-5.03 5.487 52.063 18.258-69.633 2.7-3.747 13.13-7.732 7.89 81.112 7.023-85.57 14.512-12.378 5.051-3.6 11.68-5.293 16.124-10.464 3.598 117.305 16.278-130.776 14.193-9.698" fill="none" stroke="#ff7f0e" stroke-linecap="square" stroke-width="1.5" id="line2d_24"/><path clip-path="url(#p3aa7acf467)" d="M63.908 264.638l.509 4.865 6.57-2.895 7.64-8.231 14.614-6.369 5.019-7.411 7.748-12.934 13.704-8.273 6.357 5.863 14.215-16.911 10.731-9.775 13.158-4.504 3.794-4.154 17.55-11.356.17-1.065 17.145-4.95 8.29-6.421 7.364-9.225 11.719-.44 10.657-11.636 12.035-7.591 7.127-5.523 11.26-10.783 13.82-5.135 5.487-2.864 18.258-15.751 2.7 2.18 13.13-10.893 7.89-4.825 7.023-2.426 14.512-14.446 5.051-.8 11.68-7.606 16.124-11.204 3.598 3.343 16.278-12.621 14.193-11.479" fill="none" stroke="#2ca02c" stroke-linecap="square" stroke-width="1.5" id="line2d_25"/><path clip-path="url(#p3aa7acf467)" d="M63.908 281.573l.509-2.508 6.57.141 7.64 10.168 14.614-7.332 5.019-2.21 7.748 3.053 13.704-5.577 6.357.83 14.215 2.313 10.731 3.776 13.158-2.766 3.794 3.982 17.55-3.858.17-1.668 17.145-12.362 8.29.153 7.364-6.855 11.719-4.552 10.657-10.345 12.035-8.23 7.127 1.775 11.26-9.436 13.82-4.036 5.487-15.585 18.258-.712 2.7-11.56 13.13-6.368 7.89-5.277 7.023.379 14.512-13.916 5.051 4.506 11.68-14.72 16.124-10.027 3.598 15.883 16.278-27.339 14.193-9.698" fill="none" stroke="#d62728" stroke-linecap="square" stroke-width="1.5" id="line2d_26"/><path clip-path="url(#p3aa7acf467)" d="M63.908 281.573l.509-2.508 6.57.141 7.64 10.168 14.614-7.332 5.019-2.21 7.748 3.053 13.704-5.577 6.357.83 14.215 2.313 10.731 3.776 13.158-2.766 3.794 3.982 17.55-3.858.17-1.668 17.145 8.739 8.29-.932 7.364-5.683 11.719-1.812 10.657-1.283 12.035-1.86 7.127 13.498 11.26-1.416 13.82-9.11 5.487-.251 18.258 5.965 2.7.835 13.13-9.191 7.89 1.35 7.023-.416 14.512 2.112 5.051-8.842 11.68-4.151 16.124-8.988 3.598-7.89 16.278-3.814 14.193-16.587" fill="none" stroke="#9467bd" stroke-linecap="square" stroke-width="1.5" id="line2d_27"/><path clip-path="url(#p3aa7acf467)" d="M63.908 281.573l.509-2.508 6.57.141 7.64 10.168 14.614-7.332 5.019-2.21 7.748 3.053 13.704-5.577 6.357.83 14.215 2.313 10.731 3.776 13.158-2.766 3.794 3.982 17.55-3.858.17-1.668 17.145 8.739 8.29-.932 7.364-5.683 11.719-1.812 10.657-1.283 12.035-1.86 7.127 13.498 11.26-1.416 13.82-9.11 5.487-.251 18.258 5.965 2.7.835 13.13-9.191 7.89 1.35 7.023-.416 14.512 2.112 5.051-2.127 11.68 5.418 16.124-5.87 3.598 7.153 16.278 3.135 14.193-8.796" fill="none" stroke="#8c564b" stroke-linecap="square" stroke-width="1.5" id="line2d_28"/><g transform="matrix(.14 0 0 -.14 421.073 17.25)" fill="#1f77b4" id="text_17"><defs><path d="M36.078 37.406q-.187 4.688-3.344 6.735-3.14 2.047-9.047 2.047-4.296 0-7.359-1.907-3.047-1.89-3.047-5.468 0-2.829 1.797-4.172 1.813-1.344 7.828-2.86l8.688-2.187q7.906-2 11.297-5.11 3.406-3.093 3.406-8.656 0-7.719-5.64-12.531-5.641-4.813-15.063-4.813-11 0-16.64 4.563-5.626 4.578-5.735 13.75h8.5q.203-5.422 3.594-8.063 3.39-2.625 10.171-2.625 5.516 0 8.766 2.188 3.25 2.203 3.25 6.11 0 2.78-2.11 4.437-2.093 1.672-8.296 3.078l-10.203 2.5q-6.203 1.562-9.157 4.656-2.953 3.094-2.953 8.031 0 7.72 5.516 12.203 5.531 4.5 14.406 4.5 9.485 0 14.531-4.624 5.047-4.61 5.344-11.782z" id="HelveticaWorld-Regular-115"/></defs><use xlink:href="#HelveticaWorld-Regular-115"/><use x="50" xlink:href="#HelveticaWorld-Regular-117"/><use x="104.785" xlink:href="#HelveticaWorld-Regular-109"/></g><g transform="matrix(.14 0 0 -.14 421.073 31.153)" fill="#ff7f0e" id="text_18"><defs><path d="M14.984 23.688q0-8.407 4.094-13 4.11-4.579 10.219-4.579 6.687 0 10.39 5.438 3.72 5.453 3.72 14.765 0 10.22-3.563 14.907-3.563 4.687-10.735 4.687-6.984 0-10.562-5.5-3.563-5.5-3.563-16.718zm-8.39 28.609h8.297v-7.375h.203q5.61 8.89 15.625 8.89 10.11 0 15.937-7.359 5.828-7.344 5.828-18.766 0-12.796-5.953-21Q40.578-1.515 29.5-1.515q-9.094 0-13.922 7.032h-.203v-26.22H6.594z" id="HelveticaWorld-Regular-112"/><path d="M39.016 52.297h9.562L29.891.984q-.5-1.375-.985-2.593-4.25-11.329-7.328-15.547-3.078-4.235-9.953-4.235-3.61 0-5.906.782v8.015q2.484-.89 5.468-.89 3.22 0 4.704 2.03 1.5 2.032 4.421 9.938L.875 52.297h9.922L24.812 9.719H25z" id="HelveticaWorld-Regular-121"/><path d="M19.094 0H8.687v10.594h10.407z" id="HelveticaWorld-Regular-46"/></defs><use xlink:href="#HelveticaWorld-Regular-110"/><use x="55.176" xlink:href="#HelveticaWorld-Regular-117"/><use x="109.961" xlink:href="#HelveticaWorld-Regular-109"/><use x="192.969" xlink:href="#HelveticaWorld-Regular-112"/><use x="247.463" xlink:href="#HelveticaWorld-Regular-121"/><use x="287.072" xlink:href="#HelveticaWorld-Regular-46"/><use x="314.855" xlink:href="#HelveticaWorld-Regular-115"/><use x="364.855" xlink:href="#HelveticaWorld-Regular-117"/><use x="419.641" xlink:href="#HelveticaWorld-Regular-109"/></g><g transform="matrix(.14 0 0 -.14 421.073 45.201)" fill="#2ca02c" id="text_19"><defs><path d="M50 0H38.719L22.406 26.422l-7.312-6.594V0h-8.5v71.781h8.5v-41.61l22.5 22.126H48.78L28.813 32.813z" id="HelveticaWorld-Regular-107"/><path d="M49.219 0h-8.844v34.188q0 6.296-2.438 9-2.437 2.718-7.953 2.718-6.797 0-10.703-4.406-3.906-4.39-3.906-12.984V0H6.594v71.781h8.781V45.312h.203q6 8.5 15.328 8.5 8.594 0 13.453-4.5 4.86-4.484 4.86-13.718z" id="HelveticaWorld-Regular-104"/><path d="M0-12.313v4.891h55.61v-4.89z" id="HelveticaWorld-Regular-95"/></defs><use xlink:href="#HelveticaWorld-Regular-97"/><use x="54.932" xlink:href="#HelveticaWorld-Regular-99"/><use x="106.201" xlink:href="#HelveticaWorld-Regular-99"/><use x="157.471" xlink:href="#HelveticaWorld-Regular-117"/><use x="212.256" xlink:href="#HelveticaWorld-Regular-112"/><use x="266.75" xlink:href="#HelveticaWorld-Regular-121"/><use x="306.359" xlink:href="#HelveticaWorld-Regular-46"/><use x="334.143" xlink:href="#HelveticaWorld-Regular-107"/><use x="382.893" xlink:href="#HelveticaWorld-Regular-97"/><use x="437.824" xlink:href="#HelveticaWorld-Regular-104"/><use x="493" xlink:href="#HelveticaWorld-Regular-97"/><use x="547.932" xlink:href="#HelveticaWorld-Regular-110"/><use x="603.107" xlink:href="#HelveticaWorld-Regular-95"/><use x="658.723" xlink:href="#HelveticaWorld-Regular-115"/><use x="708.723" xlink:href="#HelveticaWorld-Regular-117"/><use x="763.508" xlink:href="#HelveticaWorld-Regular-109"/></g><g transform="matrix(.14 0 0 -.14 421.073 135.153)" fill="#d62728" id="text_20"><defs><path d="M14.203-12.5H25v-7.078H6.297v91.797H25v-7.125H14.203z" id="HelveticaWorld-Regular-91"/><path d="M13.625 65.094H2.781v7.125h18.703v-91.797H2.781v7.078h10.844z" id="HelveticaWorld-Regular-93"/></defs><use xlink:href="#HelveticaWorld-Regular-97"/><use x="54.932" xlink:href="#HelveticaWorld-Regular-99"/><use x="106.201" xlink:href="#HelveticaWorld-Regular-99"/><use x="157.471" xlink:href="#HelveticaWorld-Regular-117"/><use x="212.256" xlink:href="#HelveticaWorld-Regular-112"/><use x="266.75" xlink:href="#HelveticaWorld-Regular-121"/><use x="306.359" xlink:href="#HelveticaWorld-Regular-46"/><use x="334.143" xlink:href="#HelveticaWorld-Regular-107"/><use x="383.143" xlink:href="#HelveticaWorld-Regular-115"/><use x="433.143" xlink:href="#HelveticaWorld-Regular-117"/><use x="487.928" xlink:href="#HelveticaWorld-Regular-109"/><use x="570.936" xlink:href="#HelveticaWorld-Regular-91"/><use x="598.719" xlink:href="#HelveticaWorld-Regular-50"/><use x="654.334" xlink:href="#HelveticaWorld-Regular-93"/></g><g transform="matrix(.14 0 0 -.14 421.073 233.748)" fill="#9467bd" id="text_21"><use xlink:href="#HelveticaWorld-Regular-97"/><use x="54.932" xlink:href="#HelveticaWorld-Regular-99"/><use x="106.201" xlink:href="#HelveticaWorld-Regular-99"/><use x="157.471" xlink:href="#HelveticaWorld-Regular-117"/><use x="212.256" xlink:href="#HelveticaWorld-Regular-112"/><use x="266.75" xlink:href="#HelveticaWorld-Regular-121"/><use x="306.359" xlink:href="#HelveticaWorld-Regular-46"/><use x="334.143" xlink:href="#HelveticaWorld-Regular-107"/><use x="383.143" xlink:href="#HelveticaWorld-Regular-115"/><use x="433.143" xlink:href="#HelveticaWorld-Regular-117"/><use x="487.928" xlink:href="#HelveticaWorld-Regular-109"/><use x="570.936" xlink:href="#HelveticaWorld-Regular-91"/><use x="598.719" xlink:href="#HelveticaWorld-Regular-51"/><use x="654.334" xlink:href="#HelveticaWorld-Regular-93"/></g><g transform="matrix(.14 0 0 -.14 421.073 282.974)" fill="#8c564b" id="text_22"><defs><path d="M17.188 45.016V0H8.405v45.016H1.22v7.28h7.187v8.985q0 5.907 3.578 8.703 3.594 2.813 10.032 2.813 2.203 0 3.968-.188v-7.906q-1.562.188-3.578.188-2.922 0-4.078-1.438-1.14-1.437-1.14-4.656v-6.5h8.796v-7.281z" id="HelveticaWorld-Regular-102"/></defs><use xlink:href="#HelveticaWorld-Regular-97"/><use x="54.932" xlink:href="#HelveticaWorld-Regular-99"/><use x="106.201" xlink:href="#HelveticaWorld-Regular-99"/><use x="157.471" xlink:href="#HelveticaWorld-Regular-117"/><use x="212.256" xlink:href="#HelveticaWorld-Regular-112"/><use x="266.75" xlink:href="#HelveticaWorld-Regular-121"/><use x="306.359" xlink:href="#HelveticaWorld-Regular-46"/><use x="334.143" xlink:href="#HelveticaWorld-Regular-102"/><use x="361.828" xlink:href="#HelveticaWorld-Regular-115"/><use x="411.828" xlink:href="#HelveticaWorld-Regular-117"/><use x="466.613" xlink:href="#HelveticaWorld-Regular-109"/></g></g></g><defs><clipPath id="p3aa7acf467"><path d="M63.908 24.472h357.12v266.112H63.908z"/></clipPath></defs></svg>