<svg version="1.1" id="Layer_1" x="0" y="0" xml:space="preserve" width="919.364" height="278.596" xmlns="http://www.w3.org/2000/svg"><defs id="defs35"><path id="rect2833" d="M786.828 48.947H2704.83v597.358H786.828z"/></defs><style type="text/css" id="style2">.st0{fill:#fff}.st1{fill:#f15a24}.st3{fill:#c1272d}</style><g id="g30" transform="matrix(.51977 0 0 .51977 -92.987 -110.191)"><g id="g8"><circle class="st0" cx="437.8" cy="489.1" r="237.5" id="circle4"/><path class="st1" d="M437.8 748c-142.7 0-258.9-116.1-258.9-258.9 0-142.8 116.1-258.9 258.9-258.9 142.7 0 258.9 116.1 258.9 258.9 0 142.8-116.1 258.9-258.9 258.9zm0-475c-119.1 0-216.1 96.9-216.1 216.1 0 119.2 96.9 216.1 216.1 216.1 119.1 0 216.1-96.9 216.1-216.1C653.9 369.9 557 273 437.8 273z" id="path6"/></g><g id="g14"><circle class="st0" cx="437.8" cy="489.1" r="237.5" id="circle10" style="fill:#f8f8f2;fill-opacity:1"/><path class="st1" d="M437.8 748c-142.7 0-258.9-116.1-258.9-258.9 0-142.8 116.1-258.9 258.9-258.9 142.7 0 258.9 116.1 258.9 258.9 0 142.8-116.1 258.9-258.9 258.9zm0-475c-119.1 0-216.1 96.9-216.1 216.1 0 119.2 96.9 216.1 216.1 216.1 119.1 0 216.1-96.9 216.1-216.1C653.9 369.9 557 273 437.8 273z" id="path12" style="fill:#f55;fill-opacity:1"/></g><g id="g20"><circle class="st0" cx="437.8" cy="489.1" r="144.8" id="circle16" style="fill:#f8f8f2;fill-opacity:1"/><path d="M437.8 657.7c-93 0-168.6-75.6-168.6-168.6s75.6-168.6 168.6-168.6 168.6 75.6 168.6 168.6-75.6 168.6-168.6 168.6zm0-289.5c-66.7 0-120.9 54.2-120.9 120.9S371.2 610 437.8 610c66.7 0 120.9-54.2 120.9-120.9s-54.2-120.9-120.9-120.9z" id="path18" style="fill:#f55;fill-opacity:1"/></g><circle class="st3" cx="437.8" cy="489.1" r="72.4" id="circle22" style="fill:#f55;fill-opacity:1"/><path class="st3" id="polygon24" style="fill:#8be9fd;fill-opacity:1" d="m789.3 283.4-107.7 57.4 15.3-77.3 103-51.5z"/><path class="st3" id="polygon26" style="fill:#8be9fd;fill-opacity:1" d="m755.3 397.8 109.8-53.1-71.4-33.3-102.3 52.9z"/><path d="m445.3 502.8-14.9-27.4 349.4-192.2c7.6-4.1 17.1-1.3 21.2 6.2 4.1 7.6 1.3 17.1-6.2 21.2z" id="path28" style="fill:#44475a;fill-opacity:1"/></g><g aria-label="accupy" transform="translate(-483.208 -13.429)" id="text2831" style="font-size:192px;line-height:1.25;font-family:'Helvetica Neue';-inkscape-font-specification:'Helvetica Neue, Normal';letter-spacing:0;white-space:pre;shape-inside:url(#rect2833);fill:#44475a;fill-opacity:1"><path d="M863.244 153.543c-7.872-10.752-19.584-12.48-26.88-12.48-11.904 0-22.272 4.224-29.76 11.712-7.872 7.872-13.248 20.16-13.248 34.56 0 11.328 3.456 22.464 12.48 32.064 9.408 9.984 19.776 13.056 32.064 13.056 7.104 0 17.856-1.728 25.344-13.248v10.368h27.648v-85.632h-27.648zm-19.968 11.328c4.992 0 11.136 1.92 15.36 5.952 4.032 3.84 6.336 9.6 6.336 15.744 0 7.296-3.072 12.672-6.72 16.128a20.48 20.48 0 0 1-14.4 5.952c-6.528 0-12.48-2.688-16.32-6.72-2.496-2.688-5.76-7.68-5.76-15.36s3.456-12.672 6.336-15.552c3.648-3.648 9.216-6.144 15.168-6.144z" style="font-weight:600;font-family:'Futura PT';-inkscape-font-specification:'Futura PT Semi-Bold';fill:#44475a;fill-opacity:1" id="path46316"/><path d="M976.716 145.863c-7.296-3.456-14.208-4.8-21.696-4.8-11.712 0-23.04 3.072-32.64 12.096-8.064 7.68-14.208 19.2-14.208 33.792 0 15.552 6.912 26.304 13.44 32.64 7.872 7.68 18.816 12.864 33.216 12.864 7.68 0 14.592-1.152 21.888-5.184v-24.96c-6.336 5.376-12.864 6.72-17.664 6.72-6.144 0-12.48-2.304-16.704-6.912-3.456-3.648-5.76-9.024-5.76-15.36 0-6.912 2.688-12.48 6.336-16.128 1.92-1.92 7.104-6.144 15.744-6.144 4.416 0 11.328.96 18.048 6.528z" style="font-weight:600;font-family:'Futura PT';-inkscape-font-specification:'Futura PT Semi-Bold';fill:#44475a;fill-opacity:1" id="path46318"/><path d="M1059.468 145.863c-7.296-3.456-14.208-4.8-21.696-4.8-11.712 0-23.04 3.072-32.64 12.096-8.064 7.68-14.208 19.2-14.208 33.792 0 15.552 6.912 26.304 13.44 32.64 7.872 7.68 18.816 12.864 33.216 12.864 7.68 0 14.592-1.152 21.888-5.184v-24.96c-6.336 5.376-12.864 6.72-17.664 6.72-6.144 0-12.48-2.304-16.704-6.912-3.456-3.648-5.76-9.024-5.76-15.36 0-6.912 2.688-12.48 6.336-16.128 1.92-1.92 7.104-6.144 15.744-6.144 4.416 0 11.328.96 18.048 6.528z" style="font-weight:600;font-family:'Futura PT';-inkscape-font-specification:'Futura PT Semi-Bold';fill:#44475a;fill-opacity:1" id="path46320"/><path d="M1077.9 143.943v51.648c0 9.408 1.536 18.048 9.408 25.728 9.792 9.6 24 11.136 34.56 11.136 10.176 0 24.576-1.536 34.368-11.136 8.64-8.448 9.6-17.664 9.6-27.456v-49.92h-27.648v47.232c0 4.224-.576 9.984-4.608 13.824-2.496 2.304-6.528 4.032-11.712 4.032-6.144 0-9.6-2.304-11.52-4.032-4.416-4.032-4.8-9.984-4.8-13.824v-47.232z" style="font-weight:600;font-family:'Futura PT';-inkscape-font-specification:'Futura PT Semi-Bold';fill:#44475a;fill-opacity:1" id="path46322"/><path d="M1214.988 219.783c2.88 4.032 10.176 12.672 27.264 12.672 11.328 0 20.544-3.072 28.992-11.52s13.632-19.584 13.632-34.368c0-14.016-5.184-25.728-12.864-33.408-5.376-5.376-14.976-12.096-30.336-12.096-6.528 0-17.664 1.344-26.688 13.056v-10.176h-27.648v129.6h27.648zm19.968-54.912c5.568 0 10.944 2.112 14.976 5.952 3.84 3.648 6.528 9.216 6.528 15.552 0 5.568-2.304 12.096-6.72 16.32-4.032 3.84-9.6 5.952-14.784 5.952-5.952 0-11.712-2.496-15.744-6.528-4.032-4.224-6.144-9.792-6.144-15.168 0-5.184 2.112-11.328 6.528-15.744 2.688-2.688 7.68-6.336 15.36-6.336z" style="font-weight:600;font-family:'Futura PT';-inkscape-font-specification:'Futura PT Semi-Bold';fill:#44475a;fill-opacity:1" id="path46324"/><path d="M1302.54 273.543h31.104l68.928-129.6h-31.104l-23.616 46.464-24.192-46.464h-31.872l40.896 74.688z" style="font-weight:600;font-family:'Futura PT';-inkscape-font-specification:'Futura PT Semi-Bold';fill:#44475a;fill-opacity:1" id="path46326"/></g></svg>