<svg xmlns="http://www.w3.org/2000/svg" version="1" width="1531.473" height="753.219" viewBox="0 0 1148.605 564.914"><path d="M13.531 564.762c2.324-.284 9.58-3.907 18.626-9.369 9.117-5.463 24.046-18.554 30.412-26.615 34.155-43.412 45.93-111.327 43.288-249.202-.544-29.837-.55-30.078-2.175-32.876-.885-1.488-2.78-3.8-4.228-5.158-2.964-2.653-5.026-3.157-21.324-5.084-5.74-.677-9.856-1.444-11.003-2.085-3.945-2.335-8.065-8.818-10.74-16.772-.917-2.752-.967-4.737-.523-12.327.66-10.182-.931-56.308-2.602-74.872-2.647-29.197-3.304-35.623-6.027-59.463-3.458-30.566-3.607-33.633-1.644-37.039 1.694-2.859 5.568-6.12 10.169-8.55 2.859-1.498 3.201-1.925 3.156-3.73-.084-3.308-2.715-6.75-9.422-12.163-4.833-3.943-7.489-5.579-11.913-7.303C32.3.024 31.52-.08 25.517.03 20.01.13 18.673.395 15.25 1.902 7.704 5.23 2.537 10.44.439 16.857c-.983 3.027-.643 13.672 4.486 129.778 2.303 51.89 4.244 106.253 4.709 130.195.363 17.144.537 37.961 1.19 133.57.171 20.697.413 55.354.537 77.015.195 21.66.368 48.014.35 58.485l.058 19.014z"/><g aria-label="accupy" style="line-height:0%;-inkscape-font-specification:'Commando Bold'" font-weight="700" font-size="400" font-family="Baskerville" letter-spacing="0" word-spacing="0"><path d="M268.087 218.164v-33.106q-18.603 5.86-26.953 14.063-8.203 8.203-8.203 20.8 0 8.35 3.955 13.33 3.955 4.981 10.4 4.981 8.497 0 14.649-5.713 6.152-5.859 6.152-14.355zm.293 25.488q-11.133 9.961-21.386 14.649-10.254 4.54-21.24 4.54-16.114 0-25.489-9.081-9.375-9.229-9.375-24.903 0-15.82 10.254-25.927 10.4-10.108 39.55-21.094l21.387-7.91q3.956-1.319 5.713-3.662 1.758-2.49 1.758-6.446v-10.254q0-9.082-4.394-13.77-4.248-4.833-12.452-4.833-6.152 0-10.986 3.222-4.834 3.077-7.617 8.79-.732 1.61-1.904 4.54-7.325 17.432-19.336 17.432-7.325 0-12.159-4.687-4.687-4.834-4.687-12.159 0-13.183 15.088-20.947 15.088-7.91 41.016-7.91 28.417 0 42.626 9.814 14.356 9.815 14.356 29.297v70.752q0 4.541 1.172 6.446 1.318 1.904 4.248 1.904 1.611 0 4.101-1.025 2.49-1.172 5.86-3.37l6.299 8.057q-5.42 7.764-15.235 12.744-9.814 4.98-19.629 4.98-11.279 0-17.87-4.54-6.593-4.688-9.669-14.649zM458.81 224.023l9.668 9.375q-10.254 14.502-25.488 21.973-15.088 7.47-34.57 7.47-29.737 0-48.194-18.603-18.31-18.75-18.31-48.926 0-31.933 20.947-52.002 20.947-20.068 54.345-20.068 23.145 0 36.768 8.203 13.623 8.203 13.623 21.826 0 7.325-4.541 11.72-4.395 4.247-12.012 4.247-5.713 0-10.254-3.369-4.54-3.516-7.47-9.961-.586-1.318-1.758-4.102-6.738-15.966-18.31-15.966-12.452 0-19.483 14.209-6.885 14.209-6.885 39.843 0 26.954 9.082 40.723 9.082 13.623 26.953 13.623 10.108 0 19.043-4.98 9.082-5.127 16.846-15.235zM607.052 224.023l9.668 9.375q-10.254 14.502-25.488 21.973-15.088 7.47-34.57 7.47-29.737 0-48.194-18.603-18.31-18.75-18.31-48.926 0-31.933 20.947-52.002 20.947-20.068 54.346-20.068 23.144 0 36.767 8.203 13.623 8.203 13.623 21.826 0 7.325-4.54 11.72-4.395 4.247-12.013 4.247-5.712 0-10.253-3.369-4.541-3.516-7.471-9.961-.586-1.318-1.758-4.102-6.738-15.966-18.31-15.966-12.452 0-19.483 14.209-6.885 14.209-6.885 39.843 0 26.954 9.082 40.723 9.082 13.623 26.953 13.623 10.108 0 19.043-4.98 9.082-5.127 16.846-15.235zM653.341 220.215v-59.18q0-15.527-3.662-19.629-3.516-4.101-14.062-4.54V126.61h7.177q4.688 0 13.037.147 8.35.146 11.866.146 7.324-.586 20.068-1.025 4.688-.147 6.738-.147v91.114q0 12.011 4.102 17.724 4.248 5.713 12.89 5.713 15.088 0 22.266-11.572 7.178-11.719 7.178-36.182v-33.252q0-13.916-3.662-18.017-3.662-4.248-14.649-4.541V126.61q9.375-.293 29.297-.44 19.922-.146 30.469-.439v101.953q0 7.178 2.93 9.815 3.076 2.49 11.718 2.49h3.663v11.133q-13.038 1.172-25.928 3.662-12.744 2.49-25.781 6.152H744.6l-2.49-24.902q-9.082 12.744-21.68 19.629-12.451 6.885-26.514 6.885-20.8 0-30.761-10.4-9.815-10.401-9.815-31.934zM877.023 211.865q0 15.38 7.031 23.584 7.031 8.203 20.215 8.203 16.992 0 24.902-12.451 8.057-12.451 8.057-38.672 0-23.144-7.91-35.303-7.764-12.304-22.852-12.304-13.33 0-21.386 9.96-8.057 9.815-8.057 26.368zM814.328 342.53v-10.4q13.916-1.172 18.017-5.127 4.102-3.809 4.102-15.674V176.416q0-20.947-4.248-26.514-4.248-5.566-16.114-5.566v-11.719q15.088-1.172 28.125-3.37 13.184-2.343 24.756-6.005h5.567v25.488q10.547-13.183 21.533-19.336 11.133-6.152 24.463-6.152 26.66 0 44.092 19.775 17.431 19.63 17.431 50.245 0 30.322-17.871 50.097-17.725 19.776-44.824 19.776-11.572 0-21.826-4.248-10.108-4.102-20.508-13.184v63.281q0 13.916 4.248 18.018 4.394 4.248 18.896 5.127l-.146 10.4q-14.356-.732-24.902-1.172-10.547-.293-18.75-.293-6.153 0-39.258 1.465zM1065.548 259.765l-44.97-103.71q-.44-.88-1.026-2.198-7.324-17.138-19.19-17.431l.147-10.694q8.057.44 18.604.733 10.693.146 23.877.146 8.789 0 17.431-.146 8.79-.293 16.992-.733l.147 10.694q-9.522 0-12.744 1.757-3.223 1.758-3.223 6.153 0 1.904.586 4.687.732 2.637 1.904 5.42l22.998 59.18 17.725-39.258q3.516-7.91 5.566-15.234 2.198-7.471 2.198-11.28 0-6.298-3.662-8.789-3.516-2.636-12.745-2.636v-10.694q7.618.147 16.553.586 8.936.293 10.4.293 1.612 0 7.91-.146 6.3-.293 17.579-.733v10.694q-12.744.586-26.953 33.398-4.395 10.254-6.885 15.82l-48.633 106.202q-13.77 30.029-22.851 40.136-8.936 10.254-19.483 10.254-8.056 0-13.037-4.54-4.98-4.542-4.98-12.16 0-9.667 8.35-15.673 8.495-6.006 21.972-6.006 3.955 0 8.203-4.394 4.248-4.395 8.35-12.598z" style="-inkscape-font-specification:'Baskerville Bold'"/></g></svg>