<svg height="291.535" viewBox="0 0 543.381 218.651" width="724.508" xmlns="http://www.w3.org/2000/svg" xmlns:xlink="http://www.w3.org/1999/xlink"><defs><style>*{stroke-linecap:butt;stroke-linejoin:round}</style></defs><g id="figure_1"><path d="M0 218.651h543.38V0H0z" fill="none" id="patch_1"/><g id="axes_1"><path d="M51.378 181.095h357.12V22.318H51.378z" fill="none" id="patch_2"/><g id="matplotlib.axis_1"><g id="xtick_1"><path clip-path="url(#p93f9f2b356)" d="M67.61 181.095V22.318" fill="none" stroke="#b0b0b0" stroke-linecap="square" stroke-width=".8" id="line2d_1"/><g id="line2d_2"><defs><path d="M0 0v3.5" id="m7966b6f66b" stroke="#000" stroke-width=".8"/></defs><use x="67.611" xlink:href="#m7966b6f66b" y="181.095" stroke="#000" stroke-width=".8"/></g><g id="text_1"><defs><path d="M12.406 8.297h16.11v55.625l-17.532-3.516v8.985l17.438 3.515h9.86V8.296H54.39V0H12.406z" id="DejaVuSans-49"/><path d="M31.781 66.406q-7.61 0-11.453-7.5Q16.5 51.422 16.5 36.375q0-14.984 3.828-22.484 3.844-7.5 11.453-7.5 7.672 0 11.5 7.5 3.844 7.5 3.844 22.484 0 15.047-3.844 22.531-3.828 7.5-11.5 7.5zm0 7.813q12.266 0 18.735-9.703 6.468-9.688 6.468-28.141 0-18.406-6.468-28.11-6.47-9.687-18.735-9.687-12.25 0-18.718 9.688-6.47 9.703-6.47 28.109 0 18.453 6.47 28.14Q19.53 74.22 31.78 74.22z" id="DejaVuSans-48"/></defs><g transform="matrix(.1 0 0 -.1 58.81 195.693)"><use transform="translate(0 .766)" xlink:href="#DejaVuSans-49"/><use transform="translate(63.623 .766)" xlink:href="#DejaVuSans-48"/><use transform="matrix(.7 0 0 .7 128.203 39.047)" xlink:href="#DejaVuSans-48"/></g></g></g><g id="xtick_2"><path clip-path="url(#p93f9f2b356)" d="M221.68 181.095V22.318" fill="none" stroke="#b0b0b0" stroke-linecap="square" stroke-width=".8" id="line2d_3"/><use x="221.679" xlink:href="#m7966b6f66b" y="181.095" stroke="#000" stroke-width=".8" id="line2d_4"/><g transform="matrix(.1 0 0 -.1 212.88 195.693)" id="text_2"><use transform="translate(0 .684)" xlink:href="#DejaVuSans-49"/><use transform="translate(63.623 .684)" xlink:href="#DejaVuSans-48"/><use transform="matrix(.7 0 0 .7 128.203 38.966)" xlink:href="#DejaVuSans-49"/></g></g><g id="xtick_3"><path clip-path="url(#p93f9f2b356)" d="M375.748 181.095V22.318" fill="none" stroke="#b0b0b0" stroke-linecap="square" stroke-width=".8" id="line2d_5"/><use x="375.748" xlink:href="#m7966b6f66b" y="181.095" stroke="#000" stroke-width=".8" id="line2d_6"/><g id="text_3"><defs><path d="M19.188 8.297h34.421V0H7.33v8.297q5.609 5.812 15.296 15.594 9.703 9.797 12.188 12.64 4.734 5.313 6.609 9 1.89 3.688 1.89 7.25 0 5.813-4.078 9.469-4.078 3.672-10.625 3.672-4.64 0-9.797-1.61-5.14-1.609-11-4.89v9.969Q13.767 71.78 18.938 73q5.188 1.219 9.485 1.219 11.328 0 18.062-5.672 6.735-5.656 6.735-15.125 0-4.5-1.688-8.531-1.672-4.016-6.125-9.485-1.218-1.422-7.765-8.187-6.532-6.766-18.453-18.922z" id="DejaVuSans-50"/></defs><g transform="matrix(.1 0 0 -.1 366.948 195.693)"><use transform="translate(0 .766)" xlink:href="#DejaVuSans-49"/><use transform="translate(63.623 .766)" xlink:href="#DejaVuSans-48"/><use transform="matrix(.7 0 0 .7 128.203 39.047)" xlink:href="#DejaVuSans-50"/></g></g></g><g id="xtick_4"><g id="line2d_7"><defs><path d="M0 0v2" id="m46bba48c14" stroke="#000" stroke-width=".6"/></defs><use x="52.68" xlink:href="#m46bba48c14" y="181.095" stroke="#000" stroke-width=".6"/></g></g><g id="xtick_5"><use x="60.561" xlink:href="#m46bba48c14" y="181.095" stroke="#000" stroke-width=".6" id="line2d_8"/></g><g id="xtick_6"><use x="113.99" xlink:href="#m46bba48c14" y="181.095" stroke="#000" stroke-width=".6" id="line2d_9"/></g><g id="xtick_7"><use x="141.12" xlink:href="#m46bba48c14" y="181.095" stroke="#000" stroke-width=".6" id="line2d_10"/></g><g id="xtick_8"><use x="160.369" xlink:href="#m46bba48c14" y="181.095" stroke="#000" stroke-width=".6" id="line2d_11"/></g><g id="xtick_9"><use x="175.3" xlink:href="#m46bba48c14" y="181.095" stroke="#000" stroke-width=".6" id="line2d_12"/></g><g id="xtick_10"><use x="187.499" xlink:href="#m46bba48c14" y="181.095" stroke="#000" stroke-width=".6" id="line2d_13"/></g><g id="xtick_11"><use x="197.814" xlink:href="#m46bba48c14" y="181.095" stroke="#000" stroke-width=".6" id="line2d_14"/></g><g id="xtick_12"><use x="206.749" xlink:href="#m46bba48c14" y="181.095" stroke="#000" stroke-width=".6" id="line2d_15"/></g><g id="xtick_13"><use x="214.63" xlink:href="#m46bba48c14" y="181.095" stroke="#000" stroke-width=".6" id="line2d_16"/></g><g id="xtick_14"><use x="268.059" xlink:href="#m46bba48c14" y="181.095" stroke="#000" stroke-width=".6" id="line2d_17"/></g><g id="xtick_15"><use x="295.189" xlink:href="#m46bba48c14" y="181.095" stroke="#000" stroke-width=".6" id="line2d_18"/></g><g id="xtick_16"><use x="314.438" xlink:href="#m46bba48c14" y="181.095" stroke="#000" stroke-width=".6" id="line2d_19"/></g><g id="xtick_17"><use x="329.369" xlink:href="#m46bba48c14" y="181.095" stroke="#000" stroke-width=".6" id="line2d_20"/></g><g id="xtick_18"><use x="341.568" xlink:href="#m46bba48c14" y="181.095" stroke="#000" stroke-width=".6" id="line2d_21"/></g><g id="xtick_19"><use x="351.882" xlink:href="#m46bba48c14" y="181.095" stroke="#000" stroke-width=".6" id="line2d_22"/></g><g id="xtick_20"><use x="360.817" xlink:href="#m46bba48c14" y="181.095" stroke="#000" stroke-width=".6" id="line2d_23"/></g><g id="xtick_21"><use x="368.698" xlink:href="#m46bba48c14" y="181.095" stroke="#000" stroke-width=".6" id="line2d_24"/></g><g id="text_4"><defs><path d="M54.89 33.016V0h-8.984v32.719q0 7.765-3.031 11.61-3.031 3.858-9.078 3.858-7.281 0-11.484-4.64-4.204-4.625-4.204-12.64V0H9.08v54.688h9.03v-8.5q3.235 4.937 7.594 7.374Q30.078 56 35.797 56q9.422 0 14.25-5.828 4.844-5.828 4.844-17.156z" id="DejaVuSans-110"/></defs><use xlink:href="#DejaVuSans-110" transform="matrix(.1 0 0 -.1 226.77 209.371)"/></g></g><g id="matplotlib.axis_2"><g id="ytick_1"><path clip-path="url(#p93f9f2b356)" d="M51.378 167.403h357.12" fill="none" stroke="#b0b0b0" stroke-linecap="square" stroke-width=".8" id="line2d_25"/><g id="line2d_26"><defs><path d="M0 0h-3.5" id="md375028e25" stroke="#000" stroke-width=".8"/></defs><use x="51.378" xlink:href="#md375028e25" y="167.403" stroke="#000" stroke-width=".8"/></g><g id="text_5"><defs><path d="M10.594 35.5h62.593v-8.297H10.594z" id="DejaVuSans-8722"/><path d="M10.797 72.906h38.719v-8.312H19.828v-17.86q2.14.735 4.281 1.094 2.157.36 4.313.36 12.203 0 19.328-6.688 7.14-6.688 7.14-18.11 0-11.765-7.328-18.296-7.328-6.516-20.656-6.516-4.593 0-9.36.781-4.75.782-9.827 2.344v9.922q4.39-2.39 9.078-3.563 4.687-1.171 9.906-1.171 8.453 0 13.375 4.437 4.938 4.438 4.938 12.063 0 7.609-4.938 12.047-4.922 4.453-13.375 4.453-3.953 0-7.89-.875-3.922-.875-8.016-2.735z" id="DejaVuSans-53"/></defs><g transform="matrix(.1 0 0 -.1 20.878 171.202)"><use transform="translate(0 .684)" xlink:href="#DejaVuSans-49"/><use transform="translate(63.623 .684)" xlink:href="#DejaVuSans-48"/><use transform="matrix(.7 0 0 .7 128.203 38.966)" xlink:href="#DejaVuSans-8722"/><use transform="matrix(.7 0 0 .7 186.855 38.966)" xlink:href="#DejaVuSans-53"/></g></g></g><g id="ytick_2"><path clip-path="url(#p93f9f2b356)" d="M51.378 136.589h357.12" fill="none" stroke="#b0b0b0" stroke-linecap="square" stroke-width=".8" id="line2d_27"/><use x="51.378" xlink:href="#md375028e25" y="136.589" stroke="#000" stroke-width=".8" id="line2d_28"/><g id="text_6"><defs><path d="M37.797 64.313L12.89 25.39h24.906zm-2.594 8.593H47.61V25.391h10.407v-8.203H47.609V0h-9.812v17.188H4.89v9.515z" id="DejaVuSans-52"/></defs><g transform="matrix(.1 0 0 -.1 20.878 140.388)"><use transform="translate(0 .684)" xlink:href="#DejaVuSans-49"/><use transform="translate(63.623 .684)" xlink:href="#DejaVuSans-48"/><use transform="matrix(.7 0 0 .7 128.203 38.966)" xlink:href="#DejaVuSans-8722"/><use transform="matrix(.7 0 0 .7 186.855 38.966)" xlink:href="#DejaVuSans-52"/></g></g></g><g id="ytick_3"><path clip-path="url(#p93f9f2b356)" d="M51.378 105.775h357.12" fill="none" stroke="#b0b0b0" stroke-linecap="square" stroke-width=".8" id="line2d_29"/><use x="51.378" xlink:href="#md375028e25" y="105.775" stroke="#000" stroke-width=".8" id="line2d_30"/><g id="text_7"><defs><path d="M40.578 39.313Q47.656 37.797 51.625 33q3.984-4.781 3.984-11.813 0-10.78-7.422-16.703-7.421-5.906-21.093-5.906-4.578 0-9.438.906-4.86.907-10.031 2.72v9.515q4.094-2.39 8.969-3.61 4.89-1.218 10.218-1.218 9.266 0 14.125 3.656 4.86 3.656 4.86 10.64 0 6.454-4.516 10.079-4.515 3.64-12.562 3.64h-8.5v8.11h8.89q7.266 0 11.125 2.906 3.86 2.906 3.86 8.375 0 5.61-3.985 8.61-3.968 3.015-11.39 3.015-4.063 0-8.703-.89-4.641-.876-10.203-2.72v8.782q5.624 1.562 10.53 2.344 4.907.78 9.25.78 11.235 0 17.766-5.109 6.547-5.093 6.547-13.78 0-6.063-3.468-10.235-3.47-4.172-9.86-5.782z" id="DejaVuSans-51"/></defs><g transform="matrix(.1 0 0 -.1 20.878 109.574)"><use transform="translate(0 .766)" xlink:href="#DejaVuSans-49"/><use transform="translate(63.623 .766)" xlink:href="#DejaVuSans-48"/><use transform="matrix(.7 0 0 .7 128.203 39.047)" xlink:href="#DejaVuSans-8722"/><use transform="matrix(.7 0 0 .7 186.855 39.047)" xlink:href="#DejaVuSans-51"/></g></g></g><g id="ytick_4"><path clip-path="url(#p93f9f2b356)" d="M51.378 74.961h357.12" fill="none" stroke="#b0b0b0" stroke-linecap="square" stroke-width=".8" id="line2d_31"/><use x="51.378" xlink:href="#md375028e25" y="74.961" stroke="#000" stroke-width=".8" id="line2d_32"/><g transform="matrix(.1 0 0 -.1 20.878 78.76)" id="text_8"><use transform="translate(0 .766)" xlink:href="#DejaVuSans-49"/><use transform="translate(63.623 .766)" xlink:href="#DejaVuSans-48"/><use transform="matrix(.7 0 0 .7 128.203 39.047)" xlink:href="#DejaVuSans-8722"/><use transform="matrix(.7 0 0 .7 186.855 39.047)" xlink:href="#DejaVuSans-50"/></g></g><g id="ytick_5"><path clip-path="url(#p93f9f2b356)" d="M51.378 44.148h357.12" fill="none" stroke="#b0b0b0" stroke-linecap="square" stroke-width=".8" id="line2d_33"/><use x="51.378" xlink:href="#md375028e25" y="44.148" stroke="#000" stroke-width=".8" id="line2d_34"/><g transform="matrix(.1 0 0 -.1 20.878 47.947)" id="text_9"><use transform="translate(0 .684)" xlink:href="#DejaVuSans-49"/><use transform="translate(63.623 .684)" xlink:href="#DejaVuSans-48"/><use transform="matrix(.7 0 0 .7 128.203 38.966)" xlink:href="#DejaVuSans-8722"/><use transform="matrix(.7 0 0 .7 186.855 38.966)" xlink:href="#DejaVuSans-49"/></g></g><g id="ytick_6"><g id="line2d_35"><defs><path d="M0 0h-2" id="md13c48824e" stroke="#000" stroke-width=".6"/></defs><use x="51.378" xlink:href="#md13c48824e" y="179.665" stroke="#000" stroke-width=".6"/></g></g><g id="ytick_7"><use x="51.378" xlink:href="#md13c48824e" y="176.678" stroke="#000" stroke-width=".6" id="line2d_36"/></g><g id="ytick_8"><use x="51.378" xlink:href="#md13c48824e" y="174.239" stroke="#000" stroke-width=".6" id="line2d_37"/></g><g id="ytick_9"><use x="51.378" xlink:href="#md13c48824e" y="172.176" stroke="#000" stroke-width=".6" id="line2d_38"/></g><g id="ytick_10"><use x="51.378" xlink:href="#md13c48824e" y="170.389" stroke="#000" stroke-width=".6" id="line2d_39"/></g><g id="ytick_11"><use x="51.378" xlink:href="#md13c48824e" y="168.813" stroke="#000" stroke-width=".6" id="line2d_40"/></g><g id="ytick_12"><use x="51.378" xlink:href="#md13c48824e" y="158.127" stroke="#000" stroke-width=".6" id="line2d_41"/></g><g id="ytick_13"><use x="51.378" xlink:href="#md13c48824e" y="152.701" stroke="#000" stroke-width=".6" id="line2d_42"/></g><g id="ytick_14"><use x="51.378" xlink:href="#md13c48824e" y="148.851" stroke="#000" stroke-width=".6" id="line2d_43"/></g><g id="ytick_15"><use x="51.378" xlink:href="#md13c48824e" y="145.865" stroke="#000" stroke-width=".6" id="line2d_44"/></g><g id="ytick_16"><use x="51.378" xlink:href="#md13c48824e" y="143.425" stroke="#000" stroke-width=".6" id="line2d_45"/></g><g id="ytick_17"><use x="51.378" xlink:href="#md13c48824e" y="141.362" stroke="#000" stroke-width=".6" id="line2d_46"/></g><g id="ytick_18"><use x="51.378" xlink:href="#md13c48824e" y="139.575" stroke="#000" stroke-width=".6" id="line2d_47"/></g><g id="ytick_19"><use x="51.378" xlink:href="#md13c48824e" y="137.999" stroke="#000" stroke-width=".6" id="line2d_48"/></g><g id="ytick_20"><use x="51.378" xlink:href="#md13c48824e" y="127.313" stroke="#000" stroke-width=".6" id="line2d_49"/></g><g id="ytick_21"><use x="51.378" xlink:href="#md13c48824e" y="121.887" stroke="#000" stroke-width=".6" id="line2d_50"/></g><g id="ytick_22"><use x="51.378" xlink:href="#md13c48824e" y="118.037" stroke="#000" stroke-width=".6" id="line2d_51"/></g><g id="ytick_23"><use x="51.378" xlink:href="#md13c48824e" y="115.051" stroke="#000" stroke-width=".6" id="line2d_52"/></g><g id="ytick_24"><use x="51.378" xlink:href="#md13c48824e" y="112.611" stroke="#000" stroke-width=".6" id="line2d_53"/></g><g id="ytick_25"><use x="51.378" xlink:href="#md13c48824e" y="110.548" stroke="#000" stroke-width=".6" id="line2d_54"/></g><g id="ytick_26"><use x="51.378" xlink:href="#md13c48824e" y="108.761" stroke="#000" stroke-width=".6" id="line2d_55"/></g><g id="ytick_27"><use x="51.378" xlink:href="#md13c48824e" y="107.185" stroke="#000" stroke-width=".6" id="line2d_56"/></g><g id="ytick_28"><use x="51.378" xlink:href="#md13c48824e" y="96.499" stroke="#000" stroke-width=".6" id="line2d_57"/></g><g id="ytick_29"><use x="51.378" xlink:href="#md13c48824e" y="91.073" stroke="#000" stroke-width=".6" id="line2d_58"/></g><g id="ytick_30"><use x="51.378" xlink:href="#md13c48824e" y="87.223" stroke="#000" stroke-width=".6" id="line2d_59"/></g><g id="ytick_31"><use x="51.378" xlink:href="#md13c48824e" y="84.237" stroke="#000" stroke-width=".6" id="line2d_60"/></g><g id="ytick_32"><use x="51.378" xlink:href="#md13c48824e" y="81.797" stroke="#000" stroke-width=".6" id="line2d_61"/></g><g id="ytick_33"><use x="51.378" xlink:href="#md13c48824e" y="79.735" stroke="#000" stroke-width=".6" id="line2d_62"/></g><g id="ytick_34"><use x="51.378" xlink:href="#md13c48824e" y="77.948" stroke="#000" stroke-width=".6" id="line2d_63"/></g><g id="ytick_35"><use x="51.378" xlink:href="#md13c48824e" y="76.371" stroke="#000" stroke-width=".6" id="line2d_64"/></g><g id="ytick_36"><use x="51.378" xlink:href="#md13c48824e" y="65.686" stroke="#000" stroke-width=".6" id="line2d_65"/></g><g id="ytick_37"><use x="51.378" xlink:href="#md13c48824e" y="60.26" stroke="#000" stroke-width=".6" id="line2d_66"/></g><g id="ytick_38"><use x="51.378" xlink:href="#md13c48824e" y="56.41" stroke="#000" stroke-width=".6" id="line2d_67"/></g><g id="ytick_39"><use x="51.378" xlink:href="#md13c48824e" y="53.424" stroke="#000" stroke-width=".6" id="line2d_68"/></g><g id="ytick_40"><use x="51.378" xlink:href="#md13c48824e" y="50.984" stroke="#000" stroke-width=".6" id="line2d_69"/></g><g id="ytick_41"><use x="51.378" xlink:href="#md13c48824e" y="48.921" stroke="#000" stroke-width=".6" id="line2d_70"/></g><g id="ytick_42"><use x="51.378" xlink:href="#md13c48824e" y="47.134" stroke="#000" stroke-width=".6" id="line2d_71"/></g><g id="ytick_43"><use x="51.378" xlink:href="#md13c48824e" y="45.558" stroke="#000" stroke-width=".6" id="line2d_72"/></g><g id="ytick_44"><use x="51.378" xlink:href="#md13c48824e" y="34.872" stroke="#000" stroke-width=".6" id="line2d_73"/></g><g id="ytick_45"><use x="51.378" xlink:href="#md13c48824e" y="29.446" stroke="#000" stroke-width=".6" id="line2d_74"/></g><g id="ytick_46"><use x="51.378" xlink:href="#md13c48824e" y="25.596" stroke="#000" stroke-width=".6" id="line2d_75"/></g><g id="ytick_47"><use x="51.378" xlink:href="#md13c48824e" y="22.61" stroke="#000" stroke-width=".6" id="line2d_76"/></g><g id="text_10"><defs><path d="M44.39 34.188q3.172-1.079 6.172-4.594 3-3.516 6.032-9.672L66.609 0H56l-9.313 18.703q-3.624 7.328-7.015 9.719-3.39 2.39-9.25 2.39h-10.75V0h-9.86v72.906h22.266q12.5 0 18.656-5.234 6.157-5.219 6.157-15.766 0-6.89-3.203-11.437-3.204-4.532-9.297-6.282zM19.673 64.797V38.922h12.406q7.125 0 10.766 3.297 3.64 3.297 3.64 9.687 0 6.39-3.64 9.64-3.64 3.25-10.766 3.25z" id="DejaVuSans-82"/><path d="M8.5 21.578v33.11h8.984V21.922q0-7.766 3.016-11.656 3.031-3.875 9.094-3.875 7.265 0 11.484 4.64 4.234 4.64 4.234 12.656v31h8.985V0h-8.984v8.406Q42.047 3.422 37.718 1q-4.313-2.422-10.032-2.422-9.421 0-14.312 5.86Q8.5 10.296 8.5 21.578zM31.11 56z" id="DejaVuSans-117"/><path d="M18.313 70.219V54.688h18.5v-6.985h-18.5V18.016q0-6.688 1.828-8.594 1.828-1.906 7.453-1.906h9.218V0h-9.218q-10.407 0-14.36 3.875-3.953 3.89-3.953 14.14v29.688H2.687v6.984h6.594V70.22z" id="DejaVuSans-116"/><path d="M9.422 54.688h8.984V0H9.422zm0 21.296h8.984v-11.39H9.422z" id="DejaVuSans-105"/><path d="M52 44.188q3.375 6.062 8.063 8.937Q64.75 56 71.093 56q8.548 0 13.188-5.984 4.64-5.97 4.64-17V0h-9.03v32.719q0 7.86-2.797 11.656-2.781 3.813-8.485 3.813-6.984 0-11.046-4.641-4.047-4.625-4.047-12.64V0h-9.032v32.719q0 7.906-2.78 11.687-2.782 3.782-8.595 3.782-6.89 0-10.953-4.657-4.047-4.656-4.047-12.625V0H9.08v54.688h9.03v-8.5q3.078 5.03 7.375 7.421Q29.781 56 35.687 56q5.97 0 10.141-3.031Q50 49.953 52 44.187z" id="DejaVuSans-109"/><path d="M56.203 29.594v-4.39H14.891q.593-9.282 5.593-14.142 5-4.859 13.938-4.859 5.172 0 10.031 1.266 4.86 1.265 9.656 3.812v-8.5Q49.266.734 44.187-.344 39.11-1.422 33.892-1.422q-13.094 0-20.735 7.61-7.64 7.625-7.64 20.625 0 13.421 7.25 21.296Q20.016 56 32.328 56q11.031 0 17.453-7.11 6.422-7.093 6.422-19.296zm-8.984 2.64q-.094 7.36-4.125 11.75-4.032 4.407-10.672 4.407-7.516 0-12.031-4.25-4.516-4.25-5.203-11.97z" id="DejaVuSans-101"/><path d="M8.594 75.984h20.703V69H17.578V-6.203h11.719v-6.984H8.594z" id="DejaVuSans-91"/><path d="M44.281 53.078v-8.5q-3.797 1.953-7.906 2.922-4.094.984-8.5.984-6.688 0-10.031-2.047-3.344-2.046-3.344-6.156 0-3.125 2.39-4.906 2.391-1.781 9.626-3.39l3.078-.688q9.562-2.047 13.593-5.781 4.032-3.735 4.032-10.422 0-7.625-6.032-12.078-6.03-4.438-16.578-4.438-4.39 0-9.156.86Q10.688.296 5.422 2v9.281q4.984-2.594 9.812-3.89 4.829-1.282 9.579-1.282 6.343 0 9.75 2.172 3.421 2.172 3.421 6.125 0 3.656-2.468 5.61-2.453 1.953-10.813 3.765l-3.125.735q-8.344 1.75-12.062 5.39-3.704 3.64-3.704 9.985 0 7.718 5.47 11.906Q16.75 56 26.811 56q4.97 0 9.36-.734 4.406-.72 8.11-2.188z" id="DejaVuSans-115"/><path d="M30.422 75.984v-89.171H9.719v6.984H21.39V69H9.719v6.984z" id="DejaVuSans-93"/></defs><g transform="matrix(0 -.1 -.1 0 14.798 130.685)"><use xlink:href="#DejaVuSans-82"/><use x="64.982" xlink:href="#DejaVuSans-117"/><use x="128.361" xlink:href="#DejaVuSans-110"/><use x="191.74" xlink:href="#DejaVuSans-116"/><use x="230.949" xlink:href="#DejaVuSans-105"/><use x="258.732" xlink:href="#DejaVuSans-109"/><use x="356.145" xlink:href="#DejaVuSans-101"/><use x="417.668" xlink:href="#DejaVuSans-32"/><use x="449.455" xlink:href="#DejaVuSans-91"/><use x="488.469" xlink:href="#DejaVuSans-115"/><use x="540.568" xlink:href="#DejaVuSans-93"/></g></g></g><path clip-path="url(#p93f9f2b356)" d="M67.61 173.878l46.38-2.522 46.38.006 46.379-4.754 46.379-4.655 46.379-1.244 46.38-4.322 46.378-7.174" fill="none" stroke="#1f77b4" stroke-linecap="square" stroke-width="1.5" id="line2d_77"/><path clip-path="url(#p93f9f2b356)" d="M67.61 140.303l46.38-7.035 46.38-21.365 46.379-8.869 46.379-10.19 46.379-7.519 46.38-9.76 46.378-10.15" fill="none" stroke="#ff7f0e" stroke-linecap="square" stroke-width="1.5" id="line2d_78"/><path clip-path="url(#p93f9f2b356)" d="M67.61 137.48l46.38-8.656 46.38-19.175 46.379-9.042 46.379-10.142 46.379-8.005 46.38-10.137 46.378-10.227" fill="none" stroke="#2ca02c" stroke-linecap="square" stroke-width="1.5" id="line2d_79"/><path clip-path="url(#p93f9f2b356)" d="M67.61 67.854l46.38-1.369 46.38-2.555 46.379-3.748 46.379-5.198 46.379-7.052 46.38-8.494 46.378-9.903" fill="none" stroke="#d62728" stroke-linecap="square" stroke-width="1.5" id="line2d_80"/><path d="M51.378 181.095V22.318" fill="none" stroke="#000" stroke-linecap="square" stroke-width=".8" id="patch_3"/><path d="M408.498 181.095V22.318" fill="none" stroke="#000" stroke-linecap="square" stroke-width=".8" id="patch_4"/><path d="M51.378 181.095h357.12" fill="none" stroke="#000" stroke-linecap="square" stroke-width=".8" id="patch_5"/><path d="M51.378 22.318h357.12" fill="none" stroke="#000" stroke-linecap="square" stroke-width=".8" id="patch_6"/><g id="text_11"><defs><path d="M45.406 46.39v29.594h8.985V0h-8.985v8.203Q42.578 3.328 38.25.953q-4.313-2.375-10.375-2.375-9.906 0-16.14 7.906-6.22 7.922-6.22 20.813 0 12.89 6.22 20.797Q17.968 56 27.874 56q6.063 0 10.375-2.375 4.328-2.36 7.156-7.234zm-30.61-19.093q0-9.906 4.079-15.547 4.078-5.64 11.203-5.64 7.125 0 11.219 5.64 4.11 5.64 4.11 15.547 0 9.906-4.11 15.547-4.094 5.64-11.219 5.64-7.125 0-11.203-5.64-4.078-5.64-4.078-15.547z" id="DejaVuSans-100"/><path d="M30.61 48.39q-7.22 0-11.422-5.64-4.204-5.64-4.204-15.453 0-9.813 4.172-15.453 4.188-5.64 11.453-5.64 7.188 0 11.375 5.655 4.203 5.672 4.203 15.438 0 9.719-4.203 15.406-4.187 5.688-11.375 5.688zm0 7.61q11.718 0 18.406-7.625 6.703-7.61 6.703-21.078 0-13.422-6.703-21.078-6.688-7.64-18.407-7.64-11.765 0-18.437 7.64-6.656 7.656-6.656 21.078 0 13.469 6.656 21.078Q18.844 56 30.609 56z" id="DejaVuSans-111"/><path d="M31 75.875q-6.531-11.219-9.719-22.219-3.172-10.984-3.172-22.265 0-11.266 3.203-22.328Q24.517-2 31-13.188h-7.813Q15.875-1.704 12.235 9.375q-3.64 11.078-3.64 22.016 0 10.89 3.61 21.922 3.624 11.046 10.983 22.562z" id="DejaVuSans-40"/><path d="M41.11 46.297q-1.516.875-3.297 1.281Q36.03 48 33.89 48q-7.625 0-11.703-4.953-4.079-4.953-4.079-14.234V0H9.08v54.688h9.03v-8.5q2.844 4.984 7.375 7.39Q30.031 56 36.531 56q.922 0 2.047-.125 1.125-.11 2.484-.36z" id="DejaVuSans-114"/><path d="M34.281 27.484q-10.89 0-15.093-2.484-4.204-2.484-4.204-8.5 0-4.781 3.157-7.594 3.156-2.797 8.562-2.797 7.485 0 12 5.297 4.516 5.297 4.516 14.078v2zm17.922 3.72V0H43.22v8.297Q40.14 3.328 35.547.953q-4.594-2.375-11.234-2.375-8.391 0-13.36 4.719Q6 8.016 6 15.922q0 9.219 6.172 13.906 6.187 4.688 18.437 4.688h12.61v.89q0 6.203-4.078 9.594-4.078 3.39-11.453 3.39-4.688 0-9.141-1.124-4.438-1.125-8.531-3.375v8.312q4.921 1.906 9.562 2.844 4.64.953 9.031.953 11.875 0 17.735-6.156 5.86-6.14 5.86-18.64z" id="DejaVuSans-97"/><path d="M11.719 12.406h10.297V4l-8-15.625H7.719l4 15.625z" id="DejaVuSans-44"/><path d="M8.016 75.875h7.812q7.313-11.516 10.953-22.563 3.64-11.03 3.64-21.921 0-10.938-3.64-22.016-3.64-11.078-10.953-22.563H8.016Q14.5-2 17.703 9.063q3.203 11.063 3.203 22.329 0 11.28-3.203 22.265-3.203 11-9.687 22.219z" id="DejaVuSans-41"/></defs><g transform="matrix(.12 0 0 -.12 117.567 16.318)"><use xlink:href="#DejaVuSans-100"/><use x="63.477" xlink:href="#DejaVuSans-111"/><use x="124.658" xlink:href="#DejaVuSans-116"/><use x="163.867" xlink:href="#DejaVuSans-40"/><use x="202.881" xlink:href="#DejaVuSans-114"/><use x="243.994" xlink:href="#DejaVuSans-97"/><use x="305.273" xlink:href="#DejaVuSans-110"/><use x="368.652" xlink:href="#DejaVuSans-100"/><use x="432.129" xlink:href="#DejaVuSans-111"/><use x="493.311" xlink:href="#DejaVuSans-109"/><use x="590.723" xlink:href="#DejaVuSans-40"/><use x="629.736" xlink:href="#DejaVuSans-49"/><use x="693.359" xlink:href="#DejaVuSans-48"/><use x="756.982" xlink:href="#DejaVuSans-48"/><use x="820.605" xlink:href="#DejaVuSans-44"/><use x="852.393" xlink:href="#DejaVuSans-32"/><use x="884.18" xlink:href="#DejaVuSans-110"/><use x="947.559" xlink:href="#DejaVuSans-41"/><use x="986.572" xlink:href="#DejaVuSans-44"/><use x="1018.359" xlink:href="#DejaVuSans-32"/><use x="1050.146" xlink:href="#DejaVuSans-114"/><use x="1091.26" xlink:href="#DejaVuSans-97"/><use x="1152.539" xlink:href="#DejaVuSans-110"/><use x="1215.918" xlink:href="#DejaVuSans-100"/><use x="1279.395" xlink:href="#DejaVuSans-111"/><use x="1340.576" xlink:href="#DejaVuSans-109"/><use x="1437.988" xlink:href="#DejaVuSans-40"/><use x="1477.002" xlink:href="#DejaVuSans-110"/><use x="1540.381" xlink:href="#DejaVuSans-44"/><use x="1572.168" xlink:href="#DejaVuSans-32"/><use x="1603.955" xlink:href="#DejaVuSans-49"/><use x="1667.578" xlink:href="#DejaVuSans-48"/><use x="1731.201" xlink:href="#DejaVuSans-48"/><use x="1794.824" xlink:href="#DejaVuSans-41"/><use x="1833.838" xlink:href="#DejaVuSans-41"/></g></g><g id="legend_1"><path d="M428.354 84.03h105.827q2 0 2-2V24.319q0-2-2-2H428.354q-2 0-2 2v57.713q0 2 2 2z" fill="#fff" opacity=".8" stroke="#ccc" id="patch_7"/><path d="M430.354 30.417h20" fill="none" stroke="#1f77b4" stroke-linecap="square" stroke-width="1.5" id="line2d_81"/><g id="text_12"><defs><path d="M18.11 8.203v-29H9.077v75.484h9.031v-8.296q2.844 4.875 7.157 7.234Q29.594 56 35.594 56q9.968 0 16.187-7.906 6.235-7.907 6.235-20.797T51.78 6.484q-6.218-7.906-16.187-7.906-6 0-10.328 2.375-4.313 2.375-7.157 7.25zm30.578 19.094q0 9.906-4.079 15.547-4.078 5.64-11.203 5.64-7.14 0-11.218-5.64-4.079-5.64-4.079-15.547 0-9.906 4.078-15.547 4.079-5.64 11.22-5.64 7.124 0 11.202 5.64t4.078 15.547z" id="DejaVuSans-112"/><path d="M32.172-5.078q-3.797-9.766-7.422-12.735-3.61-2.984-9.656-2.984H7.906v7.516h5.282q3.703 0 5.75 1.765Q21-9.766 23.483-3.219l1.61 4.094-22.11 53.813H12.5l17.094-42.766 17.093 42.766h9.516z" id="DejaVuSans-121"/><path d="M10.688 12.406H21V0H10.687z" id="DejaVuSans-46"/></defs><g transform="matrix(.1 0 0 -.1 458.354 33.917)"><use xlink:href="#DejaVuSans-110"/><use x="63.379" xlink:href="#DejaVuSans-117"/><use x="126.758" xlink:href="#DejaVuSans-109"/><use x="224.17" xlink:href="#DejaVuSans-112"/><use x="287.646" xlink:href="#DejaVuSans-121"/><use x="332.576" xlink:href="#DejaVuSans-46"/><use x="364.363" xlink:href="#DejaVuSans-100"/><use x="427.84" xlink:href="#DejaVuSans-111"/><use x="489.021" xlink:href="#DejaVuSans-116"/></g></g><path d="M430.354 45.095h20" fill="none" stroke="#ff7f0e" stroke-linecap="square" stroke-width="1.5" id="line2d_83"/><g id="text_13"><defs><path d="M48.781 52.594v-8.407q-3.812 2.11-7.64 3.157-3.828 1.047-7.735 1.047-8.75 0-13.593-5.547-4.829-5.532-4.829-15.547 0-10.016 4.829-15.563 4.843-5.53 13.593-5.53 3.907 0 7.735 1.046 3.828 1.047 7.64 3.156V2.094Q45.016.344 40.984-.531q-4.015-.89-8.562-.89-12.36 0-19.64 7.765-7.266 7.765-7.266 20.953 0 13.375 7.343 21.031Q20.22 56 33.016 56q4.14 0 8.093-.86 3.953-.843 7.672-2.546z" id="DejaVuSans-99"/><path d="M9.078 75.984h9.031V31.11l26.813 23.578H56.39l-29-25.578L57.625 0H45.906L18.11 26.703V0H9.08z" id="DejaVuSans-107"/></defs><g transform="matrix(.1 0 0 -.1 458.354 48.595)"><use xlink:href="#DejaVuSans-97"/><use x="61.279" xlink:href="#DejaVuSans-99"/><use x="116.26" xlink:href="#DejaVuSans-99"/><use x="171.24" xlink:href="#DejaVuSans-117"/><use x="234.619" xlink:href="#DejaVuSans-112"/><use x="298.096" xlink:href="#DejaVuSans-121"/><use x="343.025" xlink:href="#DejaVuSans-46"/><use x="374.813" xlink:href="#DejaVuSans-107"/><use x="432.723" xlink:href="#DejaVuSans-100"/><use x="496.199" xlink:href="#DejaVuSans-111"/><use x="557.381" xlink:href="#DejaVuSans-116"/><use x="596.59" xlink:href="#DejaVuSans-91"/><use x="635.604" xlink:href="#DejaVuSans-50"/><use x="699.227" xlink:href="#DejaVuSans-93"/></g></g><path d="M430.354 59.773h20" fill="none" stroke="#2ca02c" stroke-linecap="square" stroke-width="1.5" id="line2d_85"/><g transform="matrix(.1 0 0 -.1 458.354 63.273)" id="text_14"><use xlink:href="#DejaVuSans-97"/><use x="61.279" xlink:href="#DejaVuSans-99"/><use x="116.26" xlink:href="#DejaVuSans-99"/><use x="171.24" xlink:href="#DejaVuSans-117"/><use x="234.619" xlink:href="#DejaVuSans-112"/><use x="298.096" xlink:href="#DejaVuSans-121"/><use x="343.025" xlink:href="#DejaVuSans-46"/><use x="374.813" xlink:href="#DejaVuSans-107"/><use x="432.723" xlink:href="#DejaVuSans-100"/><use x="496.199" xlink:href="#DejaVuSans-111"/><use x="557.381" xlink:href="#DejaVuSans-116"/><use x="596.59" xlink:href="#DejaVuSans-91"/><use x="635.604" xlink:href="#DejaVuSans-51"/><use x="699.227" xlink:href="#DejaVuSans-93"/></g><path d="M430.354 74.45h20" fill="none" stroke="#d62728" stroke-linecap="square" stroke-width="1.5" id="line2d_87"/><g id="text_15"><defs><path d="M37.11 75.984V68.5h-8.594q-4.828 0-6.72-1.953-1.874-1.953-1.874-7.031v-4.828h14.797v-6.985H19.922V0H10.89v47.703H2.297v6.984h8.594V58.5q0 9.125 4.25 13.297 4.25 4.187 13.468 4.187z" id="DejaVuSans-102"/></defs><g transform="matrix(.1 0 0 -.1 458.354 77.95)"><use xlink:href="#DejaVuSans-97"/><use x="61.279" xlink:href="#DejaVuSans-99"/><use x="116.26" xlink:href="#DejaVuSans-99"/><use x="171.24" xlink:href="#DejaVuSans-117"/><use x="234.619" xlink:href="#DejaVuSans-112"/><use x="298.096" xlink:href="#DejaVuSans-121"/><use x="343.025" xlink:href="#DejaVuSans-46"/><use x="374.813" xlink:href="#DejaVuSans-102"/><use x="410.018" xlink:href="#DejaVuSans-100"/><use x="473.494" xlink:href="#DejaVuSans-111"/><use x="534.676" xlink:href="#DejaVuSans-116"/></g></g></g></g></g><defs><clipPath id="p93f9f2b356"><path d="M51.378 22.318h357.12v158.777H51.378z"/></clipPath></defs></svg>