<svg height="510.8" viewBox="0 0 570.354 383.1" width="760.472" xmlns="http://www.w3.org/2000/svg" xmlns:xlink="http://www.w3.org/1999/xlink"><defs><style>*{stroke-linecap:butt;stroke-linejoin:round}</style></defs><g id="figure_1"><path d="M0 383.1h570.354V0H0z" style="fill:none" id="patch_1"/><g id="axes_1"><path d="M78.108 325.56h357.12V59.448H78.108z" style="fill:none" id="patch_2"/><g id="matplotlib.axis_1"><g id="xtick_1"><g id="line2d_1"><defs><path d="M0 0v3.5" id="m1cbb8c3408" style="stroke:#969696;stroke-width:.4"/></defs><use style="fill:#969696;stroke:#969696;stroke-width:.4" x="78.108" xlink:href="#m1cbb8c3408" y="325.56"/></g><g style="fill:#969696" transform="matrix(.14 0 0 -.14 67.328 342.557)" id="text_1"><defs><path d="M621 3328h1184V0h403v4480h-326c-122-826-557-838-1261-864v-288z" id="HelveticaNeue-Light-31" transform="scale(.01563)"/><path d="M1779 4179c1024 0 1159-1190 1159-1965 0-780-135-1971-1159-1971S621 1434 621 2214c0 775 134 1965 1158 1965zm0 339C474 4518 218 3258 218 2208 218 1165 474-96 1779-96c1306 0 1562 1261 1562 2310 0 1044-256 2304-1562 2304z" id="HelveticaNeue-Light-30" transform="scale(.01563)"/></defs><use transform="translate(0 .469)" xlink:href="#HelveticaNeue-Light-31"/><use transform="translate(55.6 .469)" xlink:href="#HelveticaNeue-Light-30"/><use transform="matrix(.7 0 0 .7 112.103 36.584)" xlink:href="#HelveticaNeue-Light-30"/></g></g><g id="xtick_2"><use style="fill:#969696;stroke:#969696;stroke-width:.4" x="162.845" xlink:href="#m1cbb8c3408" y="325.56" id="line2d_2"/><g style="fill:#969696" transform="matrix(.14 0 0 -.14 152.065 342.557)" id="text_2"><use transform="translate(0 .884)" xlink:href="#HelveticaNeue-Light-31"/><use transform="translate(55.6 .884)" xlink:href="#HelveticaNeue-Light-30"/><use transform="matrix(.7 0 0 .7 112.103 37)" xlink:href="#HelveticaNeue-Light-31"/></g></g><g id="xtick_3"><use style="fill:#969696;stroke:#969696;stroke-width:.4" x="247.583" xlink:href="#m1cbb8c3408" y="325.56" id="line2d_3"/><g style="fill:#969696" transform="matrix(.14 0 0 -.14 236.803 342.557)" id="text_3"><defs><path d="M3181 371H691c109 602 909 999 1344 1293 583 378 1127 845 1127 1594 0 832-608 1260-1389 1260-973 0-1453-665-1434-1587h403c-12 659 276 1248 1012 1248 544 0 1004-333 1004-915 0-358-128-595-371-845C1626 1658 262 1331 230 0h2951v371z" id="HelveticaNeue-Light-32" transform="scale(.01563)"/></defs><use transform="translate(0 .469)" xlink:href="#HelveticaNeue-Light-31"/><use transform="translate(55.6 .469)" xlink:href="#HelveticaNeue-Light-30"/><use transform="matrix(.7 0 0 .7 112.103 36.584)" xlink:href="#HelveticaNeue-Light-32"/></g></g><g id="xtick_4"><use style="fill:#969696;stroke:#969696;stroke-width:.4" x="332.321" xlink:href="#m1cbb8c3408" y="325.56" id="line2d_4"/><g style="fill:#969696" transform="matrix(.14 0 0 -.14 321.54 342.557)" id="text_4"><defs><path d="M211 1427C147 467 813-96 1741-96c825 0 1542 486 1542 1363 0 589-339 1011-921 1107v13c480 115 755 506 755 992 0 794-685 1139-1389 1139-870 0-1408-627-1414-1472h403c-13 666 345 1133 1017 1133 538 0 980-256 980-845 0-563-493-819-909-812h-339v-340h339c595 0 1075-313 1075-947 0-640-557-992-1146-992-723 0-1145 474-1120 1184H211z" id="HelveticaNeue-Light-33" transform="scale(.01563)"/></defs><use transform="translate(0 .469)" xlink:href="#HelveticaNeue-Light-31"/><use transform="translate(55.6 .469)" xlink:href="#HelveticaNeue-Light-30"/><use transform="matrix(.7 0 0 .7 112.103 36.584)" xlink:href="#HelveticaNeue-Light-33"/></g></g><g id="xtick_5"><use style="fill:#969696;stroke:#969696;stroke-width:.4" x="417.058" xlink:href="#m1cbb8c3408" y="325.56" id="line2d_5"/><g style="fill:#969696" transform="matrix(.14 0 0 -.14 406.278 342.557)" id="text_5"><defs><path d="M192 1114h2067V0h371v1114h672v339h-672v3027h-364L192 1504v-390zm365 339 1689 2438h13V1453H557z" id="HelveticaNeue-Light-34" transform="scale(.01563)"/></defs><use transform="translate(0 .884)" xlink:href="#HelveticaNeue-Light-31"/><use transform="translate(55.6 .884)" xlink:href="#HelveticaNeue-Light-30"/><use transform="matrix(.7 0 0 .7 112.103 37)" xlink:href="#HelveticaNeue-Light-34"/></g></g><g style="fill:#969696" transform="matrix(.14 0 0 -.14 252.909 373.227)" id="text_6"><defs><path d="M378 0h403v1926c13 647 397 1133 1037 1133 652 0 838-429 838-998V0h403v2125c0 787-281 1273-1209 1273-468 0-909-268-1056-665h-13v569H378V0z" id="HelveticaNeue-Light-6e" transform="scale(.01563)"/></defs><use xlink:href="#HelveticaNeue-Light-6e"/></g></g><g id="matplotlib.axis_2"><g id="ytick_1"><path clip-path="url(#pfc361e7b4f)" d="M78.108 290.78h357.12" style="fill:none;stroke:#969696;stroke-linecap:square;stroke-width:.3" id="line2d_6"/><g id="line2d_7"><defs><path d="M0 0h-3.5" id="m31e88a67ba" style="stroke:#969696;stroke-width:.3"/></defs><use style="fill:#969696;stroke:#969696;stroke-width:.3" x="78.108" xlink:href="#m31e88a67ba" y="290.781"/></g><g style="fill:#969696" transform="matrix(.14 0 0 -.14 43.668 295.78)" id="text_7"><defs><path d="M3533 1779H314v-339h3219v339z" id="HelveticaNeue-Light-2212" transform="scale(.01563)"/><path d="M230 1280C250 429 870-96 1702-96c858 0 1556 640 1556 1517 0 902-583 1549-1504 1549-346 0-724-154-948-416l-12 12 288 1485h1958v371H800L365 2099h345c218 339 602 531 999 531 665 0 1145-505 1145-1164 0-653-428-1223-1120-1223-614 0-1081 416-1100 1037H230z" id="HelveticaNeue-Light-35" transform="scale(.01563)"/></defs><use transform="translate(0 .519)" xlink:href="#HelveticaNeue-Light-31"/><use transform="translate(55.6 .519)" xlink:href="#HelveticaNeue-Light-30"/><use transform="matrix(.7 0 0 .7 112.103 36.634)" xlink:href="#HelveticaNeue-Light-2212"/><use transform="matrix(.7 0 0 .7 154.103 36.634)" xlink:href="#HelveticaNeue-Light-35"/></g></g><g id="ytick_2"><path clip-path="url(#pfc361e7b4f)" d="M78.108 234.96h357.12" style="fill:none;stroke:#969696;stroke-linecap:square;stroke-width:.3" id="line2d_8"/><use style="fill:#969696;stroke:#969696;stroke-width:.3" x="78.108" xlink:href="#m31e88a67ba" y="234.96" id="line2d_9"/><g style="fill:#969696" transform="matrix(.14 0 0 -.14 43.668 239.958)" id="text_8"><use transform="translate(0 .884)" xlink:href="#HelveticaNeue-Light-31"/><use transform="translate(55.6 .884)" xlink:href="#HelveticaNeue-Light-30"/><use transform="matrix(.7 0 0 .7 112.103 37)" xlink:href="#HelveticaNeue-Light-2212"/><use transform="matrix(.7 0 0 .7 154.103 37)" xlink:href="#HelveticaNeue-Light-34"/></g></g><g id="ytick_3"><path clip-path="url(#pfc361e7b4f)" d="M78.108 179.14h357.12" style="fill:none;stroke:#969696;stroke-linecap:square;stroke-width:.3" id="line2d_10"/><use style="fill:#969696;stroke:#969696;stroke-width:.3" x="78.108" xlink:href="#m31e88a67ba" y="179.139" id="line2d_11"/><g style="fill:#969696" transform="matrix(.14 0 0 -.14 43.668 184.138)" id="text_9"><use transform="translate(0 .469)" xlink:href="#HelveticaNeue-Light-31"/><use transform="translate(55.6 .469)" xlink:href="#HelveticaNeue-Light-30"/><use transform="matrix(.7 0 0 .7 112.103 36.584)" xlink:href="#HelveticaNeue-Light-2212"/><use transform="matrix(.7 0 0 .7 154.103 36.584)" xlink:href="#HelveticaNeue-Light-33"/></g></g><g id="ytick_4"><path clip-path="url(#pfc361e7b4f)" d="M78.108 123.318h357.12" style="fill:none;stroke:#969696;stroke-linecap:square;stroke-width:.3" id="line2d_12"/><use style="fill:#969696;stroke:#969696;stroke-width:.3" x="78.108" xlink:href="#m31e88a67ba" y="123.318" id="line2d_13"/><g style="fill:#969696" transform="matrix(.14 0 0 -.14 43.668 128.317)" id="text_10"><use transform="translate(0 .469)" xlink:href="#HelveticaNeue-Light-31"/><use transform="translate(55.6 .469)" xlink:href="#HelveticaNeue-Light-30"/><use transform="matrix(.7 0 0 .7 112.103 36.584)" xlink:href="#HelveticaNeue-Light-2212"/><use transform="matrix(.7 0 0 .7 154.103 36.584)" xlink:href="#HelveticaNeue-Light-32"/></g></g><g id="ytick_5"><path clip-path="url(#pfc361e7b4f)" d="M78.108 67.497h357.12" style="fill:none;stroke:#969696;stroke-linecap:square;stroke-width:.3" id="line2d_14"/><use style="fill:#969696;stroke:#969696;stroke-width:.3" x="78.108" xlink:href="#m31e88a67ba" y="67.497" id="line2d_15"/><g style="fill:#969696" transform="matrix(.14 0 0 -.14 43.668 72.496)" id="text_11"><use transform="translate(0 .884)" xlink:href="#HelveticaNeue-Light-31"/><use transform="translate(55.6 .884)" xlink:href="#HelveticaNeue-Light-30"/><use transform="matrix(.7 0 0 .7 112.103 37)" xlink:href="#HelveticaNeue-Light-2212"/><use transform="matrix(.7 0 0 .7 154.103 37)" xlink:href="#HelveticaNeue-Light-31"/></g></g><g style="fill:#969696" transform="matrix(.14 0 0 -.14 7.2 38.213)" id="text_12"><defs><path d="M461 0h435v2029h1651c826 32 877-679 915-1319 13-192 13-531 122-710h480c-192 230-192 858-211 1171-32 544-205 954-800 1031v12c589 116 889 589 889 1165 0 826-633 1191-1388 1191H461V0zm435 4198h1626c652 0 985-352 985-908 0-557-454-890-985-890H896v1798z" id="HelveticaNeue-Light-52" transform="scale(.01563)"/><path d="M3059 3302h-403V1568c0-672-301-1325-992-1325-640 0-864 314-883 909v2150H378V1158C378 390 704-96 1536-96c493 0 928 250 1139 691h13V0h371v3302z" id="HelveticaNeue-Light-75" transform="scale(.01563)"/><path d="M1024 4294H621v-992H45v-339h576V704c-7-563 179-742 717-742 121 0 236 12 358 12v346c-115-13-230-19-346-19-288 19-326 173-326 435v2227h672v339h-672v992z" id="HelveticaNeue-Light-74" transform="scale(.01563)"/><path d="M390 0h404v3302H390V0zm0 3923h404v647H390v-647z" id="HelveticaNeue-Light-69" transform="scale(.01563)"/><path d="M384 0h403v1843c7 691 288 1216 986 1216 512 0 697-371 691-819V0h403v1869c0 614 199 1190 896 1190 576 0 781-294 781-838V0h403v2240c0 781-371 1158-1094 1158-435 0-851-211-1050-646-121 435-512 646-947 646-525 0-870-256-1082-652h-19v556H384V0z" id="HelveticaNeue-Light-6d" transform="scale(.01563)"/><path d="M3162 1542c32 928-391 1856-1453 1856-1050 0-1491-876-1491-1747C218 710 659-96 1709-96c832 0 1267 435 1440 1184h-403c-128-499-448-845-1037-845-775 0-1082 711-1088 1299h2541zM621 1882c64 601 429 1177 1088 1177 653 0 1030-569 1049-1177H621z" id="HelveticaNeue-Light-65" transform="scale(.01563)"/><path d="M1517-1222v339H890v5209h627v340H486v-5888h1031z" id="HelveticaNeue-Light-5b" transform="scale(.01563)"/><path d="M2765 2336c-26 717-551 1062-1210 1062-582 0-1241-256-1241-928 0-563 396-742 921-883l519-115c364-90 723-218 723-602 0-460-525-627-903-627-537 0-940 282-972 826H198C262 262 787-96 1555-96c615 0 1325 275 1325 992 0 576-480 845-941 915l-537 122c-276 70-685 198-685 557 0 428 422 569 781 569 460 0 844-224 864-723h403z" id="HelveticaNeue-Light-73" transform="scale(.01563)"/><path d="M26 4666v-340h627V-883H26v-339h1030v5888H26z" id="HelveticaNeue-Light-5d" transform="scale(.01563)"/></defs><use xlink:href="#HelveticaNeue-Light-52"/><use x="66.7" xlink:href="#HelveticaNeue-Light-75"/><use x="120.4" xlink:href="#HelveticaNeue-Light-6e"/><use x="174.1" xlink:href="#HelveticaNeue-Light-74"/><use x="203.7" xlink:href="#HelveticaNeue-Light-69"/><use x="222.2" xlink:href="#HelveticaNeue-Light-6d"/><use x="305.5" xlink:href="#HelveticaNeue-Light-65"/><use x="357.4" xlink:href="#HelveticaNeue-Light-20"/><use x="385.2" xlink:href="#HelveticaNeue-Light-5b"/><use x="409.3" xlink:href="#HelveticaNeue-Light-73"/><use x="457.4" xlink:href="#HelveticaNeue-Light-5d"/></g></g><path clip-path="url(#pfc361e7b4f)" d="m78.108 256.421 25.508-.18 25.509.18 25.509-.158 25.508-.146 25.509-.078 25.508-.412 25.509-1.913 25.508-3.617 25.509-4.45 25.509-4.828 25.508-8.316 25.509-11.387 25.508-26.5 25.509-19.47" style="fill:none;stroke:#1f77b4;stroke-linecap:square;stroke-width:1.5" id="line2d_16"/><path clip-path="url(#pfc361e7b4f)" d="m78.108 318.2 25.508-10.116 25.509-.98 25.509.739 25.508-.72 25.509-3.028 25.508-3.016 25.509-3.094 25.508-9.473 25.509-11.647 25.509-9.468 25.508-14.729 25.509-15.496 25.508-41.68 25.509-17.792" style="fill:none;stroke:#ff7f0e;stroke-linecap:square;stroke-width:1.5" id="line2d_17"/><path clip-path="url(#pfc361e7b4f)" d="m78.108 325.56 25.508-.573 25.509-1.92 25.509 1.467 25.508-3.186 25.509-5.874 25.508-8.174 25.509-11.134 25.508-14.495 25.509-15.282 25.509-14.5 25.508-17.84 25.509-19.957 25.508-32.835 25.509-13.2" style="fill:none;stroke:#2ca02c;stroke-linecap:square;stroke-width:1.5" id="line2d_18"/><path clip-path="url(#pfc361e7b4f)" d="m78.108 296.739 25.508-7.201 25.509-1.41 25.509-.733 25.508-3.422 25.509-6.059 25.508-8.185 25.509-11.174 25.508-14.014 25.509-14.443 25.509-19.95 25.508-16.375 25.509-20.097 25.508-17.773 25.509-19.063" style="fill:none;stroke:#d62728;stroke-linecap:square;stroke-width:1.5" id="line2d_19"/><path clip-path="url(#pfc361e7b4f)" d="m78.108 295.403 25.508-7.396 25.509-1.773 25.509-2.32 25.508-5.095 25.509-8.01 25.508-10.446 25.509-13.246 25.508-14.73 25.509-15.267 25.509-18.745 25.508-16.485 25.509-20.634 25.508-18.117 25.509-17.293" style="fill:none;stroke:#9467bd;stroke-linecap:square;stroke-width:1.5" id="line2d_20"/><path clip-path="url(#pfc361e7b4f)" d="m78.108 250.032 25.508-3.799 25.509-5.194 25.509-7.148 25.508-10.067 25.509-12.593 25.508-14.367 25.509-15.375 25.508-16.65 25.509-16.676 25.509-16.525 25.508-16.226 25.509-17.422 25.508-31.834 25.509-6.708" style="fill:none;stroke:#8c564b;stroke-linecap:square;stroke-width:1.5" id="line2d_21"/><g style="fill:#1f77b4" transform="matrix(.14 0 0 -.14 445.941 177.296)" id="text_13"><use xlink:href="#HelveticaNeue-Light-73"/><use x="48.1" xlink:href="#HelveticaNeue-Light-75"/><use x="101.8" xlink:href="#HelveticaNeue-Light-6d"/></g><g style="fill:#ff7f0e" transform="matrix(.14 0 0 -.14 445.941 191.296)" id="text_14"><defs><path d="M3027 1651c0-685-313-1408-1081-1408-858 0-1159 723-1159 1408 0 749 269 1408 1159 1408 768 0 1081-723 1081-1408zM384-1222h403V627h13C973 154 1453-96 1946-96c1004 0 1484 813 1484 1747 0 935-480 1747-1484 1747-532 0-992-275-1178-723h-13v627H384v-4524z" id="HelveticaNeue-Light-70" transform="scale(.01563)"/><path d="m1331 13-141-378c-134-307-217-518-576-518-89 0-179 13-275 32v-339c64-26 147-26 307-32 506 0 640 160 871 716l1433 3808h-403L1530 486 442 3302H13L1331 13z" id="HelveticaNeue-Light-79" transform="scale(.01563)"/><path d="M1158 0v678H621V0h537z" id="HelveticaNeue-Light-2e" transform="scale(.01563)"/></defs><use xlink:href="#HelveticaNeue-Light-6e"/><use x="53.7" xlink:href="#HelveticaNeue-Light-75"/><use x="107.4" xlink:href="#HelveticaNeue-Light-6d"/><use x="190.7" xlink:href="#HelveticaNeue-Light-70"/><use x="248.1" xlink:href="#HelveticaNeue-Light-79"/><use x="294.4" xlink:href="#HelveticaNeue-Light-2e"/><use x="322.2" xlink:href="#HelveticaNeue-Light-73"/><use x="370.3" xlink:href="#HelveticaNeue-Light-75"/><use x="424" xlink:href="#HelveticaNeue-Light-6d"/></g><g style="fill:#2ca02c" transform="matrix(.14 0 0 -.14 445.941 163.296)" id="text_15"><defs><path d="M2496 1280c6-646-538-1037-1152-1037-378 0-736 250-736 653 0 646 851 640 1536 762 109 19 288 51 339 147h13v-525zM749 2291c13 538 384 768 883 768 474 0 864-134 864-678 0-365-186-410-518-448-871-103-1773-135-1773-1063 0-665 499-966 1107-966 634 0 922 243 1203 672h13c0-346 64-576 474-576 108 0 172 6 262 26v339c-32-13-83-26-128-26-160 0-237 90-237 243v1754c0 883-633 1062-1216 1062-755 0-1299-332-1337-1107h403z" id="HelveticaNeue-Light-61" transform="scale(.01563)"/><path d="M3117 2266c-90 755-634 1132-1338 1132-1011 0-1561-800-1561-1747S768-96 1779-96c736 0 1255 486 1363 1280h-403c-51-550-461-941-960-941-774 0-1158 704-1158 1408s384 1408 1158 1408c525 0 826-301 935-793h403z" id="HelveticaNeue-Light-63" transform="scale(.01563)"/><path d="M384 0h403v1254l653 544L2746 0h505L1747 2080l1408 1222h-537L787 1702v2868H384V0z" id="HelveticaNeue-Light-6b" transform="scale(.01563)"/><path d="M378 0h403v1926c13 647 397 1133 1037 1133 652 0 838-429 838-998V0h403v2125c0 787-281 1273-1209 1273-468 0-909-268-1056-665h-13v1837H378V0z" id="HelveticaNeue-Light-68" transform="scale(.01563)"/><path d="M3200-800v320H0v-320h3200z" id="HelveticaNeue-Light-5f" transform="scale(.01563)"/></defs><use xlink:href="#HelveticaNeue-Light-61"/><use x="51.9" xlink:href="#HelveticaNeue-Light-63"/><use x="103.8" xlink:href="#HelveticaNeue-Light-63"/><use x="155.7" xlink:href="#HelveticaNeue-Light-75"/><use x="209.4" xlink:href="#HelveticaNeue-Light-70"/><use x="266.8" xlink:href="#HelveticaNeue-Light-79"/><use x="313.1" xlink:href="#HelveticaNeue-Light-2e"/><use x="340.9" xlink:href="#HelveticaNeue-Light-6b"/><use x="390.9" xlink:href="#HelveticaNeue-Light-61"/><use x="442.8" xlink:href="#HelveticaNeue-Light-68"/><use x="496.5" xlink:href="#HelveticaNeue-Light-61"/><use x="548.4" xlink:href="#HelveticaNeue-Light-6e"/><use x="602.1" xlink:href="#HelveticaNeue-Light-5f"/><use x="652.1" xlink:href="#HelveticaNeue-Light-73"/><use x="700.2" xlink:href="#HelveticaNeue-Light-75"/><use x="753.9" xlink:href="#HelveticaNeue-Light-6d"/></g><g style="fill:#d62728" transform="matrix(.14 0 0 -.14 445.941 142.11)" id="text_16"><use xlink:href="#HelveticaNeue-Light-61"/><use x="51.9" xlink:href="#HelveticaNeue-Light-63"/><use x="103.8" xlink:href="#HelveticaNeue-Light-63"/><use x="155.7" xlink:href="#HelveticaNeue-Light-75"/><use x="209.4" xlink:href="#HelveticaNeue-Light-70"/><use x="266.8" xlink:href="#HelveticaNeue-Light-79"/><use x="313.1" xlink:href="#HelveticaNeue-Light-2e"/><use x="340.9" xlink:href="#HelveticaNeue-Light-6b"/><use x="390.9" xlink:href="#HelveticaNeue-Light-73"/><use x="439" xlink:href="#HelveticaNeue-Light-75"/><use x="492.7" xlink:href="#HelveticaNeue-Light-6d"/><use x="576" xlink:href="#HelveticaNeue-Light-5b"/><use x="600.1" xlink:href="#HelveticaNeue-Light-32"/><use x="655.7" xlink:href="#HelveticaNeue-Light-5d"/></g><g style="fill:#9467bd" transform="matrix(.14 0 0 -.14 445.941 128.11)" id="text_17"><use xlink:href="#HelveticaNeue-Light-61"/><use x="51.9" xlink:href="#HelveticaNeue-Light-63"/><use x="103.8" xlink:href="#HelveticaNeue-Light-63"/><use x="155.7" xlink:href="#HelveticaNeue-Light-75"/><use x="209.4" xlink:href="#HelveticaNeue-Light-70"/><use x="266.8" xlink:href="#HelveticaNeue-Light-79"/><use x="313.1" xlink:href="#HelveticaNeue-Light-2e"/><use x="340.9" xlink:href="#HelveticaNeue-Light-6b"/><use x="390.9" xlink:href="#HelveticaNeue-Light-73"/><use x="439" xlink:href="#HelveticaNeue-Light-75"/><use x="492.7" xlink:href="#HelveticaNeue-Light-6d"/><use x="576" xlink:href="#HelveticaNeue-Light-5b"/><use x="600.1" xlink:href="#HelveticaNeue-Light-33"/><use x="655.7" xlink:href="#HelveticaNeue-Light-5d"/></g><g style="fill:#8c564b" transform="matrix(.14 0 0 -.14 445.941 63.11)" id="text_18"><defs><path d="M1658 3302h-653v288c6 359-7 640 441 640 96 0 186-12 295-32v346c-128 19-224 26-339 26-647 0-807-397-800-967v-301H38v-339h564V0h403v2963h653v339z" id="HelveticaNeue-Light-66" transform="scale(.01563)"/></defs><use xlink:href="#HelveticaNeue-Light-61"/><use x="51.9" xlink:href="#HelveticaNeue-Light-63"/><use x="103.8" xlink:href="#HelveticaNeue-Light-63"/><use x="155.7" xlink:href="#HelveticaNeue-Light-75"/><use x="209.4" xlink:href="#HelveticaNeue-Light-70"/><use x="266.8" xlink:href="#HelveticaNeue-Light-79"/><use x="313.1" xlink:href="#HelveticaNeue-Light-2e"/><use x="340.9" xlink:href="#HelveticaNeue-Light-66"/><use x="366.8" xlink:href="#HelveticaNeue-Light-73"/><use x="414.9" xlink:href="#HelveticaNeue-Light-75"/><use x="468.6" xlink:href="#HelveticaNeue-Light-6d"/></g><g style="fill:#969696" transform="matrix(.168 0 0 -.168 180.576 19.448)" id="text_19"><defs><path d="M230 1504C179 390 973-96 2054-96c1620 0 1748 992 1748 1306 0 748-538 1030-1184 1203l-1114 275c-371 90-691 269-691 698 0 678 550 908 1145 908 647 0 1223-352 1248-1049h436c6 934-788 1421-1690 1421-1286 0-1574-839-1574-1287 0-710 492-966 1030-1101l1018-249c422-103 940-307 940-826 0-665-729-928-1209-928-832 0-1511 288-1491 1229H230z" id="HelveticaNeue-Light-53" transform="scale(.01563)"/><path d="M1549-1222C1062-429 730 627 730 1555c0 1127 249 2202 819 3111h-320c-557-864-903-1876-903-2964 0-1113 333-1984 903-2924h320z" id="HelveticaNeue-Light-28" transform="scale(.01563)"/><path d="M384 0h403v1760c0 685 499 1222 1229 1184v403c-595 26-1043-288-1248-819h-13v774H384V0z" id="HelveticaNeue-Light-72" transform="scale(.01563)"/><path d="M646 1651c0 685 314 1408 1082 1408 858 0 1158-723 1158-1408S2586 243 1728 243C960 243 646 966 646 1651zm2644 2919h-404V2675h-12c-173 474-653 723-1146 723-1005 0-1485-812-1485-1747C243 717 723-96 1728-96c480 0 1005 294 1178 723h12V0h372v4570z" id="HelveticaNeue-Light-64" transform="scale(.01563)"/><path d="M1779 3398c-1011 0-1561-800-1561-1747S768-96 1779-96s1562 800 1562 1747-551 1747-1562 1747zm0-339c775 0 1159-704 1159-1408S2554 243 1779 243c-774 0-1158 704-1158 1408s384 1408 1158 1408z" id="HelveticaNeue-Light-6f" transform="scale(.01563)"/><path d="M621 678V0h269c12-211-84-525-295-602v-275c384 109 557 499 563 871v684H621z" id="HelveticaNeue-Light-2c" transform="scale(.01563)"/><path d="M-6 4666c486-794 819-1850 819-2778C813 762 563-314-6-1222h320c556 864 902 1875 902 2963 0 1113-333 1984-902 2925H-6z" id="HelveticaNeue-Light-29" transform="scale(.01563)"/></defs><use xlink:href="#HelveticaNeue-Light-53"/><use x="63" xlink:href="#HelveticaNeue-Light-75"/><use x="116.7" xlink:href="#HelveticaNeue-Light-6d"/><use x="200" xlink:href="#HelveticaNeue-Light-28"/><use x="224.1" xlink:href="#HelveticaNeue-Light-72"/><use x="255.6" xlink:href="#HelveticaNeue-Light-61"/><use x="307.5" xlink:href="#HelveticaNeue-Light-6e"/><use x="361.2" xlink:href="#HelveticaNeue-Light-64"/><use x="418.6" xlink:href="#HelveticaNeue-Light-6f"/><use x="474.2" xlink:href="#HelveticaNeue-Light-6d"/><use x="557.5" xlink:href="#HelveticaNeue-Light-28"/><use x="581.6" xlink:href="#HelveticaNeue-Light-31"/><use x="637.2" xlink:href="#HelveticaNeue-Light-30"/><use x="692.8" xlink:href="#HelveticaNeue-Light-30"/><use x="748.4" xlink:href="#HelveticaNeue-Light-2c"/><use x="776.2" xlink:href="#HelveticaNeue-Light-20"/><use x="804" xlink:href="#HelveticaNeue-Light-6e"/><use x="857.7" xlink:href="#HelveticaNeue-Light-29"/><use x="881.8" xlink:href="#HelveticaNeue-Light-29"/></g></g></g><defs><clipPath id="pfc361e7b4f"><path d="M78.108 59.448h357.12V325.56H78.108z"/></clipPath></defs></svg>